<svg width="53" height="54" viewBox="0 0 53 54" fill="none" xmlns="http://www.w3.org/2000/svg">
<g id="Asset 99 2">
<path id="Vector" d="M42.75 31.8542C42.75 32.2988 42.5788 32.7253 42.274 33.0397C41.9693 33.3541 41.556 33.5307 41.125 33.5307C40.694 33.5307 40.2807 33.3541 39.976 33.0397C39.6712 32.7253 39.5 32.2988 39.5 31.8542C39.5 31.4096 39.6712 30.9831 39.976 30.6687C40.2807 30.3543 40.694 30.1777 41.125 30.1777C41.556 30.1777 41.9693 30.3543 42.274 30.6687C42.5788 30.9831 42.75 31.4096 42.75 31.8542ZM11.875 30.1777C11.444 30.1777 11.0307 30.3543 10.726 30.6687C10.4212 30.9831 10.25 31.4096 10.25 31.8542C10.25 32.2988 10.4212 32.7253 10.726 33.0397C11.0307 33.3541 11.444 33.5307 11.875 33.5307C12.306 33.5307 12.7193 33.3541 13.024 33.0397C13.3288 32.7253 13.5 32.2988 13.5 31.8542C13.5 31.4096 13.3288 30.9831 13.024 30.6687C12.7193 30.3543 12.306 30.1777 11.875 30.1777ZM45.5125 21.795L46.1787 23.6727C47.1317 24.449 47.9027 25.4371 48.4345 26.5633C48.9662 27.6895 49.245 28.9249 49.25 30.1777V45.2665C49.25 46.1558 48.9076 47.0086 48.2981 47.6375C47.6886 48.2663 46.862 48.6196 46 48.6196H42.75C41.888 48.6196 41.0614 48.2663 40.4519 47.6375C39.8424 47.0086 39.5 46.1558 39.5 45.2665V41.9134H13.5V45.2665C13.5 46.1558 13.1576 47.0086 12.5481 47.6375C11.9386 48.2663 11.112 48.6196 10.25 48.6196H7C6.13805 48.6196 5.3114 48.2663 4.7019 47.6375C4.09241 47.0086 3.75 46.1558 3.75 45.2665V30.1777C3.75 27.5455 4.96875 25.2151 6.82125 23.6727L7.4875 21.795H3.75V18.4419H8.625V18.6934L11.5825 10.5622C11.8139 9.92309 12.2288 9.37204 12.7718 8.9826C13.3148 8.59317 13.96 8.38388 14.6212 8.38269H38.3787C39.7275 8.38269 40.9463 9.25449 41.4175 10.5622L44.375 18.6934V18.4419H49.25V21.795H45.5125ZM10.25 41.9134H7V45.2665H10.25V41.9134ZM46 41.9134H42.75V45.2665H46V41.9134ZM46 38.5603V30.1777C46 28.8437 45.4864 27.5644 44.5721 26.6212C43.6579 25.678 42.4179 25.1481 41.125 25.1481H11.875C10.5821 25.1481 9.34209 25.678 8.42785 26.6212C7.51361 27.5644 7 28.8437 7 30.1777V38.5603H46ZM41.125 21.795H42.035L38.3625 11.7358H14.6212L10.965 21.795H41.125ZM16.75 33.5307H36.25V30.1777H16.75V33.5307Z" fill="#C5A56B"/>
</g>
</svg>
