<svg width="20" height="20" viewBox="0 0 20 20" fill="none" xmlns="http://www.w3.org/2000/svg">
<g id="Thread">
<path id="Thread_2" fill-rule="evenodd" clip-rule="evenodd" d="M9.15657 2.55731C5.67878 2.94956 3.61969 5.35831 3.36165 9.33643C2.97786 15.2524 6.48682 18.7724 11.7157 17.7168C16.2293 16.8056 17.5753 11.5708 13.7785 9.69443C13.5724 9.59256 13.4864 9.52614 13.4739 9.45897C13.4643 9.40752 13.4354 9.20231 13.4098 9.00293C13.0464 6.17977 9.67119 5.0496 7.66699 7.08002C7.19782 7.55535 7.1799 7.46214 7.82394 7.89697C8.36432 8.26185 8.36432 8.26185 8.60444 8.02198C9.72469 6.90289 11.7052 7.3906 12.0355 8.86693C12.0983 9.14752 12.1197 9.13272 11.7191 9.08602C11.1341 9.01781 9.69078 9.06997 9.3024 9.17335C5.87007 10.0872 6.66299 14.3593 10.2369 14.2079C11.9049 14.1373 12.9799 13.1636 13.3459 11.3919C13.4344 10.9633 13.4972 10.9699 13.9732 11.4576C15.7052 13.2328 14.0247 16.0957 11.0327 16.4674C6.62599 17.0149 4.18178 14.0523 4.74349 8.8446C5.09049 5.62772 6.98311 3.86881 10.0941 3.87214C12.678 3.87489 14.5538 5.13614 15.2 7.30518C15.3239 7.72143 15.2809 7.7086 15.9554 7.52997C16.6922 7.33485 16.6459 7.38735 16.4909 6.92268C15.4593 3.82943 12.6584 2.16235 9.15657 2.55731ZM11.4691 10.4278C12.1784 10.505 12.1302 10.4786 12.0994 10.7731C11.9057 12.627 10.0672 13.5745 8.80844 12.4693C7.55628 11.3699 9.11765 10.1718 11.4691 10.4278Z" fill="#808080"/>
</g>
</svg>
