<svg width="53" height="54" viewBox="0 0 53 54" fill="none" xmlns="http://www.w3.org/2000/svg">
<g id="Asset 99 2">
<path id="Vector" d="M37.875 5.02955C38.6964 5.02717 39.4881 5.34571 40.091 5.92112C40.694 6.49654 41.0634 7.28614 41.125 8.13115V10.931L49.25 7.57789V27.6293L41.125 24.2762V26.8245C41.1273 27.6719 40.8186 28.4888 40.2608 29.1108C39.7031 29.7329 38.9378 30.114 38.1188 30.1776H27.9625C27.6408 31.8127 26.8535 33.3116 25.7013 34.4824C24.5492 35.6532 23.0846 36.4426 21.495 36.7496C21.1588 38.6126 20.2206 40.303 18.8336 41.5452C17.4466 42.7875 15.6925 43.5082 13.8575 43.5899H7.00001V50.296H3.75001V33.5307H7.00001V40.2368H13.5C14.5458 40.2364 15.5638 39.8891 16.4036 39.246C17.2434 38.603 17.8605 37.6984 18.1638 36.6658C16.6475 36.3033 15.2641 35.4991 14.1781 34.3489C13.0921 33.1987 12.3491 31.7509 12.0375 30.1776H7.00001C6.17867 30.18 5.38692 29.8614 4.78397 29.286C4.18103 28.7106 3.81161 27.921 3.75001 27.076V8.38263C3.7477 7.53524 4.05645 6.71838 4.61418 6.09631C5.1719 5.47424 5.93723 5.09311 6.75626 5.02955H7.00001H37.875ZM20 23.4715C18.7071 23.4715 17.4671 24.0014 16.5529 24.9446C15.6386 25.8878 15.125 27.1671 15.125 28.5011C15.125 29.835 15.6386 31.1143 16.5529 32.0575C17.4671 33.0008 18.7071 33.5307 20 33.5307C21.2929 33.5307 22.5329 33.0008 23.4472 32.0575C24.3614 31.1143 24.875 29.835 24.875 28.5011C24.875 27.1671 24.3614 25.8878 23.4472 24.9446C22.5329 24.0014 21.2929 23.4715 20 23.4715ZM37.875 8.38263H7.00001V26.8245H12.0375C12.4105 24.9296 13.4069 23.2259 14.8581 22.0022C16.3092 20.7785 18.1258 20.11 20 20.11C21.8742 20.11 23.6908 20.7785 25.1419 22.0022C26.5931 23.2259 27.5896 24.9296 27.9625 26.8245H37.875V8.38263ZM46 12.5404L41.125 14.5523V20.6549L46 22.6667V12.5404ZM11.875 11.7357C12.306 11.7357 12.7193 11.9123 13.0241 12.2267C13.3288 12.5412 13.5 12.9676 13.5 13.4122C13.5 13.8569 13.3288 14.2833 13.0241 14.5977C12.7193 14.9121 12.306 15.0888 11.875 15.0888C11.444 15.0888 11.0307 14.9121 10.726 14.5977C10.4212 14.2833 10.25 13.8569 10.25 13.4122C10.25 12.9676 10.4212 12.5412 10.726 12.2267C11.0307 11.9123 11.444 11.7357 11.875 11.7357Z" fill="#C5A56B"/>
</g>
</svg>
