<svg width="32" height="33" viewBox="0 0 32 33" fill="none" xmlns="http://www.w3.org/2000/svg">
<g clip-path="url(#clip0_4239_963)">
<path d="M32 16.2988C32 7.46227 24.8366 0.298828 16 0.298828C7.16344 0.298828 0 7.46227 0 16.2988C0 24.2848 5.85094 30.9041 13.5 32.1045V20.9238H9.4375V16.2988H13.5V12.7738C13.5 8.76383 15.8888 6.54883 19.5434 6.54883C21.2934 6.54883 23.125 6.86133 23.125 6.86133V10.7988H21.1075C19.12 10.7988 18.5 12.0323 18.5 13.2988V16.2988H22.9375L22.2281 20.9238H18.5V32.1045C26.1491 30.9041 32 24.2848 32 16.2988Z" fill="white"/>
</g>
<defs>
<clipPath id="clip0_4239_963">
<rect width="32" height="32" fill="white" transform="translate(0 0.298828)"/>
</clipPath>
</defs>
</svg>
