<svg width="53" height="54" viewBox="0 0 53 54" fill="none" xmlns="http://www.w3.org/2000/svg">
<g id="Asset 99 2" clip-path="url(#clip0_4220_699)">
<path id="Vector" d="M26.5 34.084C28.0817 34.084 29.5986 34.7322 30.717 35.8861C31.8354 37.04 32.4638 38.605 32.4638 40.2369C32.4638 41.8687 31.8354 43.4337 30.717 44.5876C29.5986 45.7415 28.0817 46.3898 26.5 46.3898C24.9183 46.3898 23.4014 45.7415 22.283 44.5876C21.1646 43.4337 20.5363 41.8687 20.5363 40.2369C20.5363 38.605 21.1646 37.04 22.283 35.8861C23.4014 34.7322 24.9183 34.084 26.5 34.084ZM26.5 37.4371C25.7803 37.4371 25.09 37.732 24.5811 38.2571C24.0722 38.7822 23.7863 39.4943 23.7863 40.2369C23.7863 40.9794 24.0722 41.6916 24.5811 42.2166C25.09 42.7417 25.7803 43.0367 26.5 43.0367C27.2197 43.0367 27.91 42.7417 28.4189 42.2166C28.9279 41.6916 29.2138 40.9794 29.2138 40.2369C29.2138 39.4943 28.9279 38.7822 28.4189 38.2571C27.91 37.732 27.2197 37.4371 26.5 37.4371ZM26.5 25.148C29.2108 25.1488 31.868 25.9267 34.175 27.3951C36.4821 28.8635 38.3482 30.9645 39.565 33.4637L37.1113 35.9952C36.2839 33.7849 34.8274 31.8847 32.9334 30.5446C31.0394 29.2045 28.7966 28.4872 26.5 28.4872C24.2034 28.4872 21.9606 29.2045 20.0666 30.5446C18.1726 31.8847 16.7161 33.7849 15.8888 35.9952L13.435 33.4637C14.6518 30.9645 16.5179 28.8635 18.825 27.3951C21.132 25.9267 23.7893 25.1488 26.5 25.148ZM26.5 16.2121C34.5925 16.2121 41.7263 20.4705 45.9025 26.9419L43.5463 29.3561C41.751 26.3577 39.2424 23.8826 36.2589 22.1659C33.2755 20.4493 29.9161 19.5482 26.5 19.5482C23.0839 19.5482 19.7246 20.4493 16.7411 22.1659C13.7576 23.8826 11.249 26.3577 9.45377 29.3561L7.09751 26.9252C9.22198 23.6234 12.1056 20.9156 15.4912 19.0434C18.8767 17.1712 22.6588 16.1927 26.5 16.1953V16.2121ZM26.5 7.2594C36.9813 7.2594 46.2925 12.4567 52.11 20.504L49.7863 22.9182C47.1321 19.1037 43.6358 15.996 39.5865 13.8523C35.5372 11.7086 31.0513 10.5905 26.5 10.5905C21.9487 10.5905 17.4629 11.7086 13.4136 13.8523C9.36424 15.996 5.86789 19.1037 3.21376 22.9182L0.890015 20.5208C6.70751 12.4734 16.0025 7.27617 26.5 7.27617V7.2594Z" fill="#C5A56B"/>
</g>
<defs>
<clipPath id="clip0_4220_699">
<rect width="52" height="53.6492" fill="white" transform="translate(0.5)"/>
</clipPath>
</defs>
</svg>
