<svg width="53" height="54" viewBox="0 0 53 54" fill="none" xmlns="http://www.w3.org/2000/svg">
<path d="M26.5038 29.6112C27.5109 29.6112 28.5081 29.8097 29.4384 30.1953C30.3688 30.581 31.214 31.1462 31.9258 31.8586C32.6375 32.5711 33.2019 33.4168 33.5867 34.3476C33.9714 35.2783 34.1689 36.2757 34.1679 37.2828V48.444C34.1679 49.6293 34.6388 50.766 35.4769 51.604C36.3149 52.4421 37.4516 52.913 38.6369 52.913H47.2949C48.4802 52.913 49.6169 52.4421 50.4549 51.604C51.293 50.766 51.7639 49.6293 51.7639 48.444V22.1827C51.7639 19.7163 50.8951 18.0819 47.8618 15.5566C45.2482 13.4215 36.5754 6.94268 30.7518 2.51057C27.8584 0.287151 25.2669 2.10588e-05 21.8508 2.59155C15.8947 7.09729 7.73725 13.4362 5.13835 15.5787C2.10508 18.0819 1.23633 19.7163 1.23633 22.2048V48.444C1.23633 49.0309 1.35192 49.612 1.5765 50.1542C1.80109 50.6964 2.13027 51.1891 2.54525 51.604C2.96022 52.019 3.45287 52.3482 3.99507 52.5728C4.53726 52.7974 5.11838 52.913 5.70525 52.913H14.3633C15.5486 52.913 16.6852 52.4421 17.5233 51.604C18.3614 50.766 18.8322 49.6293 18.8322 48.444V37.2828C18.8313 36.2751 19.0291 35.277 19.4142 34.3459C19.7994 33.4147 20.3645 32.5686 21.077 31.856C21.7896 31.1435 22.6357 30.5784 23.5669 30.1932C24.4981 29.808 25.4961 29.6103 26.5038 29.6112Z" stroke="#C5A56B" stroke-width="2" stroke-linecap="round" stroke-linejoin="round"/>
<path d="M18.7588 17.3604H34.2417" stroke="#C5A56B" stroke-width="2" stroke-linecap="round" stroke-linejoin="round"/>
</svg>
