<svg width="51" height="28" viewBox="0 0 51 28" fill="none" xmlns="http://www.w3.org/2000/svg">
<path fill-rule="evenodd" clip-rule="evenodd" d="M24.1479 4.39575e-05C24.1663 0.0124331 26.5568 1.431 34.7381 6.28756L34.7534 14.5945L36.0331 15.7622C36.7389 16.4033 37.3189 16.9454 37.322 16.9701C37.3281 16.998 37.2944 17.0104 37.2146 17.0104C37.1532 17.0073 36.7696 16.9763 35.6219 16.871L35.4869 16.7595C35.4132 16.6976 34.2195 15.6817 32.8355 14.5047C31.2183 13.1326 30.2332 12.3149 30.0736 12.2189C29.9386 12.1384 29.7084 12.0238 29.5611 11.9711C29.4138 11.9153 29.1898 11.8472 29.0671 11.8193C28.9474 11.7946 28.7142 11.7636 28.5546 11.7543C28.3919 11.745 28.1434 11.7543 27.9869 11.776C27.8365 11.7946 27.5971 11.8472 27.456 11.8875C27.3179 11.9277 27.1031 12.0114 26.9803 12.0702C26.8606 12.1291 26.6765 12.2313 26.5752 12.2994C26.474 12.3676 25.6884 13.018 24.826 13.7428C23.9637 14.4706 23.2426 15.0808 23.2211 15.0994C23.1873 15.1303 23.3469 15.2852 23.9791 15.8489C24.4179 16.2423 24.7769 16.5768 24.78 16.5923C24.78 16.6109 24.5959 16.837 24.3657 17.0971C24.1386 17.3542 23.9392 17.5679 23.9208 17.5679C23.9024 17.5679 23.1536 16.9082 22.2544 16.1029C21.3584 15.3007 20.4347 14.4737 20.2076 14.2724C19.9805 14.0711 19.7104 13.8605 19.6092 13.8047C19.5079 13.7489 19.3361 13.6715 19.2256 13.6343C19.0906 13.5879 18.9156 13.56 18.6885 13.5507C18.4062 13.5352 18.308 13.5445 18.0901 13.6003C17.9459 13.6374 17.7464 13.7087 17.6452 13.7582C17.5347 13.814 16.6018 14.5295 15.2884 15.5702C14.0946 16.5148 13.1126 17.2892 13.1034 17.2892C13.0942 17.2892 12.7904 17.1653 12.4283 17.0104C11.968 16.8153 11.7716 16.7193 11.7747 16.6883C11.7808 16.6635 12.2718 16.2578 13.9473 14.9352L13.9627 6.53224L19.0384 3.2553C21.8309 1.45577 24.1294 -0.00924794 24.1479 4.39575e-05ZM15.3129 7.24772C15.2976 13.2658 15.3006 13.8605 15.3344 13.8326C15.3559 13.814 15.6321 13.5941 15.9482 13.3463C16.2673 13.0954 16.6049 12.8383 16.7 12.7702C16.7982 12.7052 16.9608 12.6091 17.0621 12.5565C17.1634 12.5069 17.3506 12.4295 17.4764 12.3861C17.6022 12.3428 17.8385 12.2839 17.9981 12.253C18.216 12.2158 18.4001 12.2065 18.7192 12.2189C19.0476 12.2313 19.2225 12.253 19.4557 12.3149C19.6337 12.3614 19.9038 12.4667 20.1002 12.5658C20.2874 12.6587 20.5145 12.7919 20.6096 12.8662C20.7047 12.9406 21.0852 13.2689 21.4535 13.6003C21.8248 13.9286 22.144 14.2043 22.1624 14.2104C22.1839 14.2166 22.9449 13.5941 23.8502 12.826C24.7585 12.0578 25.6055 11.3547 25.7313 11.2618C25.8571 11.1689 26.1272 11.0109 26.3297 10.9087C26.5323 10.8065 26.8023 10.6888 26.9281 10.6486C27.054 10.6052 27.3025 10.5401 27.4805 10.503C27.7536 10.441 27.8917 10.4317 28.4011 10.4317C28.9044 10.4317 29.0486 10.4441 29.3064 10.4999C29.4752 10.5401 29.7391 10.6114 29.8895 10.664C30.0399 10.7167 30.3252 10.8406 30.5186 10.9428C30.7119 11.045 30.9881 11.2185 31.1323 11.3269C31.2766 11.4353 31.8473 11.9432 32.4059 12.4512L33.4185 13.3773C33.4308 7.75568 33.4247 7.07737 33.394 7.04949C33.3756 7.03091 31.298 5.79509 28.7847 4.30219C26.2714 2.80929 24.1908 1.58276 24.1663 1.57347C24.1386 1.56727 22.2207 2.78451 19.7166 4.4044L15.3129 7.24772ZM28.3705 16.7069C28.5484 16.7038 28.8308 16.7224 28.9995 16.7471C29.1683 16.775 29.423 16.8308 29.5673 16.8741C29.7115 16.9175 29.9723 17.0166 30.1503 17.094C30.3283 17.1715 30.6014 17.3077 30.7579 17.3945C30.9144 17.4812 31.0403 17.5617 31.0403 17.5772C31.0403 17.5896 31.0311 17.6051 31.0157 17.6144C31.0034 17.6206 30.8009 17.5865 30.5646 17.5338C30.3283 17.4812 29.9908 17.4192 29.8128 17.3945C29.6348 17.3697 29.3248 17.348 29.1223 17.348C28.9198 17.348 28.6374 17.3697 28.4932 17.3945C28.349 17.4192 28.1342 17.4719 28.0175 17.506C27.8979 17.5431 27.6861 17.6144 27.5419 17.667C27.3977 17.7197 27.1 17.8436 26.8821 17.9396C26.6612 18.0387 26.0075 18.3422 25.4245 18.6148C24.8414 18.8874 24.0957 19.2281 23.7673 19.3736C23.439 19.5161 23.0584 19.6834 22.6779 19.8413L22.816 19.8816C22.8927 19.9064 23.1536 19.9652 23.3991 20.0148C23.6446 20.0643 24.022 20.1294 24.243 20.1573C24.5222 20.1944 24.869 20.213 25.4091 20.213C25.9799 20.213 26.2745 20.2006 26.5599 20.1604C26.7716 20.1294 27.1031 20.0705 27.2964 20.0272C27.4897 19.9838 27.8488 19.8816 28.0943 19.798C28.3398 19.7174 29.1683 19.4108 29.9355 19.1166C30.7027 18.8254 31.6479 18.4692 32.0376 18.3268C32.4243 18.1843 32.949 18.0046 33.2037 17.9272C33.4554 17.8467 33.796 17.7476 33.9556 17.7073C34.1152 17.667 34.3791 17.6082 34.5386 17.5803C34.735 17.5431 34.9897 17.5246 35.3212 17.5246C35.6771 17.5246 35.8828 17.5369 36.073 17.5772C36.2172 17.6082 36.4781 17.6825 36.6561 17.7414C36.8341 17.8002 37.19 17.9582 37.4509 18.0883C37.7087 18.2183 37.9357 18.3515 37.948 18.3825C37.9695 18.4197 37.9634 18.4352 37.9296 18.4352C37.9051 18.4352 37.7547 18.4073 37.5982 18.3701C37.4447 18.336 37.1716 18.2803 36.9936 18.2462C36.8157 18.2122 36.4719 18.175 36.2264 18.1657C35.8827 18.1502 35.7078 18.1595 35.4593 18.2029C35.2813 18.2307 34.9376 18.3206 34.6921 18.4042C34.4466 18.4847 34.0599 18.6365 33.8328 18.7387C33.6057 18.8409 33.0104 19.1135 32.5133 19.3489C32.0161 19.5812 31.3594 19.8847 31.0556 20.021C30.7518 20.1573 30.2485 20.3772 29.9355 20.5103C29.6225 20.6404 29.1591 20.8263 28.9075 20.9223C28.6528 21.0152 28.3214 21.1298 28.171 21.1732C28.0206 21.2165 27.7229 21.2847 27.5112 21.328C27.2995 21.3714 26.9466 21.4271 26.7287 21.455C26.5077 21.4798 26.075 21.5015 25.762 21.5015C25.449 21.5015 25.0132 21.4798 24.7954 21.455C24.5744 21.4302 24.2154 21.3714 23.9975 21.328C23.7765 21.2816 23.4175 21.1949 23.1996 21.1298C22.9787 21.0648 22.635 20.9471 22.4324 20.8665C22.2299 20.7891 21.8923 20.6404 21.297 20.3524L20.9134 20.4484C20.7016 20.498 20.3365 20.5723 20.1002 20.6095C19.7381 20.6652 19.5417 20.6776 18.8573 20.6776C18.2282 20.6807 17.9613 20.6683 17.6759 20.6249C17.4733 20.594 17.148 20.5351 16.9547 20.4918C16.7614 20.4515 16.4361 20.3648 16.2335 20.3059C16.031 20.244 15.672 20.1201 15.4357 20.0241C15.1994 19.9312 14.7974 19.7484 14.5457 19.6152C14.291 19.4851 13.9136 19.2652 13.7018 19.1321C13.4901 18.9958 13.131 18.7449 12.904 18.5714C12.6769 18.3949 12.3485 18.1254 12.1736 17.9644C12.0017 17.8064 11.7286 17.5307 11.5691 17.3511C11.4095 17.1715 11.2775 17.0073 11.2775 16.9887C11.2775 16.967 11.2898 16.9485 11.3082 16.9485C11.3266 16.9485 11.4862 17.0445 11.6672 17.1622C11.8514 17.2799 12.1859 17.4812 12.413 17.6144C12.64 17.7476 12.9899 17.9365 13.1863 18.0356C13.3857 18.1378 13.7387 18.2989 13.9688 18.4011C14.202 18.5002 14.5488 18.6396 14.736 18.7108C14.9263 18.779 15.2945 18.8998 15.5492 18.9741C15.807 19.0515 16.2243 19.1537 16.479 19.2033C16.7307 19.2559 17.1173 19.3179 17.3383 19.3458C17.5562 19.3705 17.9367 19.4015 18.1822 19.4139C18.44 19.4263 18.8266 19.417 19.1028 19.3953C19.3637 19.3767 19.6122 19.352 19.6552 19.3427C19.7258 19.3272 19.7166 19.3117 19.5018 19.1382C19.3759 19.036 19.0322 18.7108 18.7407 18.4135C18.3939 18.0604 18.216 17.8591 18.2221 17.825C18.2282 17.794 18.2436 17.7723 18.262 17.7754C18.2773 17.7785 18.4615 17.89 18.6732 18.0263C18.8849 18.1595 19.2624 18.3887 19.5171 18.5312C19.7687 18.6706 20.1339 18.8626 20.3211 18.9524C20.5114 19.0422 20.6924 19.1166 20.7201 19.1166C20.7507 19.1166 20.8704 19.0887 20.9901 19.0515C21.1067 19.0144 21.5701 18.8502 22.0181 18.6829C22.4662 18.5157 23.35 18.1812 23.9821 17.9396C24.6143 17.698 25.4582 17.3914 25.8541 17.2582C26.2499 17.125 26.7409 16.9732 26.9435 16.9206C27.146 16.871 27.4283 16.806 27.5726 16.7812C27.7168 16.7564 27.8825 16.7285 27.9408 16.7224C27.9991 16.7162 28.1925 16.71 28.3705 16.7069ZM31.6602 23.7687C31.7584 23.7656 31.9732 23.778 32.1358 23.7966C32.3015 23.8152 32.5409 23.8647 32.6667 23.9081C32.7925 23.9483 32.9521 24.0165 33.0196 24.0568C33.0871 24.097 33.2068 24.1961 33.2835 24.2798C33.3602 24.3603 33.4584 24.4904 33.5045 24.5678C33.5474 24.6452 33.618 24.8001 33.661 24.9178C33.707 25.0324 33.7561 25.1904 33.7745 25.274C33.7929 25.3545 33.8083 25.5589 33.8052 25.7293C33.8052 25.9306 33.7776 26.1784 33.7285 26.4417C33.6763 26.7049 33.6149 26.9156 33.5536 27.0456C33.4861 27.1819 33.3848 27.3182 33.2375 27.4638C33.1178 27.5846 32.9368 27.724 32.8355 27.7797C32.7342 27.8324 32.5746 27.8974 32.4826 27.9253C32.3445 27.9655 32.145 27.9748 31.3379 27.9748C30.3897 27.9748 30.3651 27.9748 30.3498 27.9129C30.3406 27.8788 30.3406 27.8262 30.3498 27.7983C30.359 27.7673 30.405 27.7178 30.4572 27.6899C30.5063 27.6589 30.5707 27.6032 30.5953 27.566C30.6198 27.5257 30.6444 27.4173 30.6505 27.3244C30.6536 27.2315 30.6444 26.5625 30.6321 25.8377C30.6198 25.0974 30.5922 24.447 30.5738 24.351C30.5493 24.2209 30.5094 24.1497 30.4142 24.0475C30.3099 23.936 30.2946 23.9019 30.3222 23.8616C30.3529 23.8152 30.4388 23.8059 30.9206 23.7935C31.2305 23.7842 31.565 23.7718 31.6602 23.7687ZM31.4361 25.9957L31.4392 27.2315C31.5834 27.3244 31.6663 27.3399 31.8228 27.3399C31.9854 27.3368 32.0775 27.3182 32.2064 27.2594C32.2985 27.216 32.4212 27.1386 32.4795 27.089C32.5378 27.0395 32.6145 26.9341 32.6544 26.8536C32.6943 26.77 32.7496 26.6244 32.7741 26.5284C32.8017 26.4293 32.8293 26.2094 32.8416 26.039C32.8508 25.847 32.8447 25.6488 32.8232 25.5125C32.8017 25.3948 32.7557 25.2275 32.7189 25.1439C32.682 25.0603 32.5961 24.9426 32.5255 24.8806C32.458 24.8187 32.3261 24.7444 32.234 24.7134C32.1266 24.6793 31.9762 24.6607 31.8013 24.6607C31.6018 24.6607 31.5221 24.6731 31.4852 24.7103C31.4392 24.7536 31.4361 24.8868 31.4361 25.9957ZM44.6041 23.7873C44.6624 23.7935 44.7514 23.8214 44.8036 23.8523C44.8527 23.8802 44.9202 23.9514 44.9509 24.0103C44.9908 24.0908 45.0031 24.1652 44.9939 24.2891C44.9847 24.4377 44.9386 24.5368 44.6655 25.0324C44.4906 25.3483 44.153 25.9461 43.9137 26.3642C43.6743 26.7824 43.4687 27.1479 43.4595 27.1788C43.4441 27.2129 43.4564 27.2408 43.4902 27.2594C43.5209 27.2748 43.7173 27.2965 43.929 27.3089C44.2819 27.3306 44.3249 27.3244 44.4568 27.2656C44.5397 27.2315 44.6348 27.1572 44.6716 27.1076C44.7207 27.0426 44.7668 27.0147 44.8251 27.0147C44.8834 27.0147 44.9233 27.0395 44.9478 27.0859C44.9693 27.1231 44.9847 27.281 44.9877 27.4514C44.9877 27.6341 44.9724 27.7766 44.9478 27.8231C44.9264 27.8633 44.8803 27.916 44.8404 27.9408C44.7852 27.9748 44.5796 27.9841 43.7449 27.9779C42.9317 27.9717 42.6954 27.9624 42.6156 27.9253C42.5634 27.9005 42.4898 27.8355 42.4529 27.7828C42.4069 27.7023 42.3946 27.6496 42.4069 27.5412C42.4192 27.4576 42.502 27.2501 42.6187 27.0147C42.7261 26.801 43.0513 26.1908 43.3398 25.6612C43.6313 25.1284 43.8676 24.6855 43.8676 24.6762C43.8676 24.6669 43.6405 24.6638 42.8519 24.6762L42.7138 24.8249C42.6401 24.9054 42.5603 24.9705 42.5389 24.9705C42.5205 24.9705 42.4775 24.955 42.4499 24.9333C42.4069 24.9023 42.3946 24.8187 42.3762 24.5214C42.3609 24.2705 42.367 24.1125 42.3916 24.0351C42.41 23.9669 42.4621 23.8926 42.5082 23.8647C42.5818 23.8152 42.7076 23.8059 43.5454 23.7904C44.0671 23.7811 44.5458 23.778 44.6041 23.7873ZM0.754779 23.7935C1.32557 23.7935 1.36853 23.7966 1.42684 23.8554C1.479 23.9081 1.48207 23.9267 1.44832 23.9762C1.4299 24.0072 1.3716 24.0877 1.31943 24.1528C1.22737 24.2674 1.22737 24.2705 1.20282 24.828C1.1844 25.2337 1.18747 25.3979 1.21202 25.4196C1.23657 25.4412 1.26112 25.4289 1.29795 25.3824C1.32557 25.3421 1.48514 25.0851 1.65085 24.8094C1.81964 24.5306 2.00683 24.2147 2.07127 24.1032C2.14799 23.9731 2.22471 23.8833 2.29222 23.8492C2.37508 23.8028 2.47328 23.7935 2.8446 23.7935C3.28036 23.7935 3.30184 23.7966 3.3448 23.8647C3.37549 23.9081 3.38163 23.9545 3.36935 23.9917C3.35401 24.0258 3.26195 24.1156 3.16068 24.193C3.05941 24.2736 2.91211 24.4222 2.83539 24.5214C2.7556 24.6236 2.59603 24.8682 2.47942 25.0634C2.3628 25.2585 2.22164 25.4815 2.16947 25.5589C2.1173 25.6364 2.06514 25.7324 2.05593 25.7758C2.04365 25.8284 2.06514 25.9027 2.12344 26.0112C2.16947 26.0979 2.31984 26.3735 2.45487 26.6244C2.58989 26.8753 2.76788 27.1757 2.8538 27.2872C2.93666 27.4018 3.08703 27.5536 3.18216 27.6248C3.34174 27.7425 3.36015 27.7673 3.3448 27.9594L2.89984 27.981C2.58682 27.9934 2.43339 27.9903 2.37815 27.9655C2.33519 27.9439 2.23085 27.82 2.14799 27.6899C2.06207 27.5567 1.82884 27.1943 1.26112 26.3178L1.23043 26.5656C1.21509 26.7018 1.19975 26.9527 1.19975 27.1262C1.19668 27.4173 1.20282 27.4452 1.27954 27.5598C1.32557 27.6248 1.39308 27.7147 1.4299 27.758C1.48207 27.8231 1.48821 27.8478 1.46059 27.9067C1.42683 27.9748 1.4207 27.9748 0.773192 27.9748C0.28833 27.9748 0.113411 27.9655 0.0827238 27.9377C0.0612426 27.916 0.0458984 27.8726 0.0458984 27.8448C0.0458984 27.8138 0.107273 27.7302 0.183992 27.6589C0.260711 27.5846 0.340498 27.4762 0.361979 27.4173C0.386529 27.3399 0.395735 27.0518 0.386529 26.4417C0.38346 25.9647 0.368116 25.3019 0.355841 24.9705C0.33436 24.4006 0.328224 24.3572 0.251505 24.2054C0.205474 24.1156 0.153305 24.0351 0.137961 24.0258C0.119548 24.0165 0.0919297 23.9824 0.0765859 23.9483C0.0551047 23.9019 0.0581727 23.874 0.0949977 23.8399C0.134891 23.8028 0.251504 23.7935 0.754779 23.7935ZM4.27156 23.7935C4.62447 23.7935 4.92214 23.8059 4.9559 23.8245C4.99681 23.8451 5.01727 23.8864 5.01727 23.9483C5.01727 24.0227 4.99272 24.0599 4.89452 24.128C4.82394 24.1745 4.75643 24.2457 4.74108 24.2891C4.72881 24.3324 4.70733 24.7072 4.70119 25.1253C4.69198 25.5435 4.69812 26.0793 4.7104 26.3178C4.72574 26.5811 4.75643 26.8072 4.78712 26.8908C4.81473 26.9682 4.87304 27.0704 4.91907 27.1169C4.96511 27.1664 5.03568 27.2253 5.07865 27.247C5.12161 27.2687 5.20447 27.2934 5.26277 27.3058C5.32108 27.3182 5.4469 27.3089 5.53896 27.2903C5.67092 27.2625 5.73536 27.2253 5.83356 27.1262C5.91028 27.0518 5.97472 26.9496 5.9962 26.8753C6.01768 26.7948 6.02996 26.3488 6.02996 25.5992C6.02996 24.6267 6.02382 24.4253 5.98393 24.3293C5.95631 24.2643 5.88266 24.159 5.82128 24.0939C5.72001 23.9917 5.71081 23.97 5.73843 23.8926C5.76912 23.8121 5.77832 23.809 5.99927 23.809C6.12509 23.8121 6.45651 23.8183 6.73577 23.8245C7.01503 23.8337 7.69629 23.8276 8.2548 23.8121C9.13553 23.7904 9.29818 23.7935 9.49765 23.8368C9.62346 23.8647 9.80452 23.9236 9.89658 23.97C9.99478 24.0165 10.1513 24.1373 10.2648 24.255C10.3937 24.3851 10.5011 24.5306 10.5625 24.6607C10.6147 24.7722 10.6822 24.9519 10.7129 25.0634C10.7589 25.2213 10.7681 25.37 10.7681 25.7603C10.765 26.0917 10.7497 26.3271 10.7159 26.4726C10.6914 26.5934 10.6392 26.7669 10.6055 26.8598C10.5717 26.9527 10.4888 27.1138 10.4244 27.216C10.36 27.3182 10.2434 27.4638 10.1697 27.5381C10.0961 27.6125 9.9641 27.7209 9.88124 27.7735C9.79531 27.8293 9.65722 27.8974 9.57436 27.9253C9.44241 27.9717 9.28283 27.9779 8.40824 27.9748C7.64719 27.9748 7.38942 27.9624 7.37407 27.9346C7.3618 27.916 7.34952 27.8695 7.34952 27.8355C7.34952 27.8014 7.40476 27.724 7.61036 27.5474L7.61957 26.1412C7.62878 24.7877 7.62571 24.7289 7.56127 24.4439C7.5091 24.2209 7.47534 24.1311 7.41396 24.0753C7.35259 24.0165 7.31576 24.0041 7.24212 24.0227C7.18995 24.032 7.1163 24.066 7.07333 24.097C7.03037 24.128 6.97207 24.2023 6.94445 24.2612C6.89535 24.3572 6.88921 24.4873 6.88921 25.5899C6.88921 26.5811 6.88 26.8474 6.84318 26.993C6.81863 27.089 6.76646 27.2284 6.72964 27.3027C6.69588 27.374 6.59461 27.5071 6.50868 27.597C6.41355 27.6992 6.27546 27.8014 5.95324 27.9594H4.84849L4.63981 27.8602C4.52627 27.8045 4.36363 27.693 4.2777 27.6125C4.19178 27.5288 4.08744 27.408 4.04755 27.3399C4.00765 27.2717 3.95242 27.1262 3.9248 27.0147C3.87877 26.8412 3.86956 26.643 3.86956 25.6054C3.86649 24.4346 3.86342 24.3944 3.80205 24.2736C3.76522 24.2054 3.70078 24.1032 3.65475 24.0506C3.61178 23.9948 3.57189 23.9298 3.56882 23.9081C3.56575 23.8864 3.5811 23.8523 3.60565 23.8307C3.63633 23.8059 3.83273 23.7935 4.27156 23.7935ZM8.45734 24.701C8.43586 24.7258 8.42665 25.1656 8.42358 25.9926C8.42051 27.1633 8.42358 27.2501 8.47575 27.2872C8.50644 27.3058 8.59237 27.3337 8.66908 27.343C8.7458 27.3554 8.87469 27.3492 8.96061 27.3275C9.04347 27.3089 9.18156 27.2594 9.26749 27.2191C9.35035 27.1757 9.47309 27.0859 9.53447 27.0178C9.61426 26.931 9.67256 26.8226 9.71859 26.6678C9.77997 26.4696 9.78918 26.3735 9.78918 25.8996C9.78918 25.3824 9.78611 25.3514 9.70939 25.1873C9.66643 25.0943 9.58971 24.9705 9.54061 24.9147C9.49151 24.8559 9.38103 24.7753 9.29818 24.7351C9.18463 24.6793 9.0803 24.6545 8.89924 24.6483C8.76421 24.639 8.61692 24.6421 8.57088 24.6514C8.52792 24.6576 8.47575 24.6824 8.45734 24.701ZM12.459 23.7935C13.0912 23.7904 13.1402 23.7966 13.217 23.8554C13.2814 23.9019 13.3244 23.9886 13.3919 24.2054C13.441 24.3603 13.5852 24.8806 13.7172 25.3576C13.8461 25.8346 14.0333 26.5036 14.1345 26.8443C14.2358 27.185 14.3371 27.504 14.3555 27.5536C14.377 27.6032 14.4291 27.6682 14.4752 27.7023C14.5273 27.7332 14.5611 27.7859 14.5611 27.8293C14.5611 27.8664 14.5457 27.916 14.5243 27.9377C14.4966 27.9655 14.3371 27.9748 13.9504 27.9748C13.4901 27.9779 13.4042 27.9686 13.3643 27.9284C13.3244 27.8819 13.3244 27.8633 13.3857 27.7394C13.4256 27.6651 13.4563 27.5474 13.4563 27.4793C13.4563 27.4111 13.4287 27.2996 13.395 27.2315C13.3612 27.1633 13.2875 27.0766 13.2323 27.0395C13.1433 26.9744 13.0942 26.9682 12.6585 26.9589C12.3148 26.9527 12.1613 26.962 12.1061 26.993C12.057 27.0178 12.0048 27.0952 11.9588 27.2098C11.922 27.3058 11.8821 27.4452 11.8729 27.5195C11.8544 27.6248 11.8637 27.6682 11.9189 27.7425C11.9557 27.7952 11.9833 27.8633 11.9772 27.8974C11.968 27.9563 11.9434 27.9594 10.8019 27.9594L10.7927 27.8664C10.7835 27.789 10.7988 27.7611 10.8909 27.7054C10.9522 27.6651 11.0197 27.597 11.0443 27.5505C11.0658 27.501 11.1149 27.3244 11.1517 27.1541C11.1885 26.9837 11.2867 26.6089 11.3696 26.3178C11.4555 26.0297 11.5997 25.5404 11.6949 25.2337C11.8053 24.8775 11.8729 24.5988 11.8821 24.4594C11.8974 24.2488 11.8943 24.2364 11.7869 24.0815C11.7256 23.9917 11.6734 23.905 11.6703 23.8895C11.6673 23.8709 11.6918 23.843 11.7256 23.8276C11.7593 23.809 12.0631 23.7935 12.459 23.7935ZM12.2779 26.0235C12.2626 26.0979 12.2718 26.1536 12.3025 26.2032C12.3485 26.2651 12.3761 26.2713 12.6431 26.2713C12.8948 26.2713 12.9439 26.262 12.996 26.2094L13.0574 26.1474C12.9132 25.6085 12.8272 25.305 12.7751 25.1253C12.726 24.9457 12.6799 24.7939 12.6769 24.7908C12.6738 24.7846 12.5879 25.0355 12.4835 25.3483C12.3823 25.6581 12.2871 25.9647 12.2779 26.0235ZM15.5431 23.7935C15.8193 23.7935 15.9205 23.8059 16.0034 23.8492C16.0801 23.8864 16.1231 23.936 16.1476 24.0196C16.1722 24.0877 16.1875 24.3045 16.1875 24.5616C16.1875 24.7939 16.1752 25.243 16.1599 25.5589C16.1415 25.8749 16.1261 26.293 16.1261 26.4881C16.1261 26.6957 16.1047 26.9279 16.077 27.0456C16.0525 27.1572 15.9881 27.3306 15.939 27.4328C15.8868 27.535 15.807 27.662 15.7579 27.7116C15.7088 27.7642 15.5891 27.8448 15.4909 27.8943C15.3528 27.9655 15.2608 27.9872 15.0828 27.9965C14.9324 28.0058 14.8281 27.9965 14.7759 27.9686C14.736 27.947 14.6838 27.8726 14.6562 27.8045C14.6225 27.7054 14.6194 27.6589 14.647 27.566C14.6777 27.4638 14.7145 27.4328 14.9017 27.3337C15.0245 27.2687 15.1472 27.1819 15.1779 27.1386C15.2055 27.0952 15.2546 27.0085 15.2792 26.9465C15.3191 26.8474 15.3283 26.6709 15.3283 25.847C15.3283 25.0851 15.316 24.797 15.2792 24.5678C15.2516 24.4067 15.1963 24.1961 15.1564 24.1032C15.1135 24.0103 15.0797 23.9174 15.0766 23.8957C15.0736 23.874 15.0981 23.843 15.1319 23.8276C15.1626 23.809 15.3498 23.7966 15.5431 23.7935ZM18.1577 23.8028C18.8082 23.809 18.8604 23.8121 18.9187 23.8709C18.9586 23.9112 19.0445 24.159 19.1642 24.5678C19.2655 24.9178 19.425 25.4536 19.5171 25.7603C19.6092 26.0669 19.7227 26.4726 19.7657 26.6585C19.8086 26.8474 19.8639 27.0611 19.8915 27.1386C19.916 27.216 19.9498 27.3337 19.9682 27.4018C19.9836 27.47 20.0142 27.5598 20.0357 27.6032C20.0633 27.6651 20.0971 27.6837 20.2076 27.6899C20.2874 27.693 20.3641 27.6806 20.3886 27.6589C20.4101 27.6372 20.4592 27.5629 20.493 27.4948C20.5513 27.374 20.5543 27.3306 20.5359 26.2558C20.5267 25.6426 20.5022 24.9952 20.4838 24.8156C20.4684 24.636 20.4377 24.416 20.4224 24.3293C20.3978 24.2023 20.3672 24.1404 20.2843 24.066C20.226 24.0103 20.1769 23.9422 20.1769 23.9174C20.1769 23.8926 20.1922 23.8523 20.2137 23.8337C20.2413 23.8028 20.4623 23.7935 21.1129 23.7935C21.6683 23.7935 22.0703 23.809 22.2483 23.8337C22.4048 23.8585 22.6043 23.9143 22.7086 23.9607C22.8099 24.0072 22.9602 24.097 23.0462 24.1621C23.129 24.224 23.2641 24.3727 23.3438 24.4935C23.4206 24.6112 23.5126 24.7908 23.5464 24.893C23.5832 25.0014 23.6231 25.2492 23.6446 25.4815C23.6691 25.7665 23.6691 25.9709 23.6476 26.1784C23.6292 26.3395 23.5863 26.5718 23.5494 26.6895C23.5157 26.8103 23.4359 26.9961 23.3745 27.1076C23.3132 27.2222 23.1659 27.408 23.0339 27.5443C22.8835 27.6961 22.7362 27.8107 22.4324 27.9594L20.76 27.9686C19.2716 27.9779 19.0844 27.9748 19.0476 27.9315C19.0169 27.8912 19.023 27.8602 19.0721 27.758C19.1059 27.6899 19.1335 27.5815 19.1335 27.5195C19.1335 27.4545 19.1059 27.3461 19.0752 27.2779C19.0415 27.2098 18.9647 27.1076 18.796 26.9527H18.4032C18.1883 26.9527 17.9582 26.9682 17.8907 26.9868C17.8232 27.0054 17.7311 27.058 17.682 27.1014C17.636 27.1479 17.5899 27.2346 17.5777 27.2934C17.5685 27.3554 17.5838 27.4979 17.6145 27.6341C17.6452 27.7611 17.6605 27.8912 17.6513 27.9222C17.6329 27.9686 17.5807 27.9748 17.0744 27.9686C16.5926 27.9594 16.5128 27.9532 16.4821 27.9067C16.4545 27.8664 16.4729 27.8262 16.5772 27.6899C16.6478 27.6001 16.7338 27.4514 16.7675 27.3647C16.8043 27.2748 16.8596 27.0704 16.8933 26.9156C16.9302 26.7576 17.0345 26.3921 17.1296 26.101C17.2217 25.8129 17.3598 25.3328 17.4334 25.0417C17.5071 24.7475 17.5685 24.4811 17.5685 24.4532C17.5685 24.4222 17.5562 24.3479 17.5378 24.2891C17.5224 24.2302 17.4733 24.128 17.4304 24.066C17.3874 24.001 17.3506 23.9298 17.3475 23.905C17.3444 23.8802 17.369 23.843 17.4027 23.8276C17.4396 23.8059 17.7158 23.7966 18.1577 23.8028ZM21.3737 24.7072C21.3522 24.7289 21.343 25.1222 21.343 25.9864C21.343 26.6709 21.3492 27.247 21.3584 27.2625C21.3676 27.281 21.4474 27.3089 21.5333 27.3275C21.653 27.3554 21.7389 27.3554 21.8555 27.3275C21.9445 27.3089 22.0734 27.2656 22.1409 27.2315C22.2084 27.1974 22.3097 27.1231 22.3649 27.0704C22.4201 27.0147 22.503 26.8846 22.5521 26.7824C22.6012 26.6802 22.6595 26.5005 22.6841 26.3797C22.7147 26.228 22.727 26.0514 22.7147 25.7912C22.7055 25.5311 22.6841 25.3731 22.6442 25.2647C22.6104 25.1811 22.5368 25.0479 22.4785 24.9736C22.4079 24.8868 22.3066 24.8094 22.1869 24.7536C22.0826 24.7041 21.9291 24.6607 21.834 24.6514C21.742 24.6452 21.6069 24.6483 21.5364 24.6576C21.4658 24.6669 21.3921 24.6917 21.3737 24.7072ZM18.1208 25.4351C18.0871 25.5961 18.0257 25.8253 17.9889 25.943L17.9214 26.1536C18.0625 26.2651 18.1239 26.2744 18.3571 26.2713C18.5627 26.2713 18.6517 26.2589 18.6855 26.2249C18.7131 26.2001 18.7346 26.1536 18.7346 26.1258C18.7346 26.0948 18.6579 25.8129 18.5658 25.497C18.4768 25.1811 18.3878 24.8899 18.3725 24.8466C18.3479 24.7753 18.3418 24.7815 18.2681 24.955C18.2252 25.0572 18.1577 25.274 18.1208 25.4351ZM24.9488 23.8028C25.7037 23.8121 26.0044 23.8276 26.1303 23.8616C26.2223 23.8864 26.3543 23.9329 26.4218 23.9669C26.4893 23.9979 26.5998 24.0815 26.6673 24.1497C26.7317 24.2178 26.8177 24.3448 26.8576 24.4284C26.8975 24.5152 26.9373 24.6793 26.9496 24.8001C26.9588 24.9333 26.9527 25.0974 26.9312 25.2182C26.9097 25.3297 26.8545 25.4939 26.8115 25.5868C26.7655 25.6766 26.6642 25.8129 26.5814 25.8873C26.5016 25.9616 26.3481 26.0669 26.2377 26.1165C26.0566 26.2001 26.0382 26.2187 26.0382 26.3023C26.0382 26.355 26.0781 26.4603 26.1272 26.5439C26.1732 26.6244 26.2776 26.8072 26.3543 26.9527C26.431 27.0983 26.5476 27.2903 26.6182 27.3802C26.6888 27.4669 26.8207 27.597 26.9128 27.6651C27.0049 27.7332 27.0816 27.8138 27.0816 27.8448C27.0816 27.8726 27.0662 27.916 27.0448 27.9377C27.0202 27.9625 26.8729 27.9748 26.5476 27.9748C26.1057 27.9779 26.0812 27.9748 26.0198 27.9067C25.986 27.8664 25.7804 27.5226 25.5625 27.1386C25.3477 26.7545 25.1483 26.4169 25.1206 26.3859C25.093 26.3519 25.047 26.3147 25.0163 26.2992C24.9672 26.2744 24.9641 26.3085 24.9733 26.8536C24.9795 27.3182 24.9918 27.4514 25.0317 27.5257C25.0593 27.5784 25.1237 27.6496 25.1759 27.6899C25.2311 27.7302 25.271 27.7859 25.271 27.8293C25.2741 27.8664 25.2557 27.916 25.2342 27.9346C25.2035 27.9624 25.0194 27.9717 23.844 27.9594L23.8348 27.8757C23.8318 27.8076 23.8625 27.758 23.9791 27.6434C24.1049 27.5164 24.1325 27.47 24.1509 27.3399C24.1632 27.2563 24.1632 26.5996 24.1509 25.8842C24.1417 25.1687 24.1202 24.5152 24.1049 24.4284C24.0865 24.3448 24.0404 24.224 24.0006 24.1652C23.9576 24.1063 23.8993 24.0165 23.8717 23.9638C23.8256 23.8771 23.8256 23.8678 23.8778 23.8307C23.9238 23.7966 24.1417 23.7935 24.9488 23.8028ZM25.0255 24.6236C24.9703 24.701 24.9641 24.7413 24.9764 25.1098C24.9856 25.4041 25.001 25.5187 25.0317 25.5342C25.0531 25.5466 25.1605 25.5651 25.271 25.5775C25.3815 25.5899 25.5472 25.5899 25.6393 25.5775C25.7313 25.5651 25.8479 25.5311 25.9001 25.5032C25.9492 25.4722 26.0167 25.401 26.0443 25.3421C26.075 25.2833 26.0996 25.1687 26.0996 25.0882C26.0996 25.0045 26.0842 24.9023 26.0658 24.8559C26.0474 24.8063 26.0044 24.7382 25.9676 24.6979C25.9308 24.6576 25.8295 24.6081 25.7467 24.5833C25.6607 24.5585 25.5104 24.5337 25.4091 24.5244C25.3078 24.5183 25.1943 24.5183 25.1575 24.5275C25.1206 24.5337 25.0623 24.5771 25.0255 24.6236ZM27.9009 23.7935C28.2262 23.7935 28.5239 23.8059 28.5607 23.8214C28.6006 23.8338 28.6405 23.8678 28.6528 23.8988C28.6712 23.9329 28.6466 23.9917 28.5791 24.0815C28.527 24.1528 28.4656 24.2674 28.441 24.3355C28.4165 24.4129 28.3889 24.7227 28.3705 25.1563C28.3551 25.5404 28.3398 26.1753 28.3398 26.5656C28.3398 26.993 28.3551 27.3275 28.3735 27.4018C28.395 27.4824 28.4625 27.5784 28.5576 27.6744C28.6405 27.7549 28.708 27.8386 28.708 27.8602C28.7111 27.8788 28.6927 27.916 28.6712 27.9346C28.6405 27.9624 28.4533 27.9717 27.2504 27.9594L27.2412 27.8602C27.235 27.7735 27.2504 27.7456 27.3424 27.6899C27.4007 27.6496 27.4652 27.5846 27.4867 27.5443C27.5173 27.4855 27.5235 27.1541 27.5173 25.9957C27.5112 24.8621 27.4989 24.4842 27.4652 24.3665C27.4406 24.2829 27.3731 24.1497 27.3148 24.0722C27.2534 23.9948 27.2013 23.9174 27.1982 23.8957C27.1951 23.874 27.2197 23.843 27.2534 23.8276C27.2872 23.809 27.5634 23.7966 27.9009 23.7935ZM34.9836 23.7966C35.4562 23.7935 35.9687 23.809 36.119 23.8276C36.2694 23.8461 36.4627 23.8864 36.5487 23.9205C36.6315 23.9514 36.7696 24.0351 36.8494 24.1094C36.9323 24.1837 37.0335 24.3138 37.0734 24.3975C37.1133 24.4842 37.1624 24.639 37.1778 24.7475C37.1992 24.8744 37.1992 25.0045 37.1778 25.1346C37.1593 25.2399 37.1041 25.4165 37.0519 25.528C36.9998 25.6395 36.9231 25.7727 36.8801 25.8222C36.8371 25.8749 36.7512 25.9523 36.6898 25.9988C36.6285 26.0452 36.5026 26.1072 36.4106 26.1412C36.3062 26.1784 36.2387 26.2187 36.2326 26.2496C36.2295 26.2806 36.3492 26.5222 36.4996 26.7917C36.6499 27.058 36.8279 27.3492 36.8924 27.439C36.9568 27.5257 37.0489 27.6279 37.101 27.662C37.1501 27.6961 37.2391 27.7271 37.2913 27.7271C37.3465 27.7271 37.4325 27.7054 37.4846 27.6806C37.5337 27.6558 37.5982 27.5939 37.6227 27.5412C37.6626 27.4638 37.6688 27.2501 37.6688 26.2187C37.6657 25.5404 37.6565 24.8466 37.6411 24.6762C37.6227 24.4284 37.6012 24.3386 37.5399 24.2271C37.4969 24.1497 37.4294 24.0599 37.3956 24.0258C37.3588 23.9917 37.3281 23.9453 37.3312 23.9267C37.3312 23.905 37.3527 23.8647 37.3803 23.8399C37.4202 23.8028 37.5399 23.7935 38.0708 23.7935C38.5986 23.7935 38.7213 23.8028 38.7582 23.8399C38.7827 23.8647 38.8042 23.9143 38.8042 23.9483C38.8042 23.9824 38.7796 24.032 38.749 24.0599C38.7213 24.0877 38.6722 24.1249 38.6416 24.1373C38.6139 24.1528 38.5771 24.2178 38.5587 24.2829C38.5403 24.351 38.528 25.0107 38.528 25.9244C38.528 27.1695 38.5372 27.4638 38.571 27.535C38.5955 27.5815 38.6569 27.6496 38.7091 27.6899C38.7796 27.7394 38.8042 27.7828 38.8042 27.8509C38.8042 27.9036 38.795 27.9501 38.7796 27.9563C38.7674 27.9624 38.2089 27.9748 36.3185 27.9903L36.2449 27.9129C36.205 27.8695 35.9809 27.4948 35.7477 27.0766C35.5176 26.6585 35.3089 26.2961 35.2843 26.2713C35.2506 26.2311 35.2444 26.3271 35.2444 27.5257L35.3825 27.6744C35.4593 27.7549 35.5206 27.8293 35.5206 27.8448C35.5206 27.8571 35.5022 27.8943 35.4777 27.9284C35.4347 27.9872 35.404 27.9903 34.7627 27.981C34.3944 27.9748 34.0845 27.9624 34.0691 27.9563C34.0568 27.9501 34.0476 27.9036 34.0476 27.8509C34.0476 27.7797 34.0753 27.7363 34.1765 27.6589C34.2502 27.6001 34.3269 27.501 34.3606 27.4266C34.4128 27.2996 34.4128 27.2222 34.3852 26.0173C34.3699 25.3143 34.3484 24.6545 34.3422 24.5523C34.3361 24.447 34.3054 24.3138 34.2686 24.2426C34.2348 24.1745 34.1704 24.0846 34.1274 24.0413C34.0814 23.9979 34.0446 23.9329 34.0415 23.8957C34.0384 23.8585 34.0568 23.8214 34.0814 23.8152C34.1029 23.8059 34.511 23.7966 34.9836 23.7966ZM35.2506 24.6452C35.223 24.701 35.2199 24.8187 35.2352 25.0882C35.2537 25.3607 35.269 25.466 35.3089 25.5125C35.3549 25.5682 35.401 25.5744 35.6649 25.5744C35.9042 25.5744 35.9902 25.562 36.0853 25.5125C36.1528 25.4784 36.2357 25.4103 36.2694 25.3638C36.3093 25.3081 36.3369 25.2151 36.3431 25.116C36.3492 25.0045 36.3339 24.9209 36.297 24.8466C36.2663 24.7877 36.1927 24.7072 36.1344 24.6669C36.0761 24.6298 35.9779 24.5833 35.9196 24.5678C35.8613 24.5492 35.7293 24.5306 35.628 24.5214C35.5268 24.5152 35.4102 24.5213 35.3672 24.5368C35.3242 24.5523 35.2721 24.6019 35.2506 24.6452ZM40.4306 23.7935C41.4034 23.7935 41.431 23.7966 41.563 23.8647C41.6704 23.9174 41.7134 23.9638 41.7594 24.0722C41.7993 24.1714 41.8116 24.2426 41.7962 24.32C41.787 24.3789 41.7134 24.5461 41.6336 24.6917C41.5569 24.8373 41.2254 25.4289 40.8971 26.0081C40.5687 26.5872 40.2833 27.0828 40.2588 27.1076C40.2373 27.1324 40.2158 27.1788 40.2158 27.2098C40.2158 27.2377 40.2342 27.2717 40.2526 27.2841C40.2741 27.2934 40.4705 27.3089 40.6915 27.312C40.9094 27.3182 41.1395 27.3089 41.1978 27.2934C41.2561 27.2779 41.3605 27.2098 41.428 27.1386C41.4955 27.0704 41.5753 27.0147 41.6029 27.0147C41.6336 27.0147 41.6827 27.0518 41.7103 27.1014C41.7502 27.1633 41.7625 27.2532 41.7655 27.4483C41.7655 27.6186 41.7502 27.7487 41.7195 27.8169C41.695 27.8726 41.6459 27.9346 41.6121 27.9532C41.5753 27.9686 41.1242 27.981 40.4767 27.9779C39.4057 27.9748 39.4026 27.9748 39.332 27.9067C39.2799 27.854 39.2584 27.789 39.2461 27.6496C39.2338 27.5257 39.2461 27.4142 39.2768 27.3089C39.3044 27.2253 39.5223 26.7855 39.7586 26.3333C39.9979 25.8811 40.2895 25.3421 40.403 25.1346C40.5196 24.924 40.6086 24.732 40.5994 24.7072C40.5871 24.67 40.5104 24.6607 40.1544 24.6607C39.8537 24.6607 39.7003 24.6731 39.6389 24.7041C39.5929 24.7258 39.5131 24.797 39.464 24.859C39.4026 24.9364 39.3504 24.9705 39.3105 24.9643C39.2768 24.9581 39.2338 24.9209 39.2123 24.8775C39.1878 24.828 39.1724 24.67 39.1724 24.4439C39.1724 24.1435 39.1817 24.0722 39.2338 23.9824C39.2676 23.9236 39.3259 23.8554 39.3627 23.8337C39.4179 23.8028 39.6727 23.7935 40.4306 23.7935ZM45.9759 23.7935C46.3073 23.7935 46.4362 23.8059 46.5068 23.8399C46.5681 23.8709 46.6111 23.9236 46.6326 24.0041C46.6571 24.0846 46.6633 24.5833 46.6571 25.6735C46.6479 26.9218 46.6541 27.2377 46.6847 27.2687C46.7124 27.2965 46.8198 27.3089 47.0377 27.3058C47.2095 27.3058 47.4274 27.2841 47.5194 27.2625C47.6176 27.2377 47.7281 27.1819 47.7803 27.1324C47.8294 27.0828 47.9 27.0456 47.9337 27.0456C47.9675 27.0456 48.0135 27.0611 48.035 27.0828C48.0595 27.1107 48.0718 27.2253 48.0718 27.4421C48.0718 27.6156 48.081 27.758 48.0933 27.758C48.1086 27.758 48.167 27.7271 48.2253 27.6899C48.2836 27.6496 48.3634 27.5691 48.4738 27.4018L48.4708 24.4594L48.3971 24.3045C48.3572 24.2209 48.2866 24.1001 48.2437 24.0413C48.1976 23.9824 48.1639 23.9143 48.1639 23.8957C48.1639 23.874 48.1915 23.843 48.2253 23.8245C48.2621 23.8059 48.7163 23.7935 49.3914 23.7935C50.2107 23.7935 50.5176 23.8028 50.5759 23.8337C50.622 23.8523 50.6772 23.9081 50.6987 23.9576C50.7294 24.0165 50.7416 24.1683 50.7416 24.4687C50.7416 24.7598 50.7324 24.9054 50.7048 24.9333C50.6833 24.9519 50.6465 24.9705 50.6189 24.9705C50.5943 24.9736 50.5176 24.9302 50.4501 24.8775C50.3826 24.8249 50.2384 24.7536 50.1279 24.7196C50.0174 24.6855 49.8302 24.6483 49.7136 24.639C49.5418 24.6236 49.4834 24.6298 49.33 24.7227V25.528L49.4436 25.5589C49.508 25.5744 49.6338 25.5899 49.7197 25.5899C49.8701 25.5899 49.8916 25.5806 50.0205 25.4505C50.0972 25.3731 50.1647 25.3112 50.1739 25.3112C50.1831 25.3112 50.223 25.3297 50.266 25.3514C50.3089 25.37 50.3458 25.3948 50.3458 25.4041C50.3488 25.4134 50.3519 25.6612 50.355 25.9554C50.355 26.2527 50.3519 26.5036 50.3427 26.516C50.3335 26.5315 50.2967 26.5563 50.2568 26.578C50.2199 26.5965 50.1678 26.6058 50.1432 26.5965C50.1187 26.5872 50.0911 26.5532 50.0819 26.5191C50.0726 26.485 50.0235 26.4169 49.9744 26.3642C49.8947 26.2837 49.8578 26.2713 49.7197 26.2713C49.6338 26.2713 49.5141 26.2806 49.4558 26.293C49.4006 26.3085 49.3423 26.3395 49.3331 26.3642C49.3208 26.389 49.3208 26.5718 49.3331 26.7669C49.3546 27.0704 49.3668 27.1324 49.4221 27.185C49.4773 27.2408 49.5356 27.247 49.9069 27.2594C50.2783 27.2687 50.3427 27.2625 50.4501 27.2067C50.5176 27.1726 50.6097 27.0952 50.6557 27.0333C50.7048 26.9713 50.76 26.9218 50.7785 26.9218C50.7999 26.9218 50.846 26.9496 50.8797 26.9868C50.9288 27.0395 50.9442 27.1045 50.9534 27.3523C50.9595 27.5164 50.9472 27.7054 50.9319 27.7735C50.9104 27.8478 50.8705 27.9129 50.8276 27.9377C50.7877 27.9594 50.714 27.9779 50.6649 27.9779C50.6127 27.9779 49.778 27.9717 48.8083 27.9594C47.8355 27.947 46.7185 27.9532 46.3226 27.9686C45.9268 27.9841 45.5769 27.9841 45.5462 27.9717C45.5186 27.9563 45.4849 27.9129 45.4757 27.8757C45.4603 27.8169 45.4849 27.7797 45.7549 27.5474V26.0204C45.7549 24.7475 45.7457 24.4656 45.7089 24.3386C45.6843 24.255 45.6107 24.1249 45.5462 24.0506C45.4849 23.9762 45.4296 23.905 45.4266 23.8895C45.4235 23.8709 45.448 23.843 45.4818 23.8276C45.5125 23.809 45.7365 23.7966 45.9759 23.7935ZM22.1102 4.83802H23.8594V6.63445H22.1102V4.83802ZM24.6266 4.83802H26.4034L26.3911 6.61897L24.6266 6.63445V4.83802ZM22.1102 7.34683H23.8594V9.14327H22.1102V7.34683ZM24.6266 7.34683H26.4034L26.3911 9.12778L24.6266 9.14327V7.34683Z" fill="white"/>
</svg>
