<svg width="32" height="33" viewBox="0 0 32 33" fill="none" xmlns="http://www.w3.org/2000/svg">
<g id="Group">
<path id="Vector" d="M16 3.18008C20.275 3.18008 20.7813 3.19883 22.4625 3.27383C24.025 3.34258 24.8688 3.60508 25.4313 3.82383C26.175 4.11133 26.7125 4.46133 27.2688 5.01758C27.8313 5.58008 28.175 6.11133 28.4625 6.85508C28.6813 7.41758 28.9438 8.26758 29.0125 9.82383C29.0875 11.5113 29.1063 12.0176 29.1063 16.2863C29.1063 20.5613 29.0875 21.0676 29.0125 22.7488C28.9438 24.3113 28.6813 25.1551 28.4625 25.7176C28.175 26.4613 27.825 26.9988 27.2688 27.5551C26.7063 28.1176 26.175 28.4613 25.4313 28.7488C24.8688 28.9676 24.0188 29.2301 22.4625 29.2988C20.775 29.3738 20.2688 29.3926 16 29.3926C11.725 29.3926 11.2188 29.3738 9.5375 29.2988C7.975 29.2301 7.13125 28.9676 6.56875 28.7488C5.825 28.4613 5.2875 28.1113 4.73125 27.5551C4.16875 26.9926 3.825 26.4613 3.5375 25.7176C3.31875 25.1551 3.05625 24.3051 2.9875 22.7488C2.9125 21.0613 2.89375 20.5551 2.89375 16.2863C2.89375 12.0113 2.9125 11.5051 2.9875 9.82383C3.05625 8.26133 3.31875 7.41758 3.5375 6.85508C3.825 6.11133 4.175 5.57383 4.73125 5.01758C5.29375 4.45508 5.825 4.11133 6.56875 3.82383C7.13125 3.60508 7.98125 3.34258 9.5375 3.27383C11.2188 3.19883 11.725 3.18008 16 3.18008ZM16 0.298828C11.6563 0.298828 11.1125 0.317578 9.40625 0.392578C7.70625 0.467578 6.5375 0.742578 5.525 1.13633C4.46875 1.54883 3.575 2.09258 2.6875 2.98633C1.79375 3.87383 1.25 4.76758 0.8375 5.81758C0.44375 6.83633 0.16875 7.99883 0.09375 9.69883C0.01875 11.4113 0 11.9551 0 16.2988C0 20.6426 0.01875 21.1863 0.09375 22.8926C0.16875 24.5926 0.44375 25.7613 0.8375 26.7738C1.25 27.8301 1.79375 28.7238 2.6875 29.6113C3.575 30.4988 4.46875 31.0488 5.51875 31.4551C6.5375 31.8488 7.7 32.1238 9.4 32.1988C11.1063 32.2738 11.65 32.2926 15.9938 32.2926C20.3375 32.2926 20.8813 32.2738 22.5875 32.1988C24.2875 32.1238 25.4563 31.8488 26.4688 31.4551C27.5188 31.0488 28.4125 30.4988 29.3 29.6113C30.1875 28.7238 30.7375 27.8301 31.1438 26.7801C31.5375 25.7613 31.8125 24.5988 31.8875 22.8988C31.9625 21.1926 31.9813 20.6488 31.9813 16.3051C31.9813 11.9613 31.9625 11.4176 31.8875 9.71133C31.8125 8.01133 31.5375 6.84258 31.1438 5.83008C30.75 4.76758 30.2063 3.87383 29.3125 2.98633C28.425 2.09883 27.5313 1.54883 26.4813 1.14258C25.4625 0.748828 24.3 0.473828 22.6 0.398828C20.8875 0.317578 20.3438 0.298828 16 0.298828Z" fill="white"/>
<path id="Vector_2" d="M16 8.08008C11.4625 8.08008 7.78125 11.7613 7.78125 16.2988C7.78125 20.8363 11.4625 24.5176 16 24.5176C20.5375 24.5176 24.2188 20.8363 24.2188 16.2988C24.2188 11.7613 20.5375 8.08008 16 8.08008ZM16 21.6301C13.0563 21.6301 10.6687 19.2426 10.6687 16.2988C10.6687 13.3551 13.0563 10.9676 16 10.9676C18.9438 10.9676 21.3312 13.3551 21.3312 16.2988C21.3312 19.2426 18.9438 21.6301 16 21.6301Z" fill="white"/>
<path id="Vector_3" d="M26.4625 7.75518C26.4625 8.81768 25.6 9.67393 24.5438 9.67393C23.4813 9.67393 22.625 8.81143 22.625 7.75518C22.625 6.69268 23.4875 5.83643 24.5438 5.83643C25.6 5.83643 26.4625 6.69893 26.4625 7.75518Z" fill="white"/>
</g>
</svg>
