<svg width="51" height="28" viewBox="0 0 51 28" fill="none" xmlns="http://www.w3.org/2000/svg">
<path fill-rule="evenodd" clip-rule="evenodd" d="M24.1469 4.39575e-05C24.1653 0.0124331 26.5558 1.431 34.7371 6.28756L34.7525 14.5945L36.0321 15.7622C36.7379 16.4033 37.3179 16.9454 37.321 16.9701C37.3272 16.998 37.2934 17.0104 37.2136 17.0104C37.1522 17.0073 36.7686 16.9763 35.6209 16.871L35.4859 16.7595C35.4123 16.6976 34.2185 15.6817 32.8345 14.5047C31.2173 13.1326 30.2322 12.3149 30.0726 12.2189C29.9376 12.1384 29.7075 12.0238 29.5602 11.9711C29.4129 11.9153 29.1888 11.8472 29.0661 11.8193C28.9464 11.7946 28.7132 11.7636 28.5536 11.7543C28.391 11.745 28.1424 11.7543 27.9859 11.776C27.8355 11.7946 27.5961 11.8472 27.455 11.8875C27.3169 11.9277 27.1021 12.0114 26.9793 12.0702C26.8596 12.1291 26.6755 12.2313 26.5743 12.2994C26.473 12.3676 25.6874 13.018 24.8251 13.7428C23.9628 14.4706 23.2416 15.0808 23.2201 15.0994C23.1864 15.1303 23.3459 15.2852 23.9781 15.8489C24.4169 16.2423 24.776 16.5768 24.779 16.5923C24.779 16.6109 24.5949 16.837 24.3648 17.0971C24.1377 17.3542 23.9382 17.5679 23.9198 17.5679C23.9014 17.5679 23.1526 16.9082 22.2535 16.1029C21.3574 15.3007 20.4337 14.4737 20.2066 14.2724C19.9795 14.0711 19.7095 13.8605 19.6082 13.8047C19.5069 13.7489 19.3351 13.6715 19.2246 13.6343C19.0896 13.5879 18.9147 13.56 18.6876 13.5507C18.4052 13.5352 18.307 13.5445 18.0892 13.6003C17.9449 13.6374 17.7455 13.7087 17.6442 13.7582C17.5337 13.814 16.6008 14.5295 15.2874 15.5702C14.0937 16.5148 13.1117 17.2892 13.1024 17.2892C13.0932 17.2892 12.7894 17.1653 12.4273 17.0104C11.967 16.8153 11.7706 16.7193 11.7737 16.6883C11.7798 16.6635 12.2708 16.2578 13.9464 14.9352L13.9617 6.53224L19.0374 3.2553C21.83 1.45577 24.1285 -0.00924794 24.1469 4.39575e-05ZM15.3119 7.24772C15.2966 13.2658 15.2997 13.8605 15.3334 13.8326C15.3549 13.814 15.6311 13.5941 15.9472 13.3463C16.2663 13.0954 16.6039 12.8383 16.699 12.7702C16.7972 12.7052 16.9599 12.6091 17.0611 12.5565C17.1624 12.5069 17.3496 12.4295 17.4754 12.3861C17.6012 12.3428 17.8375 12.2839 17.9971 12.253C18.215 12.2158 18.3991 12.2065 18.7183 12.2189C19.0466 12.2313 19.2215 12.253 19.4548 12.3149C19.6327 12.3614 19.9028 12.4667 20.0992 12.5658C20.2864 12.6587 20.5135 12.7919 20.6086 12.8662C20.7037 12.9406 21.0843 13.2689 21.4525 13.6003C21.8238 13.9286 22.143 14.2043 22.1614 14.2104C22.1829 14.2166 22.9439 13.5941 23.8492 12.826C24.7576 12.0578 25.6045 11.3547 25.7304 11.2618C25.8562 11.1689 26.1262 11.0109 26.3288 10.9087C26.5313 10.8065 26.8013 10.6888 26.9272 10.6486C27.053 10.6052 27.3015 10.5401 27.4795 10.503C27.7527 10.441 27.8908 10.4317 28.4002 10.4317C28.9034 10.4317 29.0477 10.4441 29.3054 10.4999C29.4742 10.5401 29.7381 10.6114 29.8885 10.664C30.0389 10.7167 30.3243 10.8406 30.5176 10.9428C30.7109 11.045 30.9871 11.2185 31.1313 11.3269C31.2756 11.4353 31.8464 11.9432 32.4049 12.4512L33.4176 13.3773C33.4298 7.75568 33.4237 7.07737 33.393 7.04949C33.3746 7.03091 31.2971 5.79509 28.7838 4.30219C26.2705 2.80929 24.1898 1.58276 24.1653 1.57347C24.1377 1.56727 22.2197 2.78451 19.7156 4.4044L15.3119 7.24772ZM28.3695 16.7069C28.5475 16.7038 28.8298 16.7224 28.9986 16.7471C29.1674 16.775 29.4221 16.8308 29.5663 16.8741C29.7105 16.9175 29.9714 17.0166 30.1493 17.094C30.3273 17.1715 30.6005 17.3077 30.757 17.3945C30.9135 17.4812 31.0393 17.5617 31.0393 17.5772C31.0393 17.5896 31.0301 17.6051 31.0147 17.6144C31.0025 17.6206 30.7999 17.5865 30.5636 17.5338C30.3273 17.4812 29.9898 17.4192 29.8118 17.3945C29.6338 17.3697 29.3239 17.348 29.1213 17.348C28.9188 17.348 28.6365 17.3697 28.4922 17.3945C28.348 17.4192 28.1332 17.4719 28.0166 17.506C27.8969 17.5431 27.6851 17.6144 27.5409 17.667C27.3967 17.7197 27.099 17.8436 26.8811 17.9396C26.6602 18.0387 26.0065 18.3422 25.4235 18.6148C24.8404 18.8874 24.0947 19.2281 23.7664 19.3736C23.438 19.5161 23.0575 19.6834 22.6769 19.8413L22.815 19.8816C22.8918 19.9064 23.1526 19.9652 23.3981 20.0148C23.6436 20.0643 24.0211 20.1294 24.242 20.1573C24.5213 20.1944 24.868 20.213 25.4081 20.213C25.9789 20.213 26.2735 20.2006 26.5589 20.1604C26.7707 20.1294 27.1021 20.0705 27.2954 20.0272C27.4887 19.9838 27.8478 19.8816 28.0933 19.798C28.3388 19.7174 29.1674 19.4108 29.9345 19.1166C30.7017 18.8254 31.6469 18.4692 32.0366 18.3268C32.4233 18.1843 32.948 18.0046 33.2028 17.9272C33.4544 17.8467 33.795 17.7476 33.9546 17.7073C34.1142 17.667 34.3781 17.6082 34.5377 17.5803C34.7341 17.5431 34.9888 17.5246 35.3202 17.5246C35.6762 17.5246 35.8818 17.5369 36.072 17.5772C36.2163 17.6082 36.4771 17.6825 36.6551 17.7414C36.8331 17.8002 37.1891 17.9582 37.4499 18.0883C37.7077 18.2183 37.9348 18.3515 37.947 18.3825C37.9685 18.4197 37.9624 18.4352 37.9286 18.4352C37.9041 18.4352 37.7537 18.4073 37.5972 18.3701C37.4438 18.336 37.1706 18.2803 36.9927 18.2462C36.8147 18.2122 36.471 18.175 36.2255 18.1657C35.8818 18.1502 35.7069 18.1595 35.4583 18.2029C35.2803 18.2307 34.9366 18.3206 34.6911 18.4042C34.4456 18.4847 34.0589 18.6365 33.8318 18.7387C33.6048 18.8409 33.0094 19.1135 32.5123 19.3489C32.0152 19.5812 31.3584 19.8847 31.0546 20.021C30.7508 20.1573 30.2476 20.3772 29.9345 20.5103C29.6215 20.6404 29.1581 20.8263 28.9065 20.9223C28.6518 21.0152 28.3204 21.1298 28.17 21.1732C28.0196 21.2165 27.722 21.2847 27.5102 21.328C27.2985 21.3714 26.9456 21.4271 26.7277 21.455C26.5067 21.4798 26.0741 21.5015 25.761 21.5015C25.448 21.5015 25.0123 21.4798 24.7944 21.455C24.5734 21.4302 24.2144 21.3714 23.9965 21.328C23.7756 21.2816 23.4165 21.1949 23.1986 21.1298C22.9777 21.0648 22.634 20.9471 22.4314 20.8665C22.2289 20.7891 21.8913 20.6404 21.296 20.3524L20.9124 20.4484C20.7007 20.498 20.3355 20.5723 20.0992 20.6095C19.7371 20.6652 19.5407 20.6776 18.8564 20.6776C18.2273 20.6807 17.9603 20.6683 17.6749 20.6249C17.4723 20.594 17.1471 20.5351 16.9537 20.4918C16.7604 20.4515 16.4351 20.3648 16.2326 20.3059C16.03 20.244 15.671 20.1201 15.4347 20.0241C15.1984 19.9312 14.7964 19.7484 14.5448 19.6152C14.2901 19.4851 13.9126 19.2652 13.7009 19.1321C13.4891 18.9958 13.1301 18.7449 12.903 18.5714C12.6759 18.3949 12.3475 18.1254 12.1726 17.9644C12.0008 17.8064 11.7276 17.5307 11.5681 17.3511C11.4085 17.1715 11.2765 17.0073 11.2765 16.9887C11.2765 16.967 11.2888 16.9485 11.3072 16.9485C11.3256 16.9485 11.4852 17.0445 11.6663 17.1622C11.8504 17.2799 12.1849 17.4812 12.412 17.6144C12.6391 17.7476 12.9889 17.9365 13.1853 18.0356C13.3848 18.1378 13.7377 18.2989 13.9678 18.4011C14.2011 18.5002 14.5478 18.6396 14.735 18.7108C14.9253 18.779 15.2935 18.8998 15.5482 18.9741C15.806 19.0515 16.2234 19.1537 16.4781 19.2033C16.7297 19.2559 17.1164 19.3179 17.3373 19.3458C17.5552 19.3705 17.9357 19.4015 18.1812 19.4139C18.439 19.4263 18.8257 19.417 19.1019 19.3953C19.3627 19.3767 19.6113 19.352 19.6542 19.3427C19.7248 19.3272 19.7156 19.3117 19.5008 19.1382C19.375 19.036 19.0313 18.7108 18.7397 18.4135C18.393 18.0604 18.215 17.8591 18.2211 17.825C18.2273 17.794 18.2426 17.7723 18.261 17.7754C18.2764 17.7785 18.4605 17.89 18.6722 18.0263C18.884 18.1595 19.2614 18.3887 19.5161 18.5312C19.7678 18.6706 20.133 18.8626 20.3201 18.9524C20.5104 19.0422 20.6915 19.1166 20.7191 19.1166C20.7498 19.1166 20.8695 19.0887 20.9891 19.0515C21.1057 19.0144 21.5691 18.8502 22.0172 18.6829C22.4652 18.5157 23.349 18.1812 23.9812 17.9396C24.6133 17.698 25.4572 17.3914 25.8531 17.2582C26.249 17.125 26.74 16.9732 26.9425 16.9206C27.145 16.871 27.4274 16.806 27.5716 16.7812C27.7158 16.7564 27.8815 16.7285 27.9398 16.7224C27.9982 16.7162 28.1915 16.71 28.3695 16.7069ZM31.6592 23.7687C31.7574 23.7656 31.9722 23.778 32.1348 23.7966C32.3005 23.8152 32.5399 23.8647 32.6657 23.9081C32.7915 23.9483 32.9511 24.0165 33.0186 24.0568C33.0861 24.097 33.2058 24.1961 33.2825 24.2798C33.3593 24.3603 33.4575 24.4904 33.5035 24.5678C33.5465 24.6452 33.617 24.8001 33.66 24.9178C33.706 25.0324 33.7551 25.1904 33.7735 25.274C33.792 25.3545 33.8073 25.5589 33.8042 25.7293C33.8042 25.9306 33.7766 26.1784 33.7275 26.4417C33.6753 26.7049 33.614 26.9156 33.5526 27.0456C33.4851 27.1819 33.3838 27.3182 33.2365 27.4638C33.1168 27.5846 32.9358 27.724 32.8345 27.7797C32.7332 27.8324 32.5737 27.8974 32.4816 27.9253C32.3435 27.9655 32.144 27.9748 31.337 27.9748C30.3887 27.9748 30.3642 27.9748 30.3488 27.9129C30.3396 27.8788 30.3396 27.8262 30.3488 27.7983C30.358 27.7673 30.4041 27.7178 30.4562 27.6899C30.5053 27.6589 30.5698 27.6032 30.5943 27.566C30.6189 27.5257 30.6434 27.4173 30.6496 27.3244C30.6526 27.2315 30.6434 26.5625 30.6311 25.8377C30.6189 25.0974 30.5913 24.447 30.5728 24.351C30.5483 24.2209 30.5084 24.1497 30.4133 24.0475C30.3089 23.936 30.2936 23.9019 30.3212 23.8616C30.3519 23.8152 30.4378 23.8059 30.9196 23.7935C31.2295 23.7842 31.564 23.7718 31.6592 23.7687ZM31.4352 25.9957L31.4382 27.2315C31.5825 27.3244 31.6653 27.3399 31.8218 27.3399C31.9845 27.3368 32.0765 27.3182 32.2054 27.2594C32.2975 27.216 32.4202 27.1386 32.4785 27.089C32.5368 27.0395 32.6136 26.9341 32.6535 26.8536C32.6933 26.77 32.7486 26.6244 32.7731 26.5284C32.8008 26.4293 32.8284 26.2094 32.8406 26.039C32.8498 25.847 32.8437 25.6488 32.8222 25.5125C32.8008 25.3948 32.7547 25.2275 32.7179 25.1439C32.6811 25.0603 32.5951 24.9426 32.5246 24.8806C32.4571 24.8187 32.3251 24.7444 32.233 24.7134C32.1256 24.6793 31.9753 24.6607 31.8003 24.6607C31.6009 24.6607 31.5211 24.6731 31.4843 24.7103C31.4382 24.7536 31.4352 24.8868 31.4352 25.9957ZM44.6032 23.7873C44.6615 23.7935 44.7505 23.8214 44.8026 23.8523C44.8517 23.8802 44.9192 23.9514 44.9499 24.0103C44.9898 24.0908 45.0021 24.1652 44.9929 24.2891C44.9837 24.4377 44.9376 24.5368 44.6645 25.0324C44.4896 25.3483 44.1521 25.9461 43.9127 26.3642C43.6733 26.7824 43.4677 27.1479 43.4585 27.1788C43.4432 27.2129 43.4554 27.2408 43.4892 27.2594C43.5199 27.2748 43.7163 27.2965 43.928 27.3089C44.2809 27.3306 44.3239 27.3244 44.4559 27.2656C44.5387 27.2315 44.6338 27.1572 44.6707 27.1076C44.7198 27.0426 44.7658 27.0147 44.8241 27.0147C44.8824 27.0147 44.9223 27.0395 44.9469 27.0859C44.9683 27.1231 44.9837 27.281 44.9868 27.4514C44.9868 27.6341 44.9714 27.7766 44.9469 27.8231C44.9254 27.8633 44.8793 27.916 44.8395 27.9408C44.7842 27.9748 44.5786 27.9841 43.7439 27.9779C42.9307 27.9717 42.6944 27.9624 42.6146 27.9253C42.5624 27.9005 42.4888 27.8355 42.452 27.7828C42.4059 27.7023 42.3937 27.6496 42.4059 27.5412C42.4182 27.4576 42.5011 27.2501 42.6177 27.0147C42.7251 26.801 43.0504 26.1908 43.3388 25.6612C43.6304 25.1284 43.8667 24.6855 43.8667 24.6762C43.8667 24.6669 43.6396 24.6638 42.8509 24.6762L42.7128 24.8249C42.6392 24.9054 42.5594 24.9705 42.5379 24.9705C42.5195 24.9705 42.4765 24.955 42.4489 24.9333C42.4059 24.9023 42.3937 24.8187 42.3752 24.5214C42.3599 24.2705 42.366 24.1125 42.3906 24.0351C42.409 23.9669 42.4612 23.8926 42.5072 23.8647C42.5809 23.8152 42.7067 23.8059 43.5444 23.7904C44.0661 23.7811 44.5448 23.778 44.6032 23.7873ZM0.753802 23.7935C1.32459 23.7935 1.36755 23.7966 1.42586 23.8554C1.47803 23.9081 1.4811 23.9267 1.44734 23.9762C1.42893 24.0072 1.37062 24.0877 1.31845 24.1528C1.22639 24.2674 1.22639 24.2705 1.20184 24.828C1.18343 25.2337 1.1865 25.3979 1.21105 25.4196C1.2356 25.4412 1.26015 25.4289 1.29697 25.3824C1.32459 25.3421 1.48416 25.0851 1.64988 24.8094C1.81866 24.5306 2.00585 24.2147 2.0703 24.1032C2.14702 23.9731 2.22373 23.8833 2.29125 23.8492C2.3741 23.8028 2.4723 23.7935 2.84362 23.7935C3.27938 23.7935 3.30086 23.7966 3.34383 23.8647C3.37451 23.9081 3.38065 23.9545 3.36838 23.9917C3.35303 24.0258 3.26097 24.1156 3.1597 24.193C3.05843 24.2736 2.91113 24.4222 2.83442 24.5214C2.75463 24.6236 2.59505 24.8682 2.47844 25.0634C2.36183 25.2585 2.22067 25.4815 2.1685 25.5589C2.11633 25.6364 2.06416 25.7324 2.05495 25.7758C2.04268 25.8284 2.06416 25.9027 2.12247 26.0112C2.1685 26.0979 2.31886 26.3735 2.45389 26.6244C2.58891 26.8753 2.7669 27.1757 2.85283 27.2872C2.93568 27.4018 3.08605 27.5536 3.18118 27.6248C3.34076 27.7425 3.35917 27.7673 3.34383 27.9594L2.89886 27.981C2.58585 27.9934 2.43241 27.9903 2.37717 27.9655C2.33421 27.9439 2.22987 27.82 2.14701 27.6899C2.06109 27.5567 1.82786 27.1943 1.26015 26.3178L1.22946 26.5656C1.21411 26.7018 1.19877 26.9527 1.19877 27.1262C1.1957 27.4173 1.20184 27.4452 1.27856 27.5598C1.32459 27.6248 1.3921 27.7147 1.42893 27.758C1.4811 27.8231 1.48723 27.8478 1.45961 27.9067C1.42586 27.9748 1.41972 27.9748 0.772216 27.9748C0.287353 27.9748 0.112435 27.9655 0.0817472 27.9377C0.060266 27.916 0.0449219 27.8726 0.0449219 27.8448C0.0449219 27.8138 0.106297 27.7302 0.183016 27.6589C0.259734 27.5846 0.339521 27.4762 0.361003 27.4173C0.385553 27.3399 0.394758 27.0518 0.385552 26.4417C0.382484 25.9647 0.36714 25.3019 0.354865 24.9705C0.333384 24.4006 0.327247 24.3572 0.250528 24.2054C0.204497 24.1156 0.152328 24.0351 0.136984 24.0258C0.118572 24.0165 0.0909531 23.9824 0.0756094 23.9483C0.0541281 23.9019 0.0571961 23.874 0.0940211 23.8399C0.133915 23.8028 0.250527 23.7935 0.753802 23.7935ZM4.27059 23.7935C4.62349 23.7935 4.92116 23.8059 4.95492 23.8245C4.99584 23.8451 5.0163 23.8864 5.0163 23.9483C5.0163 24.0227 4.99174 24.0599 4.89355 24.128C4.82296 24.1745 4.75545 24.2457 4.74011 24.2891C4.72783 24.3324 4.70635 24.7072 4.70021 25.1253C4.69101 25.5435 4.69714 26.0793 4.70942 26.3178C4.72476 26.5811 4.75545 26.8072 4.78614 26.8908C4.81376 26.9682 4.87207 27.0704 4.9181 27.1169C4.96413 27.1664 5.03471 27.2253 5.07767 27.247C5.12063 27.2687 5.20349 27.2934 5.2618 27.3058C5.3201 27.3182 5.44592 27.3089 5.53798 27.2903C5.66994 27.2625 5.73438 27.2253 5.83258 27.1262C5.9093 27.0518 5.97375 26.9496 5.99523 26.8753C6.01671 26.7948 6.02898 26.3488 6.02898 25.5992C6.02898 24.6267 6.02284 24.4253 5.98295 24.3293C5.95533 24.2643 5.88168 24.159 5.82031 24.0939C5.71904 23.9917 5.70983 23.97 5.73745 23.8926C5.76814 23.8121 5.77734 23.809 5.99829 23.809C6.12411 23.8121 6.45554 23.8183 6.73479 23.8245C7.01405 23.8337 7.69531 23.8276 8.25383 23.8121C9.13456 23.7904 9.2972 23.7935 9.49667 23.8368C9.62249 23.8647 9.80354 23.9236 9.89561 23.97C9.99381 24.0165 10.1503 24.1373 10.2639 24.255C10.3927 24.3851 10.5001 24.5306 10.5615 24.6607C10.6137 24.7722 10.6812 24.9519 10.7119 25.0634C10.7579 25.2213 10.7671 25.37 10.7671 25.7603C10.7641 26.0917 10.7487 26.3271 10.715 26.4726C10.6904 26.5934 10.6382 26.7669 10.6045 26.8598C10.5707 26.9527 10.4879 27.1138 10.4234 27.216C10.359 27.3182 10.2424 27.4638 10.1687 27.5381C10.0951 27.6125 9.96312 27.7209 9.88026 27.7735C9.79434 27.8293 9.65624 27.8974 9.57339 27.9253C9.44143 27.9717 9.28186 27.9779 8.40726 27.9748C7.64621 27.9748 7.38844 27.9624 7.3731 27.9346C7.36082 27.916 7.34854 27.8695 7.34854 27.8355C7.34854 27.8014 7.40378 27.724 7.60939 27.5474L7.6186 26.1412C7.6278 24.7877 7.62473 24.7289 7.56029 24.4439C7.50812 24.2209 7.47436 24.1311 7.41299 24.0753C7.35161 24.0165 7.31479 24.0041 7.24114 24.0227C7.18897 24.032 7.11532 24.066 7.07236 24.097C7.02939 24.128 6.97109 24.2023 6.94347 24.2612C6.89437 24.3572 6.88823 24.4873 6.88823 25.5899C6.88823 26.5811 6.87903 26.8474 6.8422 26.993C6.81765 27.089 6.76548 27.2284 6.72866 27.3027C6.6949 27.374 6.59363 27.5071 6.50771 27.597C6.41258 27.6992 6.27448 27.8014 5.95226 27.9594H4.84751L4.63884 27.8602C4.52529 27.8045 4.36265 27.693 4.27673 27.6125C4.1908 27.5288 4.08646 27.408 4.04657 27.3399C4.00668 27.2717 3.95144 27.1262 3.92382 27.0147C3.87779 26.8412 3.86858 26.643 3.86858 25.6054C3.86551 24.4346 3.86245 24.3944 3.80107 24.2736C3.76425 24.2054 3.6998 24.1032 3.65377 24.0506C3.61081 23.9948 3.57091 23.9298 3.56785 23.9081C3.56478 23.8864 3.58012 23.8523 3.60467 23.8307C3.63536 23.8059 3.83176 23.7935 4.27059 23.7935ZM8.45636 24.701C8.43488 24.7258 8.42568 25.1656 8.42261 25.9926C8.41954 27.1633 8.42261 27.2501 8.47477 27.2872C8.50546 27.3058 8.59139 27.3337 8.66811 27.343C8.74483 27.3554 8.87371 27.3492 8.95964 27.3275C9.04249 27.3089 9.18059 27.2594 9.26651 27.2191C9.34937 27.1757 9.47212 27.0859 9.53349 27.0178C9.61328 26.931 9.67159 26.8226 9.71762 26.6678C9.77899 26.4696 9.7882 26.3735 9.7882 25.8996C9.7882 25.3824 9.78513 25.3514 9.70841 25.1873C9.66545 25.0943 9.58873 24.9705 9.53963 24.9147C9.49053 24.8559 9.38006 24.7753 9.2972 24.7351C9.18366 24.6793 9.07932 24.6545 8.89826 24.6483C8.76324 24.639 8.61594 24.6421 8.56991 24.6514C8.52695 24.6576 8.47478 24.6824 8.45636 24.701ZM12.458 23.7935C13.0902 23.7904 13.1393 23.7966 13.216 23.8554C13.2804 23.9019 13.3234 23.9886 13.3909 24.2054C13.44 24.3603 13.5842 24.8806 13.7162 25.3576C13.8451 25.8346 14.0323 26.5036 14.1335 26.8443C14.2348 27.185 14.3361 27.504 14.3545 27.5536C14.376 27.6032 14.4281 27.6682 14.4742 27.7023C14.5263 27.7332 14.5601 27.7859 14.5601 27.8293C14.5601 27.8664 14.5448 27.916 14.5233 27.9377C14.4957 27.9655 14.3361 27.9748 13.9494 27.9748C13.4891 27.9779 13.4032 27.9686 13.3633 27.9284C13.3234 27.8819 13.3234 27.8633 13.3848 27.7394C13.4247 27.6651 13.4554 27.5474 13.4554 27.4793C13.4554 27.4111 13.4277 27.2996 13.394 27.2315C13.3602 27.1633 13.2866 27.0766 13.2313 27.0395C13.1423 26.9744 13.0932 26.9682 12.6575 26.9589C12.3138 26.9527 12.1603 26.962 12.1051 26.993C12.056 27.0178 12.0038 27.0952 11.9578 27.2098C11.921 27.3058 11.8811 27.4452 11.8719 27.5195C11.8535 27.6248 11.8627 27.6682 11.9179 27.7425C11.9547 27.7952 11.9824 27.8633 11.9762 27.8974C11.967 27.9563 11.9425 27.9594 10.8009 27.9594L10.7917 27.8664C10.7825 27.789 10.7978 27.7611 10.8899 27.7054C10.9513 27.6651 11.0188 27.597 11.0433 27.5505C11.0648 27.501 11.1139 27.3244 11.1507 27.1541C11.1876 26.9837 11.2857 26.6089 11.3686 26.3178C11.4545 26.0297 11.5988 25.5404 11.6939 25.2337C11.8044 24.8775 11.8719 24.5988 11.8811 24.4594C11.8964 24.2488 11.8934 24.2364 11.786 24.0815C11.7246 23.9917 11.6724 23.905 11.6693 23.8895C11.6663 23.8709 11.6908 23.843 11.7246 23.8276C11.7583 23.809 12.0621 23.7935 12.458 23.7935ZM12.277 26.0235C12.2616 26.0979 12.2708 26.1536 12.3015 26.2032C12.3475 26.2651 12.3752 26.2713 12.6421 26.2713C12.8938 26.2713 12.9429 26.262 12.995 26.2094L13.0564 26.1474C12.9122 25.6085 12.8263 25.305 12.7741 25.1253C12.725 24.9457 12.679 24.7939 12.6759 24.7908C12.6728 24.7846 12.5869 25.0355 12.4826 25.3483C12.3813 25.6581 12.2862 25.9647 12.277 26.0235ZM15.5421 23.7935C15.8183 23.7935 15.9196 23.8059 16.0024 23.8492C16.0791 23.8864 16.1221 23.936 16.1466 24.0196C16.1712 24.0877 16.1865 24.3045 16.1865 24.5616C16.1865 24.7939 16.1743 25.243 16.1589 25.5589C16.1405 25.8749 16.1252 26.293 16.1252 26.4881C16.1252 26.6957 16.1037 26.9279 16.0761 27.0456C16.0515 27.1572 15.9871 27.3306 15.938 27.4328C15.8858 27.535 15.806 27.662 15.7569 27.7116C15.7078 27.7642 15.5881 27.8448 15.4899 27.8943C15.3518 27.9655 15.2598 27.9872 15.0818 27.9965C14.9314 28.0058 14.8271 27.9965 14.7749 27.9686C14.735 27.947 14.6829 27.8726 14.6552 27.8045C14.6215 27.7054 14.6184 27.6589 14.646 27.566C14.6767 27.4638 14.7135 27.4328 14.9007 27.3337C15.0235 27.2687 15.1462 27.1819 15.1769 27.1386C15.2045 27.0952 15.2536 27.0085 15.2782 26.9465C15.3181 26.8474 15.3273 26.6709 15.3273 25.847C15.3273 25.0851 15.315 24.797 15.2782 24.5678C15.2506 24.4067 15.1953 24.1961 15.1554 24.1032C15.1125 24.0103 15.0787 23.9174 15.0757 23.8957C15.0726 23.874 15.0971 23.843 15.1309 23.8276C15.1616 23.809 15.3488 23.7966 15.5421 23.7935ZM18.1567 23.8028C18.8073 23.809 18.8594 23.8121 18.9177 23.8709C18.9576 23.9112 19.0435 24.159 19.1632 24.5678C19.2645 24.9178 19.4241 25.4536 19.5161 25.7603C19.6082 26.0669 19.7217 26.4726 19.7647 26.6585C19.8077 26.8474 19.8629 27.0611 19.8905 27.1386C19.9151 27.216 19.9488 27.3337 19.9672 27.4018C19.9826 27.47 20.0133 27.5598 20.0348 27.6032C20.0624 27.6651 20.0961 27.6837 20.2066 27.6899C20.2864 27.693 20.3631 27.6806 20.3877 27.6589C20.4091 27.6372 20.4582 27.5629 20.492 27.4948C20.5503 27.374 20.5534 27.3306 20.535 26.2558C20.5258 25.6426 20.5012 24.9952 20.4828 24.8156C20.4674 24.636 20.4368 24.416 20.4214 24.3293C20.3969 24.2023 20.3662 24.1404 20.2833 24.066C20.225 24.0103 20.1759 23.9422 20.1759 23.9174C20.1759 23.8926 20.1913 23.8523 20.2127 23.8337C20.2404 23.8028 20.4613 23.7935 21.1119 23.7935C21.6673 23.7935 22.0693 23.809 22.2473 23.8337C22.4038 23.8585 22.6033 23.9143 22.7076 23.9607C22.8089 24.0072 22.9593 24.097 23.0452 24.1621C23.1281 24.224 23.2631 24.3727 23.3429 24.4935C23.4196 24.6112 23.5116 24.7908 23.5454 24.893C23.5822 25.0014 23.6221 25.2492 23.6436 25.4815C23.6682 25.7665 23.6681 25.9709 23.6467 26.1784C23.6283 26.3395 23.5853 26.5718 23.5485 26.6895C23.5147 26.8103 23.4349 26.9961 23.3736 27.1076C23.3122 27.2222 23.1649 27.408 23.0329 27.5443C22.8826 27.6961 22.7353 27.8107 22.4314 27.9594L20.759 27.9686C19.2706 27.9779 19.0834 27.9748 19.0466 27.9315C19.0159 27.8912 19.0221 27.8602 19.0712 27.758C19.1049 27.6899 19.1325 27.5815 19.1325 27.5195C19.1325 27.4545 19.1049 27.3461 19.0742 27.2779C19.0405 27.2098 18.9638 27.1076 18.795 26.9527H18.4022C18.1874 26.9527 17.9572 26.9682 17.8897 26.9868C17.8222 27.0054 17.7301 27.058 17.681 27.1014C17.635 27.1479 17.589 27.2346 17.5767 27.2934C17.5675 27.3554 17.5828 27.4979 17.6135 27.6341C17.6442 27.7611 17.6595 27.8912 17.6503 27.9222C17.6319 27.9686 17.5798 27.9748 17.0734 27.9686C16.5916 27.9594 16.5118 27.9532 16.4811 27.9067C16.4535 27.8664 16.4719 27.8262 16.5763 27.6899C16.6469 27.6001 16.7328 27.4514 16.7665 27.3647C16.8034 27.2748 16.8586 27.0704 16.8924 26.9156C16.9292 26.7576 17.0335 26.3921 17.1286 26.101C17.2207 25.8129 17.3588 25.3328 17.4325 25.0417C17.5061 24.7475 17.5675 24.4811 17.5675 24.4532C17.5675 24.4222 17.5552 24.3479 17.5368 24.2891C17.5214 24.2302 17.4723 24.128 17.4294 24.066C17.3864 24.001 17.3496 23.9298 17.3465 23.905C17.3435 23.8802 17.368 23.843 17.4018 23.8276C17.4386 23.8059 17.7148 23.7966 18.1567 23.8028ZM21.3727 24.7072C21.3512 24.7289 21.342 25.1222 21.342 25.9864C21.342 26.6709 21.3482 27.247 21.3574 27.2625C21.3666 27.281 21.4464 27.3089 21.5323 27.3275C21.652 27.3554 21.7379 27.3554 21.8545 27.3275C21.9435 27.3089 22.0724 27.2656 22.1399 27.2315C22.2074 27.1974 22.3087 27.1231 22.3639 27.0704C22.4192 27.0147 22.502 26.8846 22.5511 26.7824C22.6002 26.6802 22.6585 26.5005 22.6831 26.3797C22.7138 26.228 22.726 26.0514 22.7138 25.7912C22.7046 25.5311 22.6831 25.3731 22.6432 25.2647C22.6094 25.1811 22.5358 25.0479 22.4775 24.9736C22.4069 24.8868 22.3056 24.8094 22.1859 24.7536C22.0816 24.7041 21.9282 24.6607 21.833 24.6514C21.741 24.6452 21.606 24.6483 21.5354 24.6576C21.4648 24.6669 21.3911 24.6917 21.3727 24.7072ZM18.1199 25.4351C18.0861 25.5961 18.0247 25.8253 17.9879 25.943L17.9204 26.1536C18.0615 26.2651 18.1229 26.2744 18.3561 26.2713C18.5618 26.2713 18.6507 26.2589 18.6845 26.2249C18.7121 26.2001 18.7336 26.1536 18.7336 26.1258C18.7336 26.0948 18.6569 25.8129 18.5648 25.497C18.4758 25.1811 18.3868 24.8899 18.3715 24.8466C18.3469 24.7753 18.3408 24.7815 18.2672 24.955C18.2242 25.0572 18.1567 25.274 18.1199 25.4351ZM24.9478 23.8028C25.7027 23.8121 26.0035 23.8276 26.1293 23.8616C26.2214 23.8864 26.3533 23.9329 26.4208 23.9669C26.4883 23.9979 26.5988 24.0815 26.6663 24.1497C26.7308 24.2178 26.8167 24.3448 26.8566 24.4284C26.8965 24.5152 26.9364 24.6793 26.9486 24.8001C26.9578 24.9333 26.9517 25.0974 26.9302 25.2182C26.9088 25.3297 26.8535 25.4939 26.8105 25.5868C26.7645 25.6766 26.6632 25.8129 26.5804 25.8873C26.5006 25.9616 26.3472 26.0669 26.2367 26.1165C26.0556 26.2001 26.0372 26.2187 26.0372 26.3023C26.0372 26.355 26.0771 26.4603 26.1262 26.5439C26.1723 26.6244 26.2766 26.8072 26.3533 26.9527C26.43 27.0983 26.5466 27.2903 26.6172 27.3802C26.6878 27.4669 26.8198 27.597 26.9118 27.6651C27.0039 27.7332 27.0806 27.8138 27.0806 27.8448C27.0806 27.8726 27.0653 27.916 27.0438 27.9377C27.0192 27.9625 26.8719 27.9748 26.5466 27.9748C26.1047 27.9779 26.0802 27.9748 26.0188 27.9067C25.9851 27.8664 25.7795 27.5226 25.5616 27.1386C25.3468 26.7545 25.1473 26.4169 25.1197 26.3859C25.0921 26.3519 25.046 26.3147 25.0153 26.2992C24.9662 26.2744 24.9632 26.3085 24.9724 26.8536C24.9785 27.3182 24.9908 27.4514 25.0307 27.5257C25.0583 27.5784 25.1227 27.6496 25.1749 27.6899C25.2301 27.7302 25.27 27.7859 25.27 27.8293C25.2731 27.8664 25.2547 27.916 25.2332 27.9346C25.2025 27.9624 25.0184 27.9717 23.8431 27.9594L23.8339 27.8757C23.8308 27.8076 23.8615 27.758 23.9781 27.6434C24.1039 27.5164 24.1315 27.47 24.1499 27.3399C24.1622 27.2563 24.1622 26.5996 24.1499 25.8842C24.1407 25.1687 24.1193 24.5152 24.1039 24.4284C24.0855 24.3448 24.0395 24.224 23.9996 24.1652C23.9566 24.1063 23.8983 24.0165 23.8707 23.9638C23.8247 23.8771 23.8247 23.8678 23.8768 23.8307C23.9229 23.7966 24.1407 23.7935 24.9478 23.8028ZM25.0245 24.6236C24.9693 24.701 24.9632 24.7413 24.9754 25.1098C24.9846 25.4041 25 25.5187 25.0307 25.5342C25.0522 25.5466 25.1596 25.5651 25.27 25.5775C25.3805 25.5899 25.5462 25.5899 25.6383 25.5775C25.7304 25.5651 25.847 25.5311 25.8991 25.5032C25.9482 25.4722 26.0157 25.401 26.0434 25.3421C26.074 25.2833 26.0986 25.1687 26.0986 25.0882C26.0986 25.0045 26.0833 24.9023 26.0648 24.8559C26.0464 24.8063 26.0035 24.7382 25.9666 24.6979C25.9298 24.6576 25.8286 24.6081 25.7457 24.5833C25.6598 24.5585 25.5094 24.5337 25.4081 24.5244C25.3069 24.5183 25.1933 24.5183 25.1565 24.5275C25.1197 24.5337 25.0614 24.5771 25.0245 24.6236ZM27.9 23.7935C28.2252 23.7935 28.5229 23.8059 28.5597 23.8214C28.5996 23.8338 28.6395 23.8678 28.6518 23.8988C28.6702 23.9329 28.6457 23.9917 28.5782 24.0815C28.526 24.1528 28.4646 24.2674 28.4401 24.3355C28.4155 24.4129 28.3879 24.7227 28.3695 25.1563C28.3541 25.5404 28.3388 26.1753 28.3388 26.5656C28.3388 26.993 28.3541 27.3275 28.3725 27.4018C28.394 27.4824 28.4615 27.5784 28.5567 27.6744C28.6395 27.7549 28.707 27.8386 28.707 27.8602C28.7101 27.8788 28.6917 27.916 28.6702 27.9346C28.6395 27.9624 28.4523 27.9717 27.2494 27.9594L27.2402 27.8602C27.234 27.7735 27.2494 27.7456 27.3414 27.6899C27.3997 27.6496 27.4642 27.5846 27.4857 27.5443C27.5164 27.4855 27.5225 27.1541 27.5164 25.9957C27.5102 24.8621 27.498 24.4842 27.4642 24.3665C27.4396 24.2829 27.3721 24.1497 27.3138 24.0722C27.2525 23.9948 27.2003 23.9174 27.1972 23.8957C27.1941 23.874 27.2187 23.843 27.2525 23.8276C27.2862 23.809 27.5624 23.7966 27.9 23.7935ZM34.9826 23.7966C35.4552 23.7935 35.9677 23.809 36.1181 23.8276C36.2684 23.8461 36.4618 23.8864 36.5477 23.9205C36.6305 23.9514 36.7686 24.0351 36.8484 24.1094C36.9313 24.1837 37.0326 24.3138 37.0725 24.3975C37.1123 24.4842 37.1614 24.639 37.1768 24.7475C37.1983 24.8744 37.1983 25.0045 37.1768 25.1346C37.1584 25.2399 37.1031 25.4165 37.051 25.528C36.9988 25.6395 36.9221 25.7727 36.8791 25.8222C36.8362 25.8749 36.7502 25.9523 36.6889 25.9988C36.6275 26.0452 36.5017 26.1072 36.4096 26.1412C36.3053 26.1784 36.2377 26.2187 36.2316 26.2496C36.2285 26.2806 36.3482 26.5222 36.4986 26.7917C36.649 27.058 36.8269 27.3492 36.8914 27.439C36.9558 27.5257 37.0479 27.6279 37.1001 27.662C37.1492 27.6961 37.2382 27.7271 37.2903 27.7271C37.3456 27.7271 37.4315 27.7054 37.4837 27.6806C37.5328 27.6558 37.5972 27.5939 37.6218 27.5412C37.6616 27.4638 37.6678 27.2501 37.6678 26.2187C37.6647 25.5404 37.6555 24.8466 37.6402 24.6762C37.6218 24.4284 37.6003 24.3386 37.5389 24.2271C37.4959 24.1497 37.4284 24.0599 37.3947 24.0258C37.3578 23.9917 37.3272 23.9453 37.3302 23.9267C37.3302 23.905 37.3517 23.8647 37.3793 23.8399C37.4192 23.8028 37.5389 23.7935 38.0698 23.7935C38.5976 23.7935 38.7204 23.8028 38.7572 23.8399C38.7817 23.8647 38.8032 23.9143 38.8032 23.9483C38.8032 23.9824 38.7787 24.032 38.748 24.0599C38.7204 24.0877 38.6713 24.1249 38.6406 24.1373C38.613 24.1528 38.5761 24.2178 38.5577 24.2829C38.5393 24.351 38.527 25.0107 38.527 25.9244C38.527 27.1695 38.5362 27.4638 38.57 27.535C38.5945 27.5815 38.6559 27.6496 38.7081 27.6899C38.7787 27.7394 38.8032 27.7828 38.8032 27.8509C38.8032 27.9036 38.794 27.9501 38.7787 27.9563C38.7664 27.9624 38.2079 27.9748 36.3175 27.9903L36.2439 27.9129C36.204 27.8695 35.98 27.4948 35.7467 27.0766C35.5166 26.6585 35.3079 26.2961 35.2834 26.2713C35.2496 26.2311 35.2435 26.3271 35.2435 27.5257L35.3816 27.6744C35.4583 27.7549 35.5197 27.8293 35.5197 27.8448C35.5197 27.8571 35.5013 27.8943 35.4767 27.9284C35.4337 27.9872 35.403 27.9903 34.7617 27.981C34.3934 27.9748 34.0835 27.9624 34.0681 27.9563C34.0559 27.9501 34.0467 27.9036 34.0467 27.8509C34.0467 27.7797 34.0743 27.7363 34.1755 27.6589C34.2492 27.6001 34.3259 27.501 34.3597 27.4266C34.4118 27.2996 34.4118 27.2222 34.3842 26.0173C34.3689 25.3143 34.3474 24.6545 34.3413 24.5523C34.3351 24.447 34.3044 24.3138 34.2676 24.2426C34.2339 24.1745 34.1694 24.0846 34.1264 24.0413C34.0804 23.9979 34.0436 23.9329 34.0405 23.8957C34.0375 23.8585 34.0559 23.8214 34.0804 23.8152C34.1019 23.8059 34.51 23.7966 34.9826 23.7966ZM35.2496 24.6452C35.222 24.701 35.2189 24.8187 35.2343 25.0882C35.2527 25.3607 35.268 25.466 35.3079 25.5125C35.3539 25.5682 35.4 25.5744 35.6639 25.5744C35.9033 25.5744 35.9892 25.562 36.0843 25.5125C36.1518 25.4784 36.2347 25.4103 36.2684 25.3638C36.3083 25.3081 36.3359 25.2151 36.3421 25.116C36.3482 25.0045 36.3329 24.9209 36.2961 24.8466C36.2654 24.7877 36.1917 24.7072 36.1334 24.6669C36.0751 24.6298 35.9769 24.5833 35.9186 24.5678C35.8603 24.5492 35.7283 24.5306 35.6271 24.5214C35.5258 24.5152 35.4092 24.5213 35.3662 24.5368C35.3233 24.5523 35.2711 24.6019 35.2496 24.6452ZM40.4297 23.7935C41.4025 23.7935 41.4301 23.7966 41.562 23.8647C41.6694 23.9174 41.7124 23.9638 41.7584 24.0722C41.7983 24.1714 41.8106 24.2426 41.7953 24.32C41.786 24.3789 41.7124 24.5461 41.6326 24.6917C41.5559 24.8373 41.2245 25.4289 40.8961 26.0081C40.5677 26.5872 40.2824 27.0828 40.2578 27.1076C40.2363 27.1324 40.2148 27.1788 40.2148 27.2098C40.2148 27.2377 40.2333 27.2717 40.2517 27.2841C40.2732 27.2934 40.4696 27.3089 40.6905 27.312C40.9084 27.3182 41.1385 27.3089 41.1968 27.2934C41.2552 27.2779 41.3595 27.2098 41.427 27.1386C41.4945 27.0704 41.5743 27.0147 41.6019 27.0147C41.6326 27.0147 41.6817 27.0518 41.7093 27.1014C41.7492 27.1633 41.7615 27.2532 41.7646 27.4483C41.7646 27.6186 41.7492 27.7487 41.7185 27.8169C41.694 27.8726 41.6449 27.9346 41.6111 27.9532C41.5743 27.9686 41.1232 27.981 40.4757 27.9779C39.4047 27.9748 39.4016 27.9748 39.331 27.9067C39.2789 27.854 39.2574 27.789 39.2451 27.6496C39.2328 27.5257 39.2451 27.4142 39.2758 27.3089C39.3034 27.2253 39.5213 26.7855 39.7576 26.3333C39.997 25.8811 40.2885 25.3421 40.402 25.1346C40.5187 24.924 40.6076 24.732 40.5984 24.7072C40.5862 24.67 40.5094 24.6607 40.1535 24.6607C39.8527 24.6607 39.6993 24.6731 39.6379 24.7041C39.5919 24.7258 39.5121 24.797 39.463 24.859C39.4016 24.9364 39.3495 24.9705 39.3096 24.9643C39.2758 24.9581 39.2328 24.9209 39.2114 24.8775C39.1868 24.828 39.1715 24.67 39.1715 24.4439C39.1715 24.1435 39.1807 24.0722 39.2328 23.9824C39.2666 23.9236 39.3249 23.8554 39.3617 23.8337C39.417 23.8028 39.6717 23.7935 40.4297 23.7935ZM45.9749 23.7935C46.3063 23.7935 46.4352 23.8059 46.5058 23.8399C46.5672 23.8709 46.6101 23.9236 46.6316 24.0041C46.6562 24.0846 46.6623 24.5833 46.6561 25.6735C46.6469 26.9218 46.6531 27.2377 46.6838 27.2687C46.7114 27.2965 46.8188 27.3089 47.0367 27.3058C47.2085 27.3058 47.4264 27.2841 47.5185 27.2625C47.6167 27.2377 47.7271 27.1819 47.7793 27.1324C47.8284 27.0828 47.899 27.0456 47.9328 27.0456C47.9665 27.0456 48.0125 27.0611 48.034 27.0828C48.0586 27.1107 48.0708 27.2253 48.0708 27.4421C48.0708 27.6156 48.08 27.758 48.0923 27.758C48.1077 27.758 48.166 27.7271 48.2243 27.6899C48.2826 27.6496 48.3624 27.5691 48.4729 27.4018L48.4698 24.4594L48.3961 24.3045C48.3562 24.2209 48.2857 24.1001 48.2427 24.0413C48.1967 23.9824 48.1629 23.9143 48.1629 23.8957C48.1629 23.874 48.1905 23.843 48.2243 23.8245C48.2611 23.8059 48.7153 23.7935 49.3904 23.7935C50.2098 23.7935 50.5166 23.8028 50.5749 23.8337C50.621 23.8523 50.6762 23.9081 50.6977 23.9576C50.7284 24.0165 50.7407 24.1683 50.7407 24.4687C50.7407 24.7598 50.7315 24.9054 50.7038 24.9333C50.6824 24.9519 50.6455 24.9705 50.6179 24.9705C50.5934 24.9736 50.5166 24.9302 50.4491 24.8775C50.3816 24.8249 50.2374 24.7536 50.1269 24.7196C50.0164 24.6855 49.8292 24.6483 49.7126 24.639C49.5408 24.6236 49.4825 24.6298 49.329 24.7227V25.528L49.4426 25.5589C49.507 25.5744 49.6328 25.5899 49.7188 25.5899C49.8691 25.5899 49.8906 25.5806 50.0195 25.4505C50.0962 25.3731 50.1637 25.3112 50.1729 25.3112C50.1821 25.3112 50.222 25.3297 50.265 25.3514C50.308 25.37 50.3448 25.3948 50.3448 25.4041C50.3479 25.4134 50.3509 25.6612 50.354 25.9554C50.354 26.2527 50.3509 26.5036 50.3417 26.516C50.3325 26.5315 50.2957 26.5563 50.2558 26.578C50.219 26.5965 50.1668 26.6058 50.1423 26.5965C50.1177 26.5872 50.0901 26.5532 50.0809 26.5191C50.0717 26.485 50.0226 26.4169 49.9735 26.3642C49.8937 26.2837 49.8569 26.2713 49.7188 26.2713C49.6328 26.2713 49.5132 26.2806 49.4549 26.293C49.3996 26.3085 49.3413 26.3395 49.3321 26.3642C49.3198 26.389 49.3198 26.5718 49.3321 26.7669C49.3536 27.0704 49.3659 27.1324 49.4211 27.185C49.4763 27.2408 49.5346 27.247 49.906 27.2594C50.2773 27.2687 50.3417 27.2625 50.4491 27.2067C50.5166 27.1726 50.6087 27.0952 50.6547 27.0333C50.7038 26.9713 50.7591 26.9218 50.7775 26.9218C50.799 26.9218 50.845 26.9496 50.8787 26.9868C50.9278 27.0395 50.9432 27.1045 50.9524 27.3523C50.9585 27.5164 50.9463 27.7054 50.9309 27.7735C50.9094 27.8478 50.8695 27.9129 50.8266 27.9377C50.7867 27.9594 50.713 27.9779 50.6639 27.9779C50.6118 27.9779 49.7771 27.9717 48.8073 27.9594C47.8345 27.947 46.7175 27.9532 46.3217 27.9686C45.9258 27.9841 45.576 27.9841 45.5453 27.9717C45.5176 27.9563 45.4839 27.9129 45.4747 27.8757C45.4593 27.8169 45.4839 27.7797 45.7539 27.5474V26.0204C45.7539 24.7475 45.7447 24.4656 45.7079 24.3386C45.6834 24.255 45.6097 24.1249 45.5453 24.0506C45.4839 23.9762 45.4286 23.905 45.4256 23.8895C45.4225 23.8709 45.4471 23.843 45.4808 23.8276C45.5115 23.809 45.7355 23.7966 45.9749 23.7935ZM22.1092 4.83802H23.8584V6.63445H22.1092V4.83802ZM24.6256 4.83802H26.4024L26.3901 6.61897L24.6256 6.63445V4.83802ZM22.1092 7.34683H23.8584V9.14327H22.1092V7.34683ZM24.6256 7.34683H26.4024L26.3901 9.12778L24.6256 9.14327V7.34683Z" fill="#292626"/>
</svg>
