<svg width="92" height="50" viewBox="0 0 92 50" fill="none" xmlns="http://www.w3.org/2000/svg">
<path id="Path 0" fill-rule="evenodd" clip-rule="evenodd" d="M43.5694 7.84956e-05C43.6025 0.0222021 47.898 2.55535 62.5988 11.2278L62.6264 26.0616L64.9258 28.1468C66.194 29.2917 67.2362 30.2596 67.2417 30.3038C67.2527 30.3536 67.1921 30.3757 67.0487 30.3757C66.9384 30.3702 66.2492 30.3149 64.1869 30.1268L63.9442 29.9277C63.8119 29.8171 61.6669 28.003 59.18 25.9012C56.2741 23.451 54.504 21.9909 54.2173 21.8194C53.9747 21.6756 53.5611 21.471 53.2964 21.377C53.0317 21.2774 52.6292 21.1557 52.4086 21.1059C52.1936 21.0617 51.7745 21.0064 51.4878 20.9898C51.1955 20.9732 50.7489 20.9898 50.4676 21.0285C50.1975 21.0617 49.7673 21.1557 49.5137 21.2276C49.2656 21.2995 48.8796 21.4489 48.659 21.5539C48.4439 21.659 48.1131 21.8416 47.9311 21.9632C47.7492 22.0849 46.3375 23.2464 44.7881 24.5406C43.2386 25.8404 41.9428 26.93 41.9042 26.9632C41.8435 27.0185 42.1302 27.295 43.2662 28.3016C44.0547 29.0041 44.6998 29.6014 44.7053 29.629C44.7053 29.6622 44.3745 30.066 43.9609 30.5306C43.5529 30.9896 43.1945 31.3713 43.1614 31.3713C43.1283 31.3713 41.7828 30.1932 40.1672 28.7552C38.5571 27.3227 36.8973 25.8459 36.4893 25.4864C36.0812 25.1269 35.596 24.7508 35.414 24.6512C35.232 24.5517 34.9232 24.4134 34.7247 24.347C34.4821 24.2641 34.1678 24.2143 33.7597 24.1977C33.2524 24.1701 33.076 24.1867 32.6845 24.2862C32.4253 24.3526 32.0669 24.4798 31.8849 24.5683C31.6864 24.6678 30.0101 25.9455 27.6501 27.8039C25.505 29.4908 23.7405 30.8735 23.724 30.8735C23.7074 30.8735 23.1615 30.6523 22.5109 30.3757C21.6837 30.0273 21.3308 29.8558 21.3363 29.8005C21.3474 29.7563 22.2296 29.0317 25.2404 26.67L25.2679 11.6647L34.3884 5.81304C39.4062 2.59959 43.5364 -0.0165142 43.5694 7.84956e-05ZM27.6942 12.9424C27.6666 23.6889 27.6721 24.7508 27.7328 24.701C27.7714 24.6678 28.2676 24.2751 28.8356 23.8327C29.4091 23.3847 30.0156 22.9256 30.1866 22.8039C30.363 22.6878 30.6553 22.5163 30.8372 22.4223C31.0192 22.3338 31.3556 22.1955 31.5817 22.1181C31.8077 22.0407 32.2323 21.9356 32.5191 21.8803C32.9106 21.8139 33.2414 21.7973 33.8149 21.8194C34.4049 21.8416 34.7192 21.8803 35.1383 21.9909C35.4581 22.0739 35.9434 22.2619 36.2963 22.4389C36.6326 22.6048 37.0407 22.8426 37.2116 22.9754C37.3825 23.1081 38.0663 23.6944 38.728 24.2862C39.3952 24.8725 39.9687 25.3647 40.0018 25.3758C40.0404 25.3869 41.4079 24.2751 43.0346 22.9035C44.6667 21.5318 46.1887 20.2763 46.4147 20.1104C46.6408 19.9445 47.1261 19.6624 47.49 19.4799C47.8539 19.2973 48.3392 19.0872 48.5653 19.0153C48.7913 18.9378 49.238 18.8217 49.5578 18.7553C50.0486 18.6447 50.2967 18.6281 51.2121 18.6281C52.1164 18.6281 52.3755 18.6502 52.8387 18.7498C53.142 18.8217 53.6162 18.9489 53.8864 19.0429C54.1566 19.1369 54.6694 19.3582 55.0168 19.5407C55.3642 19.7232 55.8605 20.033 56.1197 20.2265C56.3788 20.4201 57.4045 21.3272 58.408 22.2343L60.2277 23.888C60.2498 13.8494 60.2387 12.6382 60.1836 12.5884C60.1505 12.5552 56.4174 10.3484 51.9013 7.68248C47.3852 5.01659 43.6466 2.82636 43.6025 2.80977C43.5529 2.7987 40.1065 4.97234 35.607 7.865L27.6942 12.9424ZM51.1569 29.8337C51.4767 29.8282 51.984 29.8613 52.2873 29.9056C52.5906 29.9554 53.0483 30.0549 53.3074 30.1324C53.5666 30.2098 54.0353 30.3868 54.3551 30.525C54.6749 30.6633 55.1657 30.9067 55.4469 31.0615C55.7282 31.2164 55.9542 31.3602 55.9542 31.3879C55.9542 31.41 55.9377 31.4376 55.9101 31.4542C55.8881 31.4653 55.5241 31.4045 55.0995 31.3104C54.6749 31.2164 54.0684 31.1058 53.7486 31.0615C53.4287 31.0173 52.8718 30.9786 52.5079 30.9786C52.1439 30.9786 51.6366 31.0173 51.3775 31.0615C51.1183 31.1058 50.7323 31.1998 50.5228 31.2607C50.3077 31.327 49.9273 31.4542 49.6681 31.5483C49.4089 31.6423 48.8741 31.8635 48.4825 32.035C48.0855 32.212 46.911 32.754 45.8633 33.2407C44.8156 33.7274 43.4757 34.3358 42.8857 34.5958C42.2957 34.8502 41.6119 35.1489 40.9282 35.431L41.1763 35.5028C41.3141 35.5471 41.7828 35.6522 42.224 35.7407C42.6651 35.8292 43.3434 35.9453 43.7404 35.9951C44.2422 36.0615 44.8653 36.0947 45.8358 36.0947C46.8614 36.0947 47.3907 36.0725 47.9036 36.0006C48.284 35.9453 48.8796 35.8402 49.227 35.7628C49.5744 35.6854 50.2195 35.5028 50.6606 35.3535C51.1018 35.2097 52.5906 34.6622 53.9691 34.1367C55.3477 33.6168 57.046 32.9808 57.7463 32.7263C58.4411 32.4719 59.384 32.1511 59.8417 32.0129C60.2939 31.8691 60.9059 31.6921 61.1927 31.6202C61.4794 31.5483 61.9536 31.4432 62.2404 31.3934C62.5933 31.327 63.051 31.2938 63.6465 31.2938C64.2861 31.2938 64.6556 31.316 64.9975 31.3879C65.2566 31.4432 65.7253 31.5759 66.0451 31.681C66.365 31.7861 67.0046 32.0682 67.4733 32.3005C67.9365 32.5328 68.3446 32.7706 68.3666 32.8259C68.4052 32.8923 68.3942 32.9199 68.3335 32.9199C68.2894 32.9199 68.0192 32.8701 67.738 32.8038C67.4623 32.7429 66.9715 32.6434 66.6517 32.5825C66.3319 32.5217 65.7143 32.4553 65.2732 32.4387C64.6556 32.4111 64.3413 32.4277 63.8946 32.5051C63.5748 32.5549 62.9572 32.7153 62.5161 32.8646C62.075 33.0084 61.3802 33.2794 60.9721 33.462C60.5641 33.6445 59.4943 34.1312 58.601 34.5515C57.7077 34.9664 56.5277 35.5084 55.9818 35.7517C55.4359 35.9951 54.5316 36.3878 53.9691 36.6256C53.4067 36.8579 52.5741 37.1898 52.1219 37.3612C51.6642 37.5272 51.0687 37.7318 50.7985 37.8092C50.5283 37.8867 49.9934 38.0083 49.6129 38.0858C49.2325 38.1632 48.5983 38.2628 48.2068 38.3125C47.8098 38.3568 47.0323 38.3955 46.4699 38.3955C45.9074 38.3955 45.1244 38.3568 44.7329 38.3125C44.3359 38.2683 43.6907 38.1632 43.2992 38.0858C42.9022 38.0028 42.2571 37.8479 41.8656 37.7318C41.4685 37.6156 40.851 37.4055 40.487 37.2617C40.1231 37.1234 39.5165 36.8579 38.4468 36.3435L37.7575 36.515C37.377 36.6035 36.7208 36.7362 36.2963 36.8026C35.6456 36.9022 35.2927 36.9243 34.063 36.9243C32.9326 36.9298 32.4529 36.9077 31.9401 36.8303C31.5761 36.775 30.9916 36.6699 30.6442 36.5924C30.2969 36.5205 29.7124 36.3657 29.3484 36.2606C28.9845 36.15 28.3393 35.9287 27.9147 35.7573C27.4901 35.5913 26.7678 35.265 26.3156 35.0272C25.858 34.7949 25.1797 34.4022 24.7992 34.1644C24.4188 33.921 23.7736 33.473 23.3656 33.1633C22.9575 32.848 22.3675 32.3668 22.0532 32.0792C21.7444 31.7972 21.2536 31.3049 20.9669 30.9841C20.6802 30.6633 20.4431 30.3702 20.4431 30.337C20.4431 30.2983 20.4651 30.2651 20.4982 30.2651C20.5313 30.2651 20.818 30.4366 21.1433 30.6467C21.4742 30.8569 22.0752 31.2164 22.4833 31.4542C22.8913 31.6921 23.5199 32.0294 23.8729 32.2064C24.2313 32.389 24.8654 32.6766 25.279 32.8591C25.698 33.0361 26.3211 33.285 26.6575 33.4122C26.9994 33.5339 27.6611 33.7496 28.1188 33.8823C28.5819 34.0206 29.3319 34.2031 29.7896 34.2916C30.2417 34.3856 30.9365 34.4962 31.3335 34.546C31.725 34.5903 32.4088 34.6456 32.8499 34.6677C33.3131 34.6898 34.0079 34.6732 34.5042 34.6345C34.9729 34.6013 35.4195 34.5571 35.4967 34.5405C35.6235 34.5128 35.607 34.4852 35.221 34.1754C34.9949 33.9929 34.3773 33.4122 33.8535 32.8812C33.2304 32.2507 32.9106 31.8912 32.9216 31.8303C32.9326 31.775 32.9602 31.7363 32.9933 31.7418C33.0208 31.7474 33.3517 31.9465 33.7322 32.1898C34.1127 32.4277 34.7909 32.837 35.2486 33.0914C35.7007 33.3403 36.3569 33.6832 36.6933 33.8436C37.0352 34.004 37.3605 34.1367 37.4101 34.1367C37.4653 34.1367 37.6803 34.0869 37.8954 34.0206C38.1049 33.9542 38.9375 33.6611 39.7426 33.3624C40.5477 33.0637 42.1357 32.4664 43.2717 32.035C44.4076 31.6036 45.924 31.056 46.6353 30.8182C47.3466 30.5804 48.2289 30.3093 48.5928 30.2153C48.9568 30.1268 49.4641 30.0107 49.7232 29.9664C49.9824 29.9222 50.2802 29.8724 50.3849 29.8613C50.4897 29.8503 50.8371 29.8392 51.1569 29.8337ZM57.0681 42.4441C57.2445 42.4386 57.6305 42.4607 57.9228 42.4939C58.2206 42.5271 58.6507 42.6156 58.8767 42.693C59.1028 42.7649 59.3896 42.8866 59.5109 42.9585C59.6322 43.0304 59.8472 43.2074 59.9851 43.3567C60.1229 43.5005 60.2994 43.7328 60.3821 43.8711C60.4593 44.0094 60.5861 44.2859 60.6633 44.4961C60.746 44.7007 60.8343 44.9828 60.8673 45.1321C60.9004 45.2759 60.928 45.641 60.9225 45.9452C60.9225 46.3047 60.8729 46.7471 60.7846 47.2173C60.6909 47.6874 60.5806 48.0635 60.4703 48.2958C60.349 48.5392 60.167 48.7825 59.9024 49.0425C59.6873 49.2582 59.362 49.5071 59.18 49.6066C58.998 49.7006 58.7113 49.8168 58.5459 49.8666C58.2978 49.9385 57.9393 49.9551 56.4891 49.9551C54.7852 49.9551 54.7411 49.9551 54.7135 49.8444C54.697 49.7836 54.697 49.6896 54.7135 49.6398C54.7301 49.5845 54.8128 49.496 54.9065 49.4462C54.9948 49.3909 55.1106 49.2914 55.1547 49.225C55.1988 49.1531 55.2429 48.9595 55.2539 48.7936C55.2595 48.6276 55.2429 47.433 55.2208 46.1387C55.1988 44.8169 55.1492 43.6554 55.1161 43.4839C55.072 43.2516 55.0003 43.1244 54.8293 42.9419C54.6419 42.7428 54.6143 42.6819 54.6639 42.61C54.7191 42.5271 54.8735 42.5105 55.7392 42.4884C56.2961 42.4718 56.8972 42.4496 57.0681 42.4441ZM56.6656 46.4208L56.6711 48.6276C56.9302 48.7936 57.0791 48.8212 57.3603 48.8212C57.6526 48.8157 57.818 48.7825 58.0496 48.6774C58.215 48.6 58.4356 48.4617 58.5404 48.3732C58.6451 48.2847 58.783 48.0967 58.8547 47.9529C58.9264 47.8035 59.0256 47.5436 59.0697 47.3721C59.1194 47.1951 59.169 46.8025 59.191 46.4983C59.2076 46.1553 59.1966 45.8014 59.158 45.558C59.1194 45.3478 59.0366 45.0492 58.9705 44.8998C58.9043 44.7505 58.7499 44.5403 58.6231 44.4297C58.5018 44.3191 58.2647 44.1863 58.0992 44.131C57.9062 44.0702 57.6361 44.037 57.3217 44.037C56.9633 44.037 56.82 44.0591 56.7538 44.1255C56.6711 44.2029 56.6656 44.4408 56.6656 46.4208ZM80.3268 42.4773C80.4316 42.4884 80.5915 42.5381 80.6852 42.5934C80.7735 42.6432 80.8948 42.7704 80.9499 42.8755C81.0216 43.0193 81.0437 43.1521 81.0271 43.3733C81.0106 43.6388 80.9279 43.8158 80.4371 44.7007C80.1228 45.2649 79.5162 46.3323 79.0861 47.079C78.656 47.8257 78.2866 48.4783 78.27 48.5336C78.2425 48.5945 78.2645 48.6442 78.3252 48.6774C78.3803 48.7051 78.7332 48.7438 79.1137 48.7659C79.7478 48.8046 79.825 48.7936 80.0621 48.6885C80.211 48.6276 80.382 48.4949 80.4481 48.4064C80.5363 48.2903 80.6191 48.2405 80.7238 48.2405C80.8286 48.2405 80.9003 48.2847 80.9444 48.3677C80.983 48.4341 81.0106 48.7161 81.0161 49.0203C81.0161 49.3467 80.9885 49.6011 80.9444 49.684C80.9058 49.7559 80.8231 49.85 80.7514 49.8942C80.6521 49.9551 80.2827 49.9717 78.7829 49.9606C77.3216 49.9495 76.897 49.9329 76.7536 49.8666C76.6599 49.8223 76.5276 49.7062 76.4614 49.6121C76.3787 49.4683 76.3566 49.3743 76.3787 49.1807C76.4007 49.0314 76.5496 48.6608 76.7592 48.2405C76.9521 47.8589 77.5367 46.7693 78.055 45.8235C78.5788 44.8722 79.0034 44.0813 79.0034 44.0647C79.0034 44.0481 78.5954 44.0425 77.1782 44.0647L76.9301 44.3302C76.7977 44.474 76.6544 44.5901 76.6158 44.5901C76.5827 44.5901 76.5055 44.5624 76.4559 44.5237C76.3787 44.4684 76.3566 44.3191 76.3235 43.7881C76.296 43.3401 76.307 43.058 76.3511 42.9198C76.3842 42.7981 76.4779 42.6654 76.5606 42.6156C76.693 42.5271 76.9191 42.5105 78.4244 42.4828C79.3618 42.4662 80.222 42.4607 80.3268 42.4773ZM1.535 42.4884C2.56063 42.4884 2.63783 42.4939 2.7426 42.599C2.83634 42.693 2.84186 42.7262 2.7812 42.8147C2.74812 42.87 2.64335 43.0138 2.54961 43.1299C2.38418 43.3346 2.38418 43.3401 2.34007 44.3357C2.30698 45.0602 2.3125 45.3534 2.35661 45.3921C2.40072 45.4308 2.44484 45.4087 2.51101 45.3257C2.56063 45.2538 2.84737 44.7947 3.14513 44.3025C3.44841 43.8047 3.78478 43.2406 3.90058 43.0415C4.03843 42.8092 4.17628 42.6488 4.2976 42.5879C4.44648 42.505 4.62293 42.4884 5.29014 42.4884C6.07315 42.4884 6.11175 42.4939 6.18895 42.6156C6.24409 42.693 6.25512 42.776 6.23306 42.8423C6.20549 42.9032 6.04007 43.0636 5.8581 43.2018C5.67613 43.3456 5.41146 43.6111 5.2736 43.7881C5.13023 43.9706 4.8435 44.4076 4.63396 44.756C4.42442 45.1045 4.17077 45.5027 4.07703 45.641C3.98329 45.7792 3.88955 45.9507 3.873 46.0281C3.85095 46.1222 3.88955 46.2549 3.99432 46.4485C4.07703 46.6033 4.34722 47.0956 4.58985 47.5436C4.83247 47.9916 5.15229 48.5281 5.30669 48.7272C5.45557 48.9319 5.72576 49.2029 5.8967 49.3301C6.18344 49.5402 6.21652 49.5845 6.18895 49.9274L5.3894 49.9661C4.82695 49.9882 4.55125 49.9827 4.45199 49.9385C4.37479 49.8997 4.18731 49.6785 4.03843 49.4462C3.88403 49.2084 3.46496 48.5613 2.44484 46.996L2.38969 47.4385C2.36212 47.6819 2.33455 48.1299 2.33455 48.4396C2.32904 48.9595 2.34007 49.0093 2.47792 49.2139C2.56064 49.3301 2.68194 49.4905 2.74811 49.5679C2.84186 49.684 2.85288 49.7283 2.80326 49.8334C2.7426 49.9551 2.73157 49.9551 1.56809 49.9551C0.69685 49.9551 0.382543 49.9385 0.327401 49.8887C0.288802 49.85 0.26123 49.7725 0.26123 49.7228C0.26123 49.6675 0.371514 49.5181 0.509368 49.3909C0.647222 49.2582 0.790589 49.0646 0.829188 48.9595C0.873301 48.8212 0.889843 48.3069 0.873301 47.2173C0.867787 46.3655 0.840216 45.1819 0.818159 44.5901C0.77956 43.5724 0.768534 43.495 0.63068 43.224C0.547967 43.0636 0.454226 42.9198 0.426655 42.9032C0.39357 42.8866 0.343943 42.8257 0.316372 42.7649C0.277773 42.6819 0.283286 42.6322 0.349456 42.5713C0.42114 42.505 0.630678 42.4884 1.535 42.4884ZM7.85422 42.4884C8.48835 42.4884 9.02323 42.5105 9.08388 42.5437C9.15741 42.5805 9.19417 42.6543 9.19417 42.7649C9.19417 42.8976 9.15005 42.964 8.9736 43.0857C8.84678 43.1687 8.72546 43.2959 8.69789 43.3733C8.67584 43.4507 8.63723 44.12 8.62621 44.8666C8.60966 45.6133 8.6207 46.5702 8.64275 46.996C8.67032 47.4662 8.72546 47.8699 8.78061 48.0192C8.83023 48.1575 8.93501 48.34 9.01772 48.423C9.10043 48.5115 9.22725 48.6166 9.30445 48.6553C9.38165 48.694 9.53053 48.7383 9.6353 48.7604C9.74007 48.7825 9.96615 48.7659 10.1316 48.7327C10.3687 48.683 10.4845 48.6166 10.6609 48.4396C10.7988 48.3069 10.9146 48.1243 10.9532 47.9916C10.9918 47.8478 11.0138 47.0513 11.0138 45.7129C11.0138 43.9762 11.0028 43.6167 10.9311 43.4452C10.8815 43.3291 10.7492 43.141 10.6389 43.0249C10.4569 42.8423 10.4404 42.8036 10.49 42.6653C10.5451 42.5215 10.5617 42.516 10.9587 42.516C11.1848 42.5215 11.7803 42.5326 12.2821 42.5437C12.7839 42.5603 14.008 42.5492 15.0116 42.5215C16.5942 42.4828 16.8864 42.4884 17.2448 42.5658C17.4709 42.6156 17.7963 42.7207 17.9617 42.8036C18.1381 42.8866 18.4194 43.1023 18.6234 43.3125C18.855 43.5448 19.048 43.8047 19.1582 44.037C19.252 44.2361 19.3733 44.5569 19.4284 44.756C19.5112 45.0381 19.5277 45.3036 19.5277 46.0005C19.5222 46.5923 19.4946 47.0126 19.434 47.2726C19.3898 47.4883 19.2961 47.798 19.2354 47.9639C19.1748 48.1299 19.0259 48.4175 18.9101 48.6C18.7943 48.7825 18.5848 49.0425 18.4524 49.1752C18.3201 49.3079 18.083 49.5015 17.9341 49.5956C17.7797 49.6951 17.5316 49.8168 17.3827 49.8666C17.1456 49.9495 16.8588 49.9606 15.2873 49.9551C13.9198 49.9551 13.4566 49.9329 13.429 49.8832C13.407 49.85 13.3849 49.767 13.3849 49.7062C13.3849 49.6453 13.4842 49.5071 13.8536 49.1918L13.8702 46.6808C13.8867 44.2638 13.8812 44.1587 13.7654 43.6498C13.6717 43.2516 13.611 43.0912 13.5007 42.9917C13.3904 42.8866 13.3243 42.8645 13.1919 42.8976C13.0982 42.9142 12.9659 42.9751 12.8887 43.0304C12.8115 43.0857 12.7067 43.2184 12.6571 43.3235C12.5688 43.495 12.5578 43.7273 12.5578 45.6963C12.5578 47.4662 12.5413 47.9418 12.4751 48.2018C12.431 48.3732 12.3372 48.6221 12.2711 48.7549C12.2104 48.8821 12.0284 49.1199 11.874 49.2803C11.7031 49.4628 11.455 49.6453 10.876 49.9274H8.89089L8.51592 49.7504C8.3119 49.6509 8.01965 49.4518 7.86526 49.3079C7.71086 49.1586 7.52338 48.9429 7.45169 48.8212C7.38001 48.6996 7.28076 48.4396 7.23113 48.2405C7.14842 47.9308 7.13187 47.5768 7.13187 45.7239C7.12636 43.6333 7.12085 43.5614 7.01056 43.3456C6.94439 43.224 6.82859 43.0415 6.74588 42.9474C6.66868 42.8479 6.597 42.7317 6.59148 42.693C6.58597 42.6543 6.61354 42.5934 6.65765 42.5547C6.7128 42.5105 7.0657 42.4884 7.85422 42.4884ZM15.3755 44.1089C15.3369 44.1532 15.3204 44.9385 15.3149 46.4153C15.3094 48.506 15.3149 48.6608 15.4086 48.7272C15.4638 48.7604 15.6182 48.8102 15.756 48.8268C15.8939 48.8489 16.1255 48.8378 16.2799 48.7991C16.4287 48.7659 16.6769 48.6774 16.8313 48.6055C16.9802 48.5281 17.2007 48.3677 17.311 48.246C17.4544 48.0911 17.5591 47.8976 17.6419 47.621C17.7521 47.2671 17.7687 47.0956 17.7687 46.2494C17.7687 45.3257 17.7632 45.2704 17.6253 44.9773C17.5481 44.8113 17.4103 44.5901 17.322 44.4905C17.2338 44.3855 17.0353 44.2417 16.8864 44.1698C16.6824 44.0702 16.4949 44.0259 16.1696 44.0149C15.927 43.9983 15.6623 44.0038 15.5796 44.0204C15.5024 44.0315 15.4086 44.0757 15.3755 44.1089ZM22.566 42.4884C23.7019 42.4828 23.7901 42.4939 23.928 42.599C24.0438 42.6819 24.121 42.8368 24.2423 43.224C24.3305 43.5005 24.5897 44.4297 24.8268 45.2815C25.0584 46.1332 25.3948 47.3279 25.5767 47.9363C25.7587 48.5447 25.9407 49.1144 25.9738 49.2029C26.0124 49.2914 26.1061 49.4075 26.1888 49.4683C26.2825 49.5236 26.3432 49.6177 26.3432 49.6951C26.3432 49.7615 26.3156 49.85 26.277 49.8887C26.2274 49.9385 25.9407 49.9551 25.2459 49.9551C24.4188 49.9606 24.2644 49.944 24.1927 49.8721C24.121 49.7891 24.121 49.756 24.2313 49.5347C24.303 49.402 24.3581 49.1918 24.3581 49.0701C24.3581 48.9484 24.3085 48.7493 24.2478 48.6276C24.1872 48.506 24.0548 48.3511 23.9556 48.2847C23.7957 48.1686 23.7074 48.1575 22.9244 48.1409C22.3068 48.1299 22.0311 48.1465 21.9319 48.2018C21.8436 48.246 21.7499 48.3843 21.6672 48.5889C21.601 48.7604 21.5293 49.0093 21.5128 49.142C21.4797 49.3301 21.4963 49.4075 21.5955 49.5402C21.6617 49.6343 21.7113 49.7559 21.7003 49.8168C21.6837 49.9219 21.6396 49.9274 19.5884 49.9274L19.5718 49.7615C19.5553 49.6232 19.5828 49.5734 19.7483 49.4739C19.8586 49.402 19.9799 49.2803 20.024 49.1973C20.0626 49.1088 20.1508 48.7936 20.217 48.4894C20.2831 48.1852 20.4596 47.5159 20.6085 46.996C20.7629 46.4817 21.022 45.6078 21.193 45.0602C21.3915 44.4242 21.5128 43.9264 21.5293 43.6775C21.5569 43.3014 21.5514 43.2793 21.3584 43.0027C21.2481 42.8423 21.1544 42.6875 21.1489 42.6598C21.1434 42.6266 21.1875 42.5769 21.2481 42.5492C21.3088 42.516 21.8547 42.4884 22.566 42.4884ZM22.2407 46.4706C22.2131 46.6033 22.2296 46.7029 22.2848 46.7914C22.3675 46.902 22.4171 46.9131 22.8969 46.9131C23.349 46.9131 23.4372 46.8965 23.531 46.8025L23.6413 46.6918C23.3821 45.7295 23.2277 45.1874 23.134 44.8666C23.0457 44.5459 22.963 44.2748 22.9575 44.2693C22.952 44.2582 22.7976 44.7062 22.6101 45.2649C22.4282 45.818 22.2572 46.3655 22.2407 46.4706ZM28.1077 42.4884C28.604 42.4884 28.786 42.5105 28.9349 42.5879C29.0727 42.6543 29.1499 42.7428 29.194 42.8921C29.2381 43.0138 29.2657 43.401 29.2657 43.86C29.2657 44.2748 29.2436 45.0768 29.2161 45.641C29.183 46.2051 29.1554 46.9518 29.1554 47.3002C29.1554 47.6708 29.1168 48.0856 29.0672 48.2958C29.0231 48.4949 28.9073 48.8046 28.8191 48.9872C28.7253 49.1697 28.5819 49.3964 28.4937 49.4849C28.4055 49.579 28.1904 49.7228 28.014 49.8113C27.7659 49.9385 27.6004 49.9772 27.2806 49.9938C27.0104 50.0104 26.8229 49.9938 26.7292 49.944C26.6575 49.9053 26.5638 49.7725 26.5141 49.6509C26.4535 49.4739 26.448 49.3909 26.4976 49.225C26.5527 49.0425 26.6189 48.9872 26.9553 48.8102C27.1758 48.694 27.3964 48.5392 27.4515 48.4617C27.5012 48.3843 27.5894 48.2294 27.6335 48.1188C27.7052 47.9418 27.7217 47.6266 27.7217 46.1553C27.7217 44.7947 27.6997 44.2804 27.6335 43.8711C27.5839 43.5835 27.4846 43.2074 27.4129 43.0415C27.3358 42.8755 27.2751 42.7096 27.2696 42.6709C27.2641 42.6322 27.3082 42.5769 27.3688 42.5492C27.424 42.516 27.7603 42.4939 28.1077 42.4884ZM32.8058 42.505C33.9748 42.516 34.0685 42.5215 34.1733 42.6266C34.245 42.6985 34.3994 43.141 34.6144 43.8711C34.7964 44.4961 35.0831 45.4529 35.2486 46.0005C35.414 46.548 35.618 47.2726 35.6952 47.6044C35.7724 47.9418 35.8717 48.3234 35.9213 48.4617C35.9654 48.6 36.0261 48.8102 36.0591 48.9318C36.0867 49.0535 36.1419 49.2139 36.1805 49.2914C36.2301 49.402 36.2907 49.4352 36.4893 49.4462C36.6326 49.4518 36.7705 49.4296 36.8146 49.3909C36.8532 49.3522 36.9414 49.2195 37.0021 49.0978C37.1068 48.8821 37.1124 48.8046 37.0793 46.8854C37.0627 45.7903 37.0186 44.6343 36.9855 44.3136C36.958 43.9928 36.9028 43.6001 36.8752 43.4452C36.8311 43.2184 36.776 43.1078 36.6271 42.9751C36.5223 42.8755 36.4341 42.7538 36.4341 42.7096C36.4341 42.6653 36.4617 42.5935 36.5003 42.5603C36.5499 42.505 36.9469 42.4884 38.1159 42.4884C39.114 42.4884 39.8363 42.516 40.1562 42.5603C40.4374 42.6045 40.7958 42.7041 40.9833 42.787C41.1653 42.87 41.4355 43.0304 41.5899 43.1465C41.7387 43.2572 41.9814 43.5226 42.1247 43.7383C42.2626 43.9485 42.428 44.2693 42.4887 44.4518C42.5548 44.6454 42.6265 45.0879 42.6651 45.5027C42.7092 46.0115 42.7092 46.3766 42.6706 46.7471C42.6375 47.0348 42.5603 47.4496 42.4942 47.6597C42.4335 47.8754 42.2901 48.2073 42.1799 48.4064C42.0696 48.6111 41.8049 48.9429 41.5678 49.1863C41.2976 49.4573 41.0329 49.6619 40.487 49.9274L37.4818 49.944C34.8074 49.9606 34.4711 49.9551 34.4049 49.8776C34.3498 49.8057 34.3608 49.7504 34.449 49.5679C34.5097 49.4462 34.5593 49.2526 34.5593 49.142C34.5593 49.0259 34.5097 48.8323 34.4545 48.7106C34.3939 48.5889 34.256 48.4064 33.9527 48.1299H33.2469C32.8609 48.1299 32.4474 48.1575 32.3261 48.1907C32.2048 48.2239 32.0393 48.3179 31.9511 48.3954C31.8684 48.4783 31.7857 48.6332 31.7636 48.7383C31.7471 48.8489 31.7746 49.1033 31.8298 49.3467C31.8849 49.5734 31.9125 49.8057 31.896 49.861C31.8629 49.944 31.7691 49.9551 30.8593 49.944C29.9936 49.9274 29.8502 49.9163 29.7951 49.8334C29.7454 49.7615 29.7785 49.6896 29.966 49.4462C30.0928 49.2858 30.2472 49.0203 30.3079 48.8655C30.3741 48.7051 30.4733 48.34 30.534 48.0635C30.6001 47.7814 30.7876 47.1288 30.9585 46.6089C31.124 46.0945 31.3721 45.2372 31.5045 44.7173C31.6368 44.1919 31.7471 43.7162 31.7471 43.6664C31.7471 43.6111 31.725 43.4784 31.6919 43.3733C31.6644 43.2682 31.5761 43.0857 31.4989 42.9751C31.4217 42.8589 31.3556 42.7317 31.3501 42.6875C31.3445 42.6432 31.3887 42.5769 31.4493 42.5492C31.5155 42.5105 32.0118 42.4939 32.8058 42.505ZM38.5846 44.12C38.546 44.1587 38.5295 44.8611 38.5295 46.4042C38.5295 47.6266 38.5405 48.6553 38.5571 48.683C38.5736 48.7161 38.717 48.7659 38.8714 48.7991C39.0864 48.8489 39.2408 48.8489 39.4504 48.7991C39.6103 48.7659 39.8419 48.6885 39.9632 48.6276C40.0845 48.5668 40.2665 48.4341 40.3657 48.34C40.465 48.2405 40.6138 48.0082 40.7021 47.8257C40.7903 47.6432 40.8951 47.3224 40.9392 47.1067C40.9943 46.8356 41.0164 46.5204 40.9943 46.0558C40.9778 45.5912 40.9392 45.3091 40.8675 45.1155C40.8068 44.9662 40.6745 44.7284 40.5697 44.5956C40.4429 44.4408 40.2609 44.3025 40.0459 44.2029C39.8584 44.1144 39.5827 44.037 39.4118 44.0204C39.2463 44.0094 39.0037 44.0149 38.8769 44.0315C38.7501 44.0481 38.6177 44.0923 38.5846 44.12ZM32.7396 45.4197C32.679 45.7073 32.5687 46.1166 32.5025 46.3268L32.3812 46.7029C32.6349 46.902 32.7451 46.9186 33.1642 46.9131C33.5337 46.9131 33.6936 46.8909 33.7542 46.8301C33.8039 46.7859 33.8425 46.7029 33.8425 46.6531C33.8425 46.5978 33.7046 46.0945 33.5392 45.5303C33.3793 44.9662 33.2194 44.4463 33.1918 44.3689C33.1477 44.2417 33.1366 44.2527 33.0043 44.5624C32.9271 44.745 32.8058 45.1321 32.7396 45.4197ZM45.0086 42.505C46.3651 42.5215 46.9055 42.5492 47.1316 42.61C47.297 42.6543 47.5341 42.7373 47.6554 42.7981C47.7767 42.8534 47.9752 43.0027 48.0966 43.1244C48.2124 43.2461 48.3667 43.4729 48.4384 43.6222C48.5101 43.7771 48.5818 44.0702 48.6039 44.2859C48.6204 44.5237 48.6094 44.8169 48.5708 45.0326C48.5322 45.2317 48.4329 45.5248 48.3557 45.6907C48.273 45.8511 48.091 46.0945 47.9422 46.2272C47.7988 46.36 47.5231 46.548 47.3246 46.6365C46.9992 46.7859 46.9662 46.819 46.9662 46.9684C46.9662 47.0624 47.0378 47.2505 47.1261 47.3998C47.2088 47.5436 47.3963 47.8699 47.5341 48.1299C47.672 48.3898 47.8815 48.7327 48.0083 48.8931C48.1352 49.048 48.3723 49.2803 48.5377 49.402C48.7031 49.5237 48.841 49.6675 48.841 49.7228C48.841 49.7725 48.8134 49.85 48.7748 49.8887C48.7307 49.9329 48.466 49.9551 47.8815 49.9551C47.0875 49.9606 47.0434 49.9551 46.9331 49.8334C46.8724 49.7615 46.503 49.1476 46.1115 48.4617C45.7255 47.7759 45.367 47.173 45.3174 47.1177C45.2678 47.0569 45.1851 46.9905 45.1299 46.9629C45.0417 46.9186 45.0362 46.9794 45.0527 47.9529C45.0638 48.7825 45.0858 49.0203 45.1575 49.1531C45.2071 49.2471 45.3229 49.3743 45.4167 49.4462C45.5159 49.5181 45.5876 49.6177 45.5876 49.6951C45.5931 49.7615 45.56 49.85 45.5214 49.8832C45.4663 49.9329 45.1355 49.9495 43.0235 49.9274L43.007 49.7781C43.0015 49.6564 43.0566 49.5679 43.2662 49.3633C43.4922 49.1365 43.5419 49.0535 43.5749 48.8212C43.597 48.6719 43.597 47.4993 43.5749 46.2217C43.5584 44.9441 43.5198 43.7771 43.4922 43.6222C43.4591 43.4729 43.3764 43.2572 43.3048 43.1521C43.2276 43.047 43.1228 42.8866 43.0732 42.7926C42.9904 42.6377 42.9904 42.6211 43.0842 42.5547C43.1669 42.4939 43.5584 42.4884 45.0086 42.505ZM45.1465 43.9706C45.0472 44.1089 45.0362 44.1808 45.0583 44.839C45.0748 45.3644 45.1024 45.5691 45.1575 45.5967C45.1961 45.6188 45.3891 45.652 45.5876 45.6742C45.7861 45.6963 46.0839 45.6963 46.2493 45.6742C46.4147 45.652 46.6243 45.5912 46.718 45.5414C46.8062 45.4861 46.9276 45.3589 46.9772 45.2538C47.0323 45.1487 47.0764 44.9441 47.0764 44.8003C47.0764 44.6509 47.0489 44.4684 47.0158 44.3855C46.9827 44.297 46.9055 44.1753 46.8393 44.1034C46.7732 44.0315 46.5912 43.943 46.4423 43.8987C46.2879 43.8545 46.0177 43.8102 45.8358 43.7936C45.6538 43.7826 45.4498 43.7826 45.3836 43.7992C45.3174 43.8102 45.2127 43.8877 45.1465 43.9706ZM50.3132 42.4884C50.8977 42.4884 51.4326 42.5105 51.4988 42.5381C51.5705 42.5603 51.6422 42.6211 51.6642 42.6764C51.6973 42.7373 51.6532 42.8423 51.5319 43.0027C51.4381 43.1299 51.3279 43.3346 51.2837 43.4563C51.2396 43.5945 51.19 44.1476 51.1569 44.922C51.1293 45.6078 51.1018 46.7416 51.1018 47.4385C51.1018 48.2018 51.1293 48.7991 51.1624 48.9318C51.201 49.0756 51.3223 49.2471 51.4933 49.4186C51.6422 49.5624 51.7635 49.7117 51.7635 49.7504C51.769 49.7836 51.7359 49.85 51.6973 49.8832C51.6422 49.9329 51.3058 49.9495 49.1442 49.9274L49.1277 49.7504C49.1167 49.5956 49.1442 49.5458 49.3097 49.4462C49.4144 49.3743 49.5302 49.2582 49.5688 49.1863C49.624 49.0812 49.635 48.4894 49.624 46.4208C49.6129 44.3965 49.5909 43.7217 49.5302 43.5116C49.4861 43.3622 49.3648 43.1244 49.26 42.9861C49.1498 42.8479 49.056 42.7096 49.0505 42.6709C49.045 42.6322 49.0891 42.5769 49.1498 42.5492C49.2104 42.516 49.7067 42.4939 50.3132 42.4884ZM63.0399 42.4939C63.8891 42.4884 64.81 42.516 65.0802 42.5492C65.3504 42.5824 65.6978 42.6543 65.8521 42.7151C66.001 42.7704 66.2492 42.9198 66.3925 43.0525C66.5414 43.1852 66.7234 43.4175 66.7951 43.5669C66.8668 43.7217 66.955 43.9983 66.9826 44.1919C67.0211 44.4186 67.0211 44.6509 66.9826 44.8832C66.9495 45.0713 66.8502 45.3865 66.7565 45.5857C66.6627 45.7848 66.5249 46.0226 66.4477 46.1111C66.3705 46.2051 66.2161 46.3434 66.1058 46.4263C65.9955 46.5093 65.7694 46.6199 65.604 46.6808C65.4165 46.7471 65.2952 46.819 65.2842 46.8744C65.2787 46.9297 65.4937 47.3611 65.7639 47.8423C66.0341 48.3179 66.3539 48.8378 66.4697 48.9982C66.5855 49.1531 66.751 49.3356 66.8447 49.3964C66.9329 49.4573 67.0928 49.5126 67.1866 49.5126C67.2858 49.5126 67.4402 49.4739 67.534 49.4296C67.6222 49.3854 67.738 49.2748 67.7821 49.1807C67.8538 49.0425 67.8648 48.6608 67.8648 46.819C67.8593 45.6078 67.8428 44.3689 67.8152 44.0647C67.7821 43.6222 67.7435 43.4618 67.6332 43.2627C67.556 43.1244 67.4347 42.964 67.3741 42.9032C67.3079 42.8423 67.2527 42.7594 67.2583 42.7262C67.2583 42.6875 67.2969 42.6156 67.3465 42.5713C67.4182 42.505 67.6332 42.4884 68.5872 42.4884C69.5356 42.4884 69.7562 42.505 69.8223 42.5713C69.8665 42.6156 69.9051 42.7041 69.9051 42.7649C69.9051 42.8257 69.8609 42.9142 69.8058 42.964C69.7562 43.0138 69.6679 43.0802 69.6128 43.1023C69.5632 43.1299 69.497 43.2461 69.4639 43.3622C69.4308 43.4839 69.4088 44.662 69.4088 46.2936C69.4088 48.517 69.4253 49.0425 69.486 49.1697C69.5301 49.2526 69.6404 49.3743 69.7341 49.4462C69.8609 49.5347 69.9051 49.6121 69.9051 49.7338C69.9051 49.8279 69.8885 49.9108 69.8609 49.9219C69.8389 49.9329 68.8353 49.9551 65.4386 49.9827L65.3063 49.8444C65.2346 49.767 64.832 49.0978 64.4129 48.3511C63.9994 47.6044 63.6244 46.9573 63.5803 46.9131C63.5197 46.8412 63.5086 47.0126 63.5086 49.1531L63.7568 49.4186C63.8946 49.5624 64.0049 49.6951 64.0049 49.7228C64.0049 49.7449 63.9718 49.8113 63.9277 49.8721C63.8505 49.9772 63.7954 49.9827 62.6429 49.9661C61.9812 49.9551 61.4243 49.9329 61.3967 49.9219C61.3746 49.9108 61.3581 49.8279 61.3581 49.7338C61.3581 49.6066 61.4077 49.5292 61.5897 49.3909C61.722 49.2858 61.8599 49.1088 61.9206 48.9761C62.0143 48.7493 62.0143 48.6111 61.9647 46.4595C61.9371 45.204 61.8985 44.0259 61.8875 43.8434C61.8764 43.6554 61.8213 43.4175 61.7551 43.2903C61.6945 43.1687 61.5787 43.0083 61.5015 42.9308C61.4188 42.8534 61.3526 42.7373 61.3471 42.6709C61.3416 42.6045 61.3746 42.5381 61.4188 42.5271C61.4574 42.5105 62.1907 42.4939 63.0399 42.4939ZM63.5197 44.0094C63.47 44.1089 63.4645 44.3191 63.4921 44.8003C63.5252 45.287 63.5527 45.475 63.6244 45.558C63.7071 45.6576 63.7898 45.6686 64.2641 45.6686C64.6942 45.6686 64.8486 45.6465 65.0195 45.558C65.1408 45.4972 65.2897 45.3755 65.3504 45.2925C65.422 45.193 65.4717 45.027 65.4827 44.85C65.4937 44.6509 65.4662 44.5016 65.4 44.3689C65.3448 44.2638 65.2125 44.12 65.1077 44.0481C65.003 43.9817 64.8265 43.8987 64.7217 43.8711C64.617 43.8379 64.3799 43.8047 64.1979 43.7881C64.0159 43.7771 63.8064 43.7881 63.7292 43.8158C63.652 43.8434 63.5583 43.9319 63.5197 44.0094ZM72.8276 42.4884C74.5755 42.4884 74.6252 42.4939 74.8623 42.6156C75.0553 42.7096 75.1325 42.7926 75.2152 42.9861C75.2869 43.1631 75.3089 43.2903 75.2814 43.4286C75.2648 43.5337 75.1325 43.8324 74.9891 44.0923C74.8512 44.3523 74.2557 45.4087 73.6657 46.4429C73.0757 47.4772 72.5629 48.3622 72.5188 48.4064C72.4802 48.4507 72.4416 48.5336 72.4416 48.5889C72.4416 48.6387 72.4746 48.6995 72.5077 48.7217C72.5463 48.7383 72.8992 48.7659 73.2963 48.7715C73.6878 48.7825 74.1013 48.7659 74.2061 48.7383C74.3109 48.7106 74.4984 48.5889 74.6197 48.4617C74.741 48.34 74.8843 48.2405 74.934 48.2405C74.9891 48.2405 75.0773 48.3069 75.127 48.3954C75.1986 48.506 75.2207 48.6664 75.2262 49.0148C75.2262 49.319 75.1986 49.5513 75.1435 49.673C75.0994 49.7725 75.0112 49.8832 74.9505 49.9163C74.8843 49.944 74.0738 49.9661 72.9103 49.9606C70.9858 49.9551 70.9803 49.9551 70.8535 49.8334C70.7597 49.7394 70.7211 49.6232 70.6991 49.3743C70.677 49.1531 70.6991 48.954 70.7542 48.7659C70.8039 48.6166 71.1954 47.8312 71.62 47.0237C72.0501 46.2162 72.5739 45.2538 72.7779 44.8832C72.9875 44.5071 73.1474 44.1642 73.1308 44.12C73.1088 44.0536 72.9709 44.037 72.3313 44.037C71.7909 44.037 71.5152 44.0591 71.4049 44.1144C71.3222 44.1532 71.1788 44.2804 71.0906 44.391C70.9803 44.5293 70.8866 44.5901 70.8149 44.579C70.7542 44.568 70.677 44.5016 70.6384 44.4242C70.5943 44.3357 70.5668 44.0536 70.5668 43.6498C70.5668 43.1133 70.5833 42.9861 70.677 42.8257C70.7377 42.7207 70.8425 42.599 70.9086 42.5603C71.0079 42.505 71.4656 42.4884 72.8276 42.4884ZM82.7916 42.4884C83.3872 42.4884 83.6188 42.5105 83.7456 42.5713C83.8559 42.6266 83.9331 42.7207 83.9717 42.8645C84.0158 43.0083 84.0268 43.8987 84.0158 45.8456C83.9992 48.0746 84.0103 48.6387 84.0654 48.694C84.115 48.7438 84.308 48.7659 84.6995 48.7604C85.0083 48.7604 85.3998 48.7217 85.5653 48.683C85.7417 48.6387 85.9402 48.5392 86.034 48.4507C86.1222 48.3622 86.249 48.2958 86.3097 48.2958C86.3703 48.2958 86.453 48.3234 86.4916 48.3622C86.5358 48.4119 86.5578 48.6166 86.5578 49.0037C86.5578 49.3135 86.5744 49.5679 86.5964 49.5679C86.624 49.5679 86.7288 49.5126 86.8335 49.4462C86.9383 49.3743 87.0817 49.2305 87.2802 48.9318L87.2747 43.6775L87.1423 43.401C87.0706 43.2516 86.9438 43.0359 86.8666 42.9308C86.7839 42.8257 86.7232 42.7041 86.7232 42.6709C86.7232 42.6322 86.7729 42.5769 86.8335 42.5437C86.8997 42.5105 87.7158 42.4884 88.9289 42.4884C90.4012 42.4884 90.9526 42.505 91.0574 42.5603C91.1401 42.5935 91.2393 42.693 91.2779 42.7815C91.3331 42.8866 91.3551 43.1576 91.3551 43.6941C91.3551 44.214 91.3386 44.474 91.289 44.5237C91.2504 44.5569 91.1842 44.5901 91.1346 44.5901C91.0905 44.5956 90.9526 44.5182 90.8313 44.4242C90.71 44.3301 90.4508 44.2029 90.2523 44.1421C90.0538 44.0813 89.7174 44.0149 89.5079 43.9983C89.1991 43.9706 89.0943 43.9817 88.8186 44.1476V45.5857L89.0226 45.641C89.1384 45.6686 89.3645 45.6963 89.5189 45.6963C89.7891 45.6963 89.8277 45.6797 90.0593 45.4474C90.1972 45.3091 90.3185 45.1985 90.335 45.1985C90.3516 45.1985 90.4232 45.2317 90.5004 45.2704C90.5776 45.3036 90.6438 45.3478 90.6438 45.3644C90.6493 45.381 90.6548 45.8235 90.6603 46.3489C90.6603 46.8799 90.6548 47.3279 90.6383 47.35C90.6217 47.3777 90.5556 47.4219 90.4839 47.4606C90.4177 47.4938 90.324 47.5104 90.2799 47.4938C90.2358 47.4772 90.1861 47.4164 90.1696 47.3555C90.153 47.2947 90.0648 47.173 89.9766 47.079C89.8332 46.9352 89.7671 46.9131 89.5189 46.9131C89.3645 46.9131 89.1495 46.9297 89.0447 46.9518C88.9454 46.9794 88.8407 47.0348 88.8241 47.079C88.8021 47.1232 88.8021 47.4496 88.8241 47.798C88.8627 48.34 88.8848 48.4507 88.984 48.5447C89.0833 48.6442 89.1881 48.6553 89.8553 48.6774C90.5225 48.694 90.6383 48.683 90.8313 48.5834C90.9526 48.5226 91.118 48.3843 91.2007 48.2737C91.289 48.1631 91.3882 48.0746 91.4213 48.0746C91.4599 48.0746 91.5426 48.1243 91.6033 48.1907C91.6915 48.2847 91.7191 48.4009 91.7356 48.8434C91.7466 49.1365 91.7246 49.4739 91.697 49.5956C91.6584 49.7283 91.5867 49.8444 91.5095 49.8887C91.4378 49.9274 91.3055 49.9606 91.2173 49.9606C91.1235 49.9606 89.6237 49.9495 87.8812 49.9274C86.1332 49.9053 84.1261 49.9163 83.4147 49.944C82.7034 49.9717 82.0748 49.9717 82.0197 49.9495C81.97 49.9219 81.9094 49.8444 81.8928 49.7781C81.8653 49.673 81.9094 49.6066 82.3946 49.1918V46.4651C82.3946 44.1919 82.3781 43.6886 82.3119 43.4618C82.2678 43.3125 82.1355 43.0802 82.0197 42.9474C81.9094 42.8147 81.8101 42.6875 81.8046 42.6598C81.7991 42.6266 81.8432 42.5769 81.9039 42.5492C81.959 42.516 82.3615 42.4939 82.7916 42.4884ZM39.908 8.63932H43.0511V11.8472H39.908V8.63932ZM44.4296 8.63932H47.6223L47.6003 11.8196L44.4296 11.8472V8.63932ZM39.908 13.1193H43.0511V16.3273H39.908V13.1193ZM44.4296 13.1193H47.6223L47.6003 16.2996L44.4296 16.3273V13.1193Z" fill="white"/>
</svg>
