<svg width="92" height="50" viewBox="0 0 92 50" fill="none" xmlns="http://www.w3.org/2000/svg">
<path id="Path 0" fill-rule="evenodd" clip-rule="evenodd" d="M43.5699 7.84956e-05C43.603 0.0222021 47.8985 2.55535 62.5993 11.2278L62.6269 26.0616L64.9263 28.1468C66.1945 29.2917 67.2367 30.2596 67.2422 30.3038C67.2532 30.3536 67.1926 30.3757 67.0492 30.3757C66.9389 30.3702 66.2497 30.3149 64.1874 30.1268L63.9447 29.9277C63.8124 29.8171 61.6674 28.003 59.1805 25.9012C56.2745 23.451 54.5045 21.9909 54.2178 21.8194C53.9751 21.6756 53.5616 21.471 53.2969 21.377C53.0322 21.2774 52.6297 21.1557 52.4091 21.1059C52.1941 21.0617 51.775 21.0064 51.4883 20.9898C51.196 20.9732 50.7494 20.9898 50.4681 21.0285C50.1979 21.0617 49.7678 21.1557 49.5142 21.2276C49.266 21.2995 48.8801 21.4489 48.6595 21.5539C48.4444 21.659 48.1136 21.8416 47.9316 21.9632C47.7497 22.0849 46.338 23.2464 44.7886 24.5406C43.2391 25.8404 41.9432 26.93 41.9046 26.9632C41.844 27.0185 42.1307 27.295 43.2666 28.3016C44.0552 29.0041 44.7003 29.6014 44.7058 29.629C44.7058 29.6622 44.375 30.066 43.9614 30.5306C43.5534 30.9896 43.195 31.3713 43.1619 31.3713C43.1288 31.3713 41.7833 30.1932 40.1677 28.7552C38.5575 27.3227 36.8978 25.8459 36.4897 25.4864C36.0817 25.1269 35.5964 24.7508 35.4145 24.6512C35.2325 24.5517 34.9237 24.4134 34.7252 24.347C34.4826 24.2641 34.1683 24.2143 33.7602 24.1977C33.2529 24.1701 33.0765 24.1867 32.685 24.2862C32.4258 24.3526 32.0674 24.4798 31.8854 24.5683C31.6869 24.6678 30.0106 25.9455 27.6505 27.8039C25.5055 29.4908 23.741 30.8735 23.7245 30.8735C23.7079 30.8735 23.162 30.6523 22.5113 30.3757C21.6842 30.0273 21.3313 29.8558 21.3368 29.8005C21.3479 29.7563 22.2301 29.0317 25.2409 26.67L25.2684 11.6647L34.3888 5.81304C39.4067 2.59959 43.5368 -0.0165142 43.5699 7.84956e-05ZM27.6947 12.9424C27.6671 23.6889 27.6726 24.7508 27.7333 24.701C27.7719 24.6678 28.2681 24.2751 28.8361 23.8327C29.4096 23.3847 30.0161 22.9256 30.1871 22.8039C30.3635 22.6878 30.6558 22.5163 30.8377 22.4223C31.0197 22.3338 31.3561 22.1955 31.5821 22.1181C31.8082 22.0407 32.2328 21.9356 32.5195 21.8803C32.9111 21.8139 33.2419 21.7973 33.8154 21.8194C34.4054 21.8416 34.7197 21.8803 35.1388 21.9909C35.4586 22.0739 35.9438 22.2619 36.2967 22.4389C36.6331 22.6048 37.0412 22.8426 37.2121 22.9754C37.383 23.1081 38.0668 23.6944 38.7285 24.2862C39.3957 24.8725 39.9692 25.3647 40.0023 25.3758C40.0409 25.3869 41.4084 24.2751 43.035 22.9035C44.6672 21.5318 46.1891 20.2763 46.4152 20.1104C46.6413 19.9445 47.1266 19.6624 47.4905 19.4799C47.8544 19.2973 48.3397 19.0872 48.5658 19.0153C48.7918 18.9378 49.2385 18.8217 49.5583 18.7553C50.0491 18.6447 50.2972 18.6281 51.2125 18.6281C52.1169 18.6281 52.376 18.6502 52.8392 18.7498C53.1425 18.8217 53.6167 18.9489 53.8869 19.0429C54.1571 19.1369 54.6699 19.3582 55.0173 19.5407C55.3647 19.7232 55.861 20.033 56.1201 20.2265C56.3793 20.4201 57.4049 21.3272 58.4085 22.2343L60.2282 23.888C60.2503 13.8494 60.2392 12.6382 60.1841 12.5884C60.151 12.5552 56.4179 10.3484 51.9018 7.68248C47.3857 5.01659 43.6471 2.82636 43.603 2.80977C43.5534 2.7987 40.107 4.97234 35.6075 7.865L27.6947 12.9424ZM51.1574 29.8337C51.4772 29.8282 51.9845 29.8613 52.2878 29.9056C52.5911 29.9554 53.0488 30.0549 53.3079 30.1324C53.5671 30.2098 54.0358 30.3868 54.3556 30.525C54.6754 30.6633 55.1662 30.9067 55.4474 31.0615C55.7286 31.2164 55.9547 31.3602 55.9547 31.3879C55.9547 31.41 55.9382 31.4376 55.9106 31.4542C55.8885 31.4653 55.5246 31.4045 55.1 31.3104C54.6754 31.2164 54.0689 31.1058 53.7491 31.0615C53.4292 31.0173 52.8723 30.9786 52.5084 30.9786C52.1444 30.9786 51.6371 31.0173 51.378 31.0615C51.1188 31.1058 50.7328 31.1998 50.5233 31.2607C50.3082 31.327 49.9277 31.4542 49.6686 31.5483C49.4094 31.6423 48.8745 31.8635 48.483 32.035C48.086 32.212 46.9115 32.754 45.8638 33.2407C44.8161 33.7274 43.4762 34.3358 42.8862 34.5958C42.2962 34.8502 41.6124 35.1489 40.9286 35.431L41.1768 35.5028C41.3146 35.5471 41.7833 35.6522 42.2245 35.7407C42.6656 35.8292 43.3438 35.9453 43.7409 35.9951C44.2426 36.0615 44.8657 36.0947 45.8362 36.0947C46.8619 36.0947 47.3912 36.0725 47.904 36.0006C48.2845 35.9453 48.8801 35.8402 49.2274 35.7628C49.5748 35.6854 50.22 35.5028 50.6611 35.3535C51.1023 35.2097 52.5911 34.6622 53.9696 34.1367C55.3482 33.6168 57.0465 32.9808 57.7468 32.7263C58.4416 32.4719 59.3845 32.1511 59.8422 32.0129C60.2944 31.8691 60.9064 31.6921 61.1932 31.6202C61.4799 31.5483 61.9541 31.4432 62.2409 31.3934C62.5938 31.327 63.0514 31.2938 63.647 31.2938C64.2866 31.2938 64.6561 31.316 64.9979 31.3879C65.2571 31.4432 65.7258 31.5759 66.0456 31.681C66.3655 31.7861 67.0051 32.0682 67.4738 32.3005C67.937 32.5328 68.345 32.7706 68.3671 32.8259C68.4057 32.8923 68.3947 32.9199 68.334 32.9199C68.2899 32.9199 68.0197 32.8701 67.7385 32.8038C67.4628 32.7429 66.972 32.6434 66.6522 32.5825C66.3324 32.5217 65.7148 32.4553 65.2737 32.4387C64.6561 32.4111 64.3418 32.4277 63.8951 32.5051C63.5753 32.5549 62.9577 32.7153 62.5166 32.8646C62.0754 33.0084 61.3807 33.2794 60.9726 33.462C60.5646 33.6445 59.4948 34.1312 58.6015 34.5515C57.7082 34.9664 56.5282 35.5084 55.9823 35.7517C55.4364 35.9951 54.5321 36.3878 53.9696 36.6256C53.4072 36.8579 52.5745 37.1898 52.1224 37.3612C51.6647 37.5272 51.0692 37.7318 50.799 37.8092C50.5288 37.8867 49.9939 38.0083 49.6134 38.0858C49.233 38.1632 48.5988 38.2628 48.2073 38.3125C47.8103 38.3568 47.0328 38.3955 46.4704 38.3955C45.9079 38.3955 45.1249 38.3568 44.7334 38.3125C44.3364 38.2683 43.6912 38.1632 43.2997 38.0858C42.9027 38.0028 42.2576 37.8479 41.866 37.7318C41.469 37.6156 40.8514 37.4055 40.4875 37.2617C40.1236 37.1234 39.517 36.8579 38.4473 36.3435L37.758 36.515C37.3775 36.6035 36.7213 36.7362 36.2967 36.8026C35.6461 36.9022 35.2932 36.9243 34.0635 36.9243C32.9331 36.9298 32.4534 36.9077 31.9406 36.8303C31.5766 36.775 30.9921 36.6699 30.6447 36.5924C30.2973 36.5205 29.7128 36.3657 29.3489 36.2606C28.985 36.15 28.3398 35.9287 27.9152 35.7573C27.4906 35.5913 26.7683 35.265 26.3161 35.0272C25.8584 34.7949 25.1802 34.4022 24.7997 34.1644C24.4192 33.921 23.7741 33.473 23.366 33.1633C22.958 32.848 22.368 32.3668 22.0537 32.0792C21.7449 31.7972 21.2541 31.3049 20.9674 30.9841C20.6806 30.6633 20.4435 30.3702 20.4435 30.337C20.4435 30.2983 20.4656 30.2651 20.4987 30.2651C20.5318 30.2651 20.8185 30.4366 21.1438 30.6467C21.4747 30.8569 22.0757 31.2164 22.4838 31.4542C22.8918 31.6921 23.5204 32.0294 23.8733 32.2064C24.2318 32.389 24.8659 32.6766 25.2795 32.8591C25.6985 33.0361 26.3216 33.285 26.658 33.4122C26.9999 33.5339 27.6616 33.7496 28.1192 33.8823C28.5824 34.0206 29.3324 34.2031 29.79 34.2916C30.2422 34.3856 30.937 34.4962 31.334 34.546C31.7255 34.5903 32.4093 34.6456 32.8504 34.6677C33.3136 34.6898 34.0084 34.6732 34.5046 34.6345C34.9733 34.6013 35.42 34.5571 35.4972 34.5405C35.624 34.5128 35.6075 34.4852 35.2215 34.1754C34.9954 33.9929 34.3778 33.4122 33.854 32.8812C33.2309 32.2507 32.9111 31.8912 32.9221 31.8303C32.9331 31.775 32.9607 31.7363 32.9938 31.7418C33.0213 31.7474 33.3522 31.9465 33.7327 32.1898C34.1131 32.4277 34.7914 32.837 35.2491 33.0914C35.7012 33.3403 36.3574 33.6832 36.6938 33.8436C37.0356 34.004 37.361 34.1367 37.4106 34.1367C37.4657 34.1367 37.6808 34.0869 37.8959 34.0206C38.1054 33.9542 38.938 33.6611 39.7431 33.3624C40.5482 33.0637 42.1362 32.4664 43.2722 32.035C44.4081 31.6036 45.9245 31.056 46.6358 30.8182C47.3471 30.5804 48.2294 30.3093 48.5933 30.2153C48.9573 30.1268 49.4646 30.0107 49.7237 29.9664C49.9829 29.9222 50.2807 29.8724 50.3854 29.8613C50.4902 29.8503 50.8376 29.8392 51.1574 29.8337ZM57.0686 42.4441C57.245 42.4386 57.631 42.4607 57.9233 42.4939C58.221 42.5271 58.6511 42.6156 58.8772 42.693C59.1033 42.7649 59.39 42.8866 59.5114 42.9585C59.6327 43.0304 59.8477 43.2074 59.9856 43.3567C60.1234 43.5005 60.2999 43.7328 60.3826 43.8711C60.4598 44.0094 60.5866 44.2859 60.6638 44.4961C60.7465 44.7007 60.8348 44.9828 60.8678 45.1321C60.9009 45.2759 60.9285 45.641 60.923 45.9452C60.923 46.3047 60.8733 46.7471 60.7851 47.2173C60.6914 47.6874 60.5811 48.0635 60.4708 48.2958C60.3495 48.5392 60.1675 48.7825 59.9029 49.0425C59.6878 49.2582 59.3625 49.5071 59.1805 49.6066C58.9985 49.7006 58.7118 49.8168 58.5464 49.8666C58.2982 49.9385 57.9398 49.9551 56.4896 49.9551C54.7857 49.9551 54.7416 49.9551 54.714 49.8444C54.6975 49.7836 54.6975 49.6896 54.714 49.6398C54.7306 49.5845 54.8133 49.496 54.907 49.4462C54.9953 49.3909 55.1111 49.2914 55.1552 49.225C55.1993 49.1531 55.2434 48.9595 55.2544 48.7936C55.2599 48.6276 55.2434 47.433 55.2213 46.1387C55.1993 44.8169 55.1497 43.6554 55.1166 43.4839C55.0725 43.2516 55.0008 43.1244 54.8298 42.9419C54.6423 42.7428 54.6148 42.6819 54.6644 42.61C54.7195 42.5271 54.8739 42.5105 55.7397 42.4884C56.2966 42.4718 56.8976 42.4496 57.0686 42.4441ZM56.666 46.4208L56.6716 48.6276C56.9307 48.7936 57.0796 48.8212 57.3608 48.8212C57.6531 48.8157 57.8185 48.7825 58.0501 48.6774C58.2155 48.6 58.4361 48.4617 58.5409 48.3732C58.6456 48.2847 58.7835 48.0967 58.8552 47.9529C58.9269 47.8035 59.0261 47.5436 59.0702 47.3721C59.1199 47.1951 59.1695 46.8025 59.1915 46.4983C59.2081 46.1553 59.197 45.8014 59.1584 45.558C59.1198 45.3478 59.0371 45.0492 58.971 44.8998C58.9048 44.7505 58.7504 44.5403 58.6236 44.4297C58.5023 44.3191 58.2652 44.1863 58.0997 44.131C57.9067 44.0702 57.6365 44.037 57.3222 44.037C56.9638 44.037 56.8204 44.0591 56.7543 44.1255C56.6716 44.2029 56.666 44.4408 56.666 46.4208ZM80.3273 42.4773C80.4321 42.4884 80.592 42.5381 80.6857 42.5934C80.7739 42.6432 80.8953 42.7704 80.9504 42.8755C81.0221 43.0193 81.0441 43.1521 81.0276 43.3733C81.0111 43.6388 80.9283 43.8158 80.4376 44.7007C80.1233 45.2649 79.5167 46.3323 79.0866 47.079C78.6565 47.8257 78.2871 48.4783 78.2705 48.5336C78.243 48.5945 78.265 48.6442 78.3257 48.6774C78.3808 48.7051 78.7337 48.7438 79.1142 48.7659C79.7483 48.8046 79.8255 48.7936 80.0626 48.6885C80.2115 48.6276 80.3824 48.4949 80.4486 48.4064C80.5368 48.2903 80.6196 48.2405 80.7243 48.2405C80.8291 48.2405 80.9008 48.2847 80.9449 48.3677C80.9835 48.4341 81.0111 48.7161 81.0166 49.0203C81.0166 49.3467 80.989 49.6011 80.9449 49.684C80.9063 49.7559 80.8236 49.85 80.7519 49.8942C80.6526 49.9551 80.2832 49.9717 78.7833 49.9606C77.3221 49.9495 76.8975 49.9329 76.7541 49.8666C76.6604 49.8223 76.528 49.7062 76.4619 49.6121C76.3792 49.4683 76.3571 49.3743 76.3792 49.1807C76.4012 49.0314 76.5501 48.6608 76.7596 48.2405C76.9526 47.8589 77.5371 46.7693 78.0555 45.8235C78.5793 44.8722 79.0039 44.0813 79.0039 44.0647C79.0039 44.0481 78.5958 44.0425 77.1787 44.0647L76.9306 44.3302C76.7982 44.474 76.6549 44.5901 76.6163 44.5901C76.5832 44.5901 76.506 44.5624 76.4564 44.5237C76.3792 44.4684 76.3571 44.3191 76.324 43.7881C76.2964 43.3401 76.3075 43.058 76.3516 42.9198C76.3847 42.7981 76.4784 42.6654 76.5611 42.6156C76.6935 42.5271 76.9196 42.5105 78.4249 42.4828C79.3623 42.4662 80.2225 42.4607 80.3273 42.4773ZM1.53549 42.4884C2.56112 42.4884 2.63832 42.4939 2.74309 42.599C2.83683 42.693 2.84235 42.7262 2.78169 42.8147C2.74861 42.87 2.64384 43.0138 2.55009 43.1299C2.38467 43.3346 2.38467 43.3401 2.34056 44.3357C2.30747 45.0602 2.31299 45.3534 2.3571 45.3921C2.40121 45.4308 2.44532 45.4087 2.51149 45.3257C2.56112 45.2538 2.84786 44.7947 3.14562 44.3025C3.4489 43.8047 3.78527 43.2406 3.90106 43.0415C4.03892 42.8092 4.17677 42.6488 4.29808 42.5879C4.44697 42.505 4.62342 42.4884 5.29063 42.4884C6.07364 42.4884 6.11224 42.4939 6.18944 42.6156C6.24458 42.693 6.25561 42.776 6.23355 42.8423C6.20598 42.9032 6.04056 43.0636 5.85859 43.2018C5.67662 43.3456 5.41194 43.6111 5.27409 43.7881C5.13072 43.9706 4.84398 44.4076 4.63445 44.756C4.42491 45.1045 4.17126 45.5027 4.07752 45.641C3.98378 45.7792 3.89004 45.9507 3.87349 46.0281C3.85144 46.1222 3.89004 46.2549 3.9948 46.4485C4.07752 46.6033 4.34771 47.0956 4.59033 47.5436C4.83296 47.9916 5.15278 48.5281 5.30717 48.7272C5.45606 48.9319 5.72625 49.2029 5.89719 49.3301C6.18393 49.5402 6.21701 49.5845 6.18944 49.9274L5.38989 49.9661C4.82744 49.9882 4.55173 49.9827 4.45248 49.9385C4.37528 49.8997 4.1878 49.6785 4.03892 49.4462C3.88452 49.2084 3.46544 48.5613 2.44532 46.996L2.39018 47.4385C2.36261 47.6819 2.33504 48.1299 2.33504 48.4396C2.32953 48.9595 2.34056 49.0093 2.47841 49.2139C2.56112 49.3301 2.68243 49.4905 2.7486 49.5679C2.84234 49.684 2.85337 49.7283 2.80374 49.8334C2.74309 49.9551 2.73206 49.9551 1.56858 49.9551C0.697338 49.9551 0.383031 49.9385 0.327889 49.8887C0.28929 49.85 0.261719 49.7725 0.261719 49.7228C0.261719 49.6675 0.372002 49.5181 0.509856 49.3909C0.64771 49.2582 0.791077 49.0646 0.829676 48.9595C0.87379 48.8212 0.890332 48.3069 0.873789 47.2173C0.868275 46.3655 0.840704 45.1819 0.818647 44.5901C0.780048 43.5724 0.769022 43.495 0.631168 43.224C0.548456 43.0636 0.454714 42.9198 0.427144 42.9032C0.394059 42.8866 0.344431 42.8257 0.31686 42.7649C0.278261 42.6819 0.283774 42.6322 0.349944 42.5713C0.421628 42.505 0.631166 42.4884 1.53549 42.4884ZM7.85471 42.4884C8.48884 42.4884 9.02372 42.5105 9.08437 42.5437C9.1579 42.5805 9.19466 42.6543 9.19466 42.7649C9.19466 42.8976 9.15054 42.964 8.97409 43.0857C8.84726 43.1687 8.72595 43.2959 8.69838 43.3733C8.67632 43.4507 8.63772 44.12 8.62669 44.8666C8.61015 45.6133 8.62118 46.5702 8.64324 46.996C8.67081 47.4662 8.72595 47.8699 8.78109 48.0192C8.83072 48.1575 8.93549 48.34 9.01821 48.423C9.10092 48.5115 9.22774 48.6166 9.30494 48.6553C9.38214 48.694 9.53102 48.7383 9.63579 48.7604C9.74056 48.7825 9.96664 48.7659 10.1321 48.7327C10.3692 48.683 10.485 48.6166 10.6614 48.4396C10.7993 48.3069 10.9151 48.1243 10.9537 47.9916C10.9923 47.8478 11.0143 47.0513 11.0143 45.7129C11.0143 43.9762 11.0033 43.6167 10.9316 43.4452C10.882 43.3291 10.7496 43.141 10.6394 43.0249C10.4574 42.8423 10.4409 42.8036 10.4905 42.6653C10.5456 42.5215 10.5622 42.516 10.9592 42.516C11.1853 42.5215 11.7808 42.5326 12.2826 42.5437C12.7844 42.5603 14.0085 42.5492 15.0121 42.5215C16.5947 42.4828 16.8869 42.4884 17.2453 42.5658C17.4714 42.6156 17.7967 42.7207 17.9622 42.8036C18.1386 42.8866 18.4198 43.1023 18.6239 43.3125C18.8555 43.5448 19.0485 43.8047 19.1587 44.037C19.2525 44.2361 19.3738 44.5569 19.4289 44.756C19.5116 45.0381 19.5282 45.3036 19.5282 46.0005C19.5227 46.5923 19.4951 47.0126 19.4344 47.2726C19.3903 47.4883 19.2966 47.798 19.2359 47.9639C19.1753 48.1299 19.0264 48.4175 18.9106 48.6C18.7948 48.7825 18.5853 49.0425 18.4529 49.1752C18.3206 49.3079 18.0835 49.5015 17.9346 49.5956C17.7802 49.6951 17.5321 49.8168 17.3832 49.8666C17.1461 49.9495 16.8593 49.9606 15.2878 49.9551C13.9203 49.9551 13.4571 49.9329 13.4295 49.8832C13.4075 49.85 13.3854 49.767 13.3854 49.7062C13.3854 49.6453 13.4847 49.5071 13.8541 49.1918L13.8707 46.6808C13.8872 44.2638 13.8817 44.1587 13.7659 43.6498C13.6722 43.2516 13.6115 43.0912 13.5012 42.9917C13.3909 42.8866 13.3248 42.8645 13.1924 42.8976C13.0987 42.9142 12.9663 42.9751 12.8891 43.0304C12.8119 43.0857 12.7072 43.2184 12.6575 43.3235C12.5693 43.495 12.5583 43.7273 12.5583 45.6963C12.5583 47.4662 12.5417 47.9418 12.4756 48.2018C12.4315 48.3732 12.3377 48.6221 12.2716 48.7549C12.2109 48.8821 12.0289 49.1199 11.8745 49.2803C11.7036 49.4628 11.4555 49.6453 10.8765 49.9274H8.89138L8.51641 49.7504C8.31239 49.6509 8.02014 49.4518 7.86575 49.3079C7.71135 49.1586 7.52387 48.9429 7.45218 48.8212C7.3805 48.6996 7.28124 48.4396 7.23162 48.2405C7.1489 47.9308 7.13236 47.5768 7.13236 45.7239C7.12684 43.6333 7.12133 43.5614 7.01105 43.3456C6.94488 43.224 6.82908 43.0415 6.74637 42.9474C6.66917 42.8479 6.59749 42.7317 6.59197 42.693C6.58646 42.6543 6.61403 42.5934 6.65814 42.5547C6.71328 42.5105 7.06619 42.4884 7.85471 42.4884ZM15.376 44.1089C15.3374 44.1532 15.3209 44.9385 15.3154 46.4153C15.3099 48.506 15.3154 48.6608 15.4091 48.7272C15.4643 48.7604 15.6187 48.8102 15.7565 48.8268C15.8944 48.8489 16.126 48.8378 16.2803 48.7991C16.4292 48.7659 16.6774 48.6774 16.8318 48.6055C16.9806 48.5281 17.2012 48.3677 17.3115 48.246C17.4549 48.0911 17.5596 47.8976 17.6423 47.621C17.7526 47.2671 17.7692 47.0956 17.7692 46.2494C17.7692 45.3257 17.7637 45.2704 17.6258 44.9773C17.5486 44.8113 17.4108 44.5901 17.3225 44.4905C17.2343 44.3855 17.0358 44.2417 16.8869 44.1698C16.6829 44.0702 16.4954 44.0259 16.1701 44.0149C15.9274 43.9983 15.6628 44.0038 15.5801 44.0204C15.5029 44.0315 15.4091 44.0757 15.376 44.1089ZM22.5665 42.4884C23.7024 42.4828 23.7906 42.4939 23.9285 42.599C24.0443 42.6819 24.1215 42.8368 24.2428 43.224C24.331 43.5005 24.5902 44.4297 24.8273 45.2815C25.0589 46.1332 25.3953 47.3279 25.5772 47.9363C25.7592 48.5447 25.9412 49.1144 25.9742 49.2029C26.0128 49.2914 26.1066 49.4075 26.1893 49.4683C26.283 49.5236 26.3437 49.6177 26.3437 49.6951C26.3437 49.7615 26.3161 49.85 26.2775 49.8887C26.2279 49.9385 25.9412 49.9551 25.2464 49.9551C24.4192 49.9606 24.2649 49.944 24.1932 49.8721C24.1215 49.7891 24.1215 49.756 24.2318 49.5347C24.3034 49.402 24.3586 49.1918 24.3586 49.0701C24.3586 48.9484 24.309 48.7493 24.2483 48.6276C24.1877 48.506 24.0553 48.3511 23.9561 48.2847C23.7961 48.1686 23.7079 48.1575 22.9249 48.1409C22.3073 48.1299 22.0316 48.1465 21.9324 48.2018C21.8441 48.246 21.7504 48.3843 21.6677 48.5889C21.6015 48.7604 21.5298 49.0093 21.5133 49.142C21.4802 49.3301 21.4967 49.4075 21.596 49.5402C21.6622 49.6343 21.7118 49.7559 21.7008 49.8168C21.6842 49.9219 21.6401 49.9274 19.5888 49.9274L19.5723 49.7615C19.5558 49.6232 19.5833 49.5734 19.7488 49.4739C19.859 49.402 19.9804 49.2803 20.0245 49.1973C20.0631 49.1088 20.1513 48.7936 20.2175 48.4894C20.2836 48.1852 20.4601 47.5159 20.609 46.996C20.7634 46.4817 21.0225 45.6078 21.1935 45.0602C21.392 44.4242 21.5133 43.9264 21.5298 43.6775C21.5574 43.3014 21.5519 43.2793 21.3589 43.0027C21.2486 42.8423 21.1549 42.6875 21.1494 42.6598C21.1438 42.6266 21.188 42.5769 21.2486 42.5492C21.3093 42.516 21.8552 42.4884 22.5665 42.4884ZM22.2412 46.4706C22.2136 46.6033 22.2301 46.7029 22.2853 46.7914C22.368 46.902 22.4176 46.9131 22.8973 46.9131C23.3495 46.9131 23.4377 46.8965 23.5315 46.8025L23.6418 46.6918C23.3826 45.7295 23.2282 45.1874 23.1345 44.8666C23.0462 44.5459 22.9635 44.2748 22.958 44.2693C22.9525 44.2582 22.7981 44.7062 22.6106 45.2649C22.4286 45.818 22.2577 46.3655 22.2412 46.4706ZM28.1082 42.4884C28.6045 42.4884 28.7865 42.5105 28.9353 42.5879C29.0732 42.6543 29.1504 42.7428 29.1945 42.8921C29.2386 43.0138 29.2662 43.401 29.2662 43.86C29.2662 44.2748 29.2441 45.0768 29.2166 45.641C29.1835 46.2051 29.1559 46.9518 29.1559 47.3002C29.1559 47.6708 29.1173 48.0856 29.0677 48.2958C29.0236 48.4949 28.9078 48.8046 28.8195 48.9872C28.7258 49.1697 28.5824 49.3964 28.4942 49.4849C28.406 49.579 28.1909 49.7228 28.0145 49.8113C27.7663 49.9385 27.6009 49.9772 27.2811 49.9938C27.0109 50.0104 26.8234 49.9938 26.7297 49.944C26.658 49.9053 26.5643 49.7725 26.5146 49.6509C26.454 49.4739 26.4485 49.3909 26.4981 49.225C26.5532 49.0425 26.6194 48.9872 26.9558 48.8102C27.1763 48.694 27.3969 48.5392 27.452 48.4617C27.5017 48.3843 27.5899 48.2294 27.634 48.1188C27.7057 47.9418 27.7222 47.6266 27.7222 46.1553C27.7222 44.7947 27.7002 44.2804 27.634 43.8711C27.5844 43.5835 27.4851 43.2074 27.4134 43.0415C27.3362 42.8755 27.2756 42.7096 27.2701 42.6709C27.2646 42.6322 27.3087 42.5769 27.3693 42.5492C27.4245 42.516 27.7608 42.4939 28.1082 42.4884ZM32.8063 42.505C33.9753 42.516 34.069 42.5215 34.1738 42.6266C34.2455 42.6985 34.3999 43.141 34.6149 43.8711C34.7969 44.4961 35.0836 45.4529 35.2491 46.0005C35.4145 46.548 35.6185 47.2726 35.6957 47.6044C35.7729 47.9418 35.8722 48.3234 35.9218 48.4617C35.9659 48.6 36.0266 48.8102 36.0596 48.9318C36.0872 49.0535 36.1423 49.2139 36.181 49.2914C36.2306 49.402 36.2912 49.4352 36.4897 49.4462C36.6331 49.4518 36.771 49.4296 36.8151 49.3909C36.8537 49.3522 36.9419 49.2195 37.0026 49.0978C37.1073 48.8821 37.1128 48.8046 37.0798 46.8854C37.0632 45.7903 37.0191 44.6343 36.986 44.3136C36.9584 43.9928 36.9033 43.6001 36.8757 43.4452C36.8316 43.2184 36.7765 43.1078 36.6276 42.9751C36.5228 42.8755 36.4346 42.7538 36.4346 42.7096C36.4346 42.6653 36.4622 42.5935 36.5008 42.5603C36.5504 42.505 36.9474 42.4884 38.1164 42.4884C39.1145 42.4884 39.8368 42.516 40.1567 42.5603C40.4379 42.6045 40.7963 42.7041 40.9838 42.787C41.1657 42.87 41.4359 43.0304 41.5903 43.1465C41.7392 43.2572 41.9818 43.5226 42.1252 43.7383C42.2631 43.9485 42.4285 44.2693 42.4891 44.4518C42.5553 44.6454 42.627 45.0879 42.6656 45.5027C42.7097 46.0115 42.7097 46.3766 42.6711 46.7471C42.638 47.0348 42.5608 47.4496 42.4947 47.6597C42.434 47.8754 42.2906 48.2073 42.1804 48.4064C42.0701 48.6111 41.8054 48.9429 41.5683 49.1863C41.2981 49.4573 41.0334 49.6619 40.4875 49.9274L37.4823 49.944C34.8079 49.9606 34.4716 49.9551 34.4054 49.8776C34.3502 49.8057 34.3613 49.7504 34.4495 49.5679C34.5102 49.4462 34.5598 49.2526 34.5598 49.142C34.5598 49.0259 34.5102 48.8323 34.455 48.7106C34.3944 48.5889 34.2565 48.4064 33.9532 48.1299H33.2474C32.8614 48.1299 32.4479 48.1575 32.3266 48.1907C32.2052 48.2239 32.0398 48.3179 31.9516 48.3954C31.8689 48.4783 31.7862 48.6332 31.7641 48.7383C31.7476 48.8489 31.7751 49.1033 31.8303 49.3467C31.8854 49.5734 31.913 49.8057 31.8964 49.861C31.8634 49.944 31.7696 49.9551 30.8598 49.944C29.9941 49.9274 29.8507 49.9163 29.7956 49.8334C29.7459 49.7615 29.779 49.6896 29.9665 49.4462C30.0933 49.2858 30.2477 49.0203 30.3084 48.8655C30.3745 48.7051 30.4738 48.34 30.5345 48.0635C30.6006 47.7814 30.7881 47.1288 30.959 46.6089C31.1245 46.0945 31.3726 45.2372 31.5049 44.7173C31.6373 44.1919 31.7476 43.7162 31.7476 43.6664C31.7476 43.6111 31.7255 43.4784 31.6924 43.3733C31.6649 43.2682 31.5766 43.0857 31.4994 42.9751C31.4222 42.8589 31.3561 42.7317 31.3505 42.6875C31.345 42.6432 31.3891 42.5769 31.4498 42.5492C31.516 42.5105 32.0122 42.4939 32.8063 42.505ZM38.5851 44.12C38.5465 44.1587 38.53 44.8611 38.53 46.4042C38.53 47.6266 38.541 48.6553 38.5576 48.683C38.5741 48.7161 38.7175 48.7659 38.8719 48.7991C39.0869 48.8489 39.2413 48.8489 39.4508 48.7991C39.6108 48.7659 39.8424 48.6885 39.9637 48.6276C40.085 48.5668 40.2669 48.4341 40.3662 48.34C40.4655 48.2405 40.6143 48.0082 40.7026 47.8257C40.7908 47.6432 40.8955 47.3224 40.9397 47.1067C40.9948 46.8356 41.0169 46.5204 40.9948 46.0558C40.9783 45.5912 40.9397 45.3091 40.868 45.1155C40.8073 44.9662 40.675 44.7284 40.5702 44.5956C40.4434 44.4408 40.2614 44.3025 40.0464 44.2029C39.8589 44.1144 39.5832 44.037 39.4122 44.0204C39.2468 44.0094 39.0042 44.0149 38.8774 44.0315C38.7505 44.0481 38.6182 44.0923 38.5851 44.12ZM32.7401 45.4197C32.6795 45.7073 32.5692 46.1166 32.503 46.3268L32.3817 46.7029C32.6353 46.902 32.7456 46.9186 33.1647 46.9131C33.5341 46.9131 33.6941 46.8909 33.7547 46.8301C33.8043 46.7859 33.8429 46.7029 33.8429 46.6531C33.8429 46.5978 33.7051 46.0945 33.5397 45.5303C33.3798 44.9662 33.2198 44.4463 33.1923 44.3689C33.1482 44.2417 33.1371 44.2527 33.0048 44.5624C32.9276 44.745 32.8063 45.1321 32.7401 45.4197ZM45.0091 42.505C46.3656 42.5215 46.906 42.5492 47.1321 42.61C47.2975 42.6543 47.5346 42.7373 47.6559 42.7981C47.7772 42.8534 47.9757 43.0027 48.097 43.1244C48.2128 43.2461 48.3672 43.4729 48.4389 43.6222C48.5106 43.7771 48.5823 44.0702 48.6043 44.2859C48.6209 44.5237 48.6099 44.8169 48.5713 45.0326C48.5327 45.2317 48.4334 45.5248 48.3562 45.6907C48.2735 45.8511 48.0915 46.0945 47.9426 46.2272C47.7993 46.36 47.5236 46.548 47.3251 46.6365C46.9997 46.7859 46.9666 46.819 46.9666 46.9684C46.9666 47.0624 47.0383 47.2505 47.1266 47.3998C47.2093 47.5436 47.3968 47.8699 47.5346 48.1299C47.6725 48.3898 47.882 48.7327 48.0088 48.8931C48.1356 49.048 48.3728 49.2803 48.5382 49.402C48.7036 49.5237 48.8415 49.6675 48.8415 49.7228C48.8415 49.7725 48.8139 49.85 48.7753 49.8887C48.7312 49.9329 48.4665 49.9551 47.882 49.9551C47.088 49.9606 47.0438 49.9551 46.9336 49.8334C46.8729 49.7615 46.5035 49.1476 46.1119 48.4617C45.726 47.7759 45.3675 47.173 45.3179 47.1177C45.2683 47.0569 45.1856 46.9905 45.1304 46.9629C45.0422 46.9186 45.0367 46.9794 45.0532 47.9529C45.0643 48.7825 45.0863 49.0203 45.158 49.1531C45.2076 49.2471 45.3234 49.3743 45.4172 49.4462C45.5164 49.5181 45.5881 49.6177 45.5881 49.6951C45.5936 49.7615 45.5605 49.85 45.5219 49.8832C45.4668 49.9329 45.1359 49.9495 43.024 49.9274L43.0075 49.7781C43.002 49.6564 43.0571 49.5679 43.2666 49.3633C43.4927 49.1365 43.5424 49.0535 43.5754 48.8212C43.5975 48.6719 43.5975 47.4993 43.5754 46.2217C43.5589 44.9441 43.5203 43.7771 43.4927 43.6222C43.4596 43.4729 43.3769 43.2572 43.3052 43.1521C43.228 43.047 43.1233 42.8866 43.0736 42.7926C42.9909 42.6377 42.9909 42.6211 43.0847 42.5547C43.1674 42.4939 43.5589 42.4884 45.0091 42.505ZM45.147 43.9706C45.0477 44.1089 45.0367 44.1808 45.0587 44.839C45.0753 45.3644 45.1029 45.5691 45.158 45.5967C45.1966 45.6188 45.3896 45.652 45.5881 45.6742C45.7866 45.6963 46.0844 45.6963 46.2498 45.6742C46.4152 45.652 46.6248 45.5912 46.7185 45.5414C46.8067 45.4861 46.928 45.3589 46.9777 45.2538C47.0328 45.1487 47.0769 44.9441 47.0769 44.8003C47.0769 44.6509 47.0494 44.4684 47.0163 44.3855C46.9832 44.297 46.906 44.1753 46.8398 44.1034C46.7736 44.0315 46.5917 43.943 46.4428 43.8987C46.2884 43.8545 46.0182 43.8102 45.8362 43.7936C45.6543 43.7826 45.4503 43.7826 45.3841 43.7992C45.3179 43.8102 45.2131 43.8877 45.147 43.9706ZM50.3137 42.4884C50.8982 42.4884 51.4331 42.5105 51.4993 42.5381C51.571 42.5603 51.6426 42.6211 51.6647 42.6764C51.6978 42.7373 51.6537 42.8423 51.5324 43.0027C51.4386 43.1299 51.3283 43.3346 51.2842 43.4563C51.2401 43.5945 51.1905 44.1476 51.1574 44.922C51.1298 45.6078 51.1023 46.7416 51.1023 47.4385C51.1023 48.2018 51.1298 48.7991 51.1629 48.9318C51.2015 49.0756 51.3228 49.2471 51.4938 49.4186C51.6426 49.5624 51.764 49.7117 51.764 49.7504C51.7695 49.7836 51.7364 49.85 51.6978 49.8832C51.6427 49.9329 51.3063 49.9495 49.1447 49.9274L49.1282 49.7504C49.1172 49.5956 49.1447 49.5458 49.3102 49.4462C49.4149 49.3743 49.5307 49.2582 49.5693 49.1863C49.6245 49.0812 49.6355 48.4894 49.6245 46.4208C49.6134 44.3965 49.5914 43.7217 49.5307 43.5116C49.4866 43.3622 49.3653 43.1244 49.2605 42.9861C49.1502 42.8479 49.0565 42.7096 49.051 42.6709C49.0455 42.6322 49.0896 42.5769 49.1502 42.5492C49.2109 42.516 49.7072 42.4939 50.3137 42.4884ZM63.0404 42.4939C63.8896 42.4884 64.8105 42.516 65.0807 42.5492C65.3508 42.5824 65.6982 42.6543 65.8526 42.7151C66.0015 42.7704 66.2497 42.9198 66.393 43.0525C66.5419 43.1852 66.7239 43.4175 66.7956 43.5669C66.8672 43.7217 66.9555 43.9983 66.983 44.1919C67.0216 44.4186 67.0216 44.6509 66.983 44.8832C66.95 45.0713 66.8507 45.3865 66.757 45.5857C66.6632 45.7848 66.5254 46.0226 66.4482 46.1111C66.371 46.2051 66.2166 46.3434 66.1063 46.4263C65.996 46.5093 65.7699 46.6199 65.6045 46.6808C65.417 46.7471 65.2957 46.819 65.2847 46.8744C65.2792 46.9297 65.4942 47.3611 65.7644 47.8423C66.0346 48.3179 66.3544 48.8378 66.4702 48.9982C66.586 49.1531 66.7514 49.3356 66.8452 49.3964C66.9334 49.4573 67.0933 49.5126 67.1871 49.5126C67.2863 49.5126 67.4407 49.4739 67.5345 49.4296C67.6227 49.3854 67.7385 49.2748 67.7826 49.1807C67.8543 49.0425 67.8653 48.6608 67.8653 46.819C67.8598 45.6078 67.8433 44.3689 67.8157 44.0647C67.7826 43.6222 67.744 43.4618 67.6337 43.2627C67.5565 43.1244 67.4352 42.964 67.3745 42.9032C67.3084 42.8423 67.2532 42.7594 67.2587 42.7262C67.2587 42.6875 67.2973 42.6156 67.347 42.5713C67.4187 42.505 67.6337 42.4884 68.5877 42.4884C69.5361 42.4884 69.7567 42.505 69.8228 42.5713C69.8669 42.6156 69.9055 42.7041 69.9055 42.7649C69.9055 42.8257 69.8614 42.9142 69.8063 42.964C69.7567 43.0138 69.6684 43.0802 69.6133 43.1023C69.5637 43.1299 69.4975 43.2461 69.4644 43.3622C69.4313 43.4839 69.4093 44.662 69.4093 46.2936C69.4093 48.517 69.4258 49.0425 69.4865 49.1697C69.5306 49.2526 69.6409 49.3743 69.7346 49.4462C69.8614 49.5347 69.9055 49.6121 69.9055 49.7338C69.9055 49.8279 69.889 49.9108 69.8614 49.9219C69.8394 49.9329 68.8358 49.9551 65.4391 49.9827L65.3067 49.8444C65.2351 49.767 64.8325 49.0978 64.4134 48.3511C63.9999 47.6044 63.6249 46.9573 63.5808 46.9131C63.5201 46.8412 63.5091 47.0126 63.5091 49.1531L63.7573 49.4186C63.8951 49.5624 64.0054 49.6951 64.0054 49.7228C64.0054 49.7449 63.9723 49.8113 63.9282 49.8721C63.851 49.9772 63.7959 49.9827 62.6434 49.9661C61.9817 49.9551 61.4248 49.9329 61.3972 49.9219C61.3751 49.9108 61.3586 49.8279 61.3586 49.7338C61.3586 49.6066 61.4082 49.5292 61.5902 49.3909C61.7225 49.2858 61.8604 49.1088 61.921 48.9761C62.0148 48.7493 62.0148 48.6111 61.9652 46.4595C61.9376 45.204 61.899 44.0259 61.888 43.8434C61.8769 43.6554 61.8218 43.4175 61.7556 43.2903C61.695 43.1687 61.5792 43.0083 61.502 42.9308C61.4193 42.8534 61.3531 42.7373 61.3476 42.6709C61.3421 42.6045 61.3751 42.5381 61.4193 42.5271C61.4579 42.5105 62.1912 42.4939 63.0404 42.4939ZM63.5201 44.0094C63.4705 44.1089 63.465 44.3191 63.4926 44.8003C63.5257 45.287 63.5532 45.475 63.6249 45.558C63.7076 45.6576 63.7903 45.6686 64.2646 45.6686C64.6947 45.6686 64.8491 45.6465 65.02 45.558C65.1413 45.4972 65.2902 45.3755 65.3508 45.2925C65.4225 45.193 65.4722 45.027 65.4832 44.85C65.4942 44.6509 65.4666 44.5016 65.4005 44.3689C65.3453 44.2638 65.213 44.12 65.1082 44.0481C65.0035 43.9817 64.827 43.8987 64.7222 43.8711C64.6175 43.8379 64.3804 43.8047 64.1984 43.7881C64.0164 43.7771 63.8069 43.7881 63.7297 43.8158C63.6525 43.8434 63.5587 43.9319 63.5201 44.0094ZM72.828 42.4884C74.576 42.4884 74.6257 42.4939 74.8628 42.6156C75.0558 42.7096 75.133 42.7926 75.2157 42.9861C75.2874 43.1631 75.3094 43.2903 75.2818 43.4286C75.2653 43.5337 75.133 43.8324 74.9896 44.0923C74.8517 44.3523 74.2562 45.4087 73.6662 46.4429C73.0762 47.4772 72.5634 48.3622 72.5192 48.4064C72.4807 48.4507 72.4421 48.5336 72.4421 48.5889C72.4421 48.6387 72.4751 48.6995 72.5082 48.7217C72.5468 48.7383 72.8997 48.7659 73.2968 48.7715C73.6883 48.7825 74.1018 48.7659 74.2066 48.7383C74.3114 48.7106 74.4988 48.5889 74.6201 48.4617C74.7415 48.34 74.8848 48.2405 74.9345 48.2405C74.9896 48.2405 75.0778 48.3069 75.1274 48.3954C75.1991 48.506 75.2212 48.6664 75.2267 49.0148C75.2267 49.319 75.1991 49.5513 75.144 49.673C75.0999 49.7725 75.0117 49.8832 74.951 49.9163C74.8848 49.944 74.0742 49.9661 72.9108 49.9606C70.9863 49.9551 70.9808 49.9551 70.854 49.8334C70.7602 49.7394 70.7216 49.6232 70.6996 49.3743C70.6775 49.1531 70.6996 48.954 70.7547 48.7659C70.8043 48.6166 71.1959 47.8312 71.6205 47.0237C72.0506 46.2162 72.5744 45.2538 72.7784 44.8832C72.988 44.5071 73.1479 44.1642 73.1313 44.12C73.1093 44.0536 72.9714 44.037 72.3318 44.037C71.7914 44.037 71.5157 44.0591 71.4054 44.1144C71.3227 44.1532 71.1793 44.2804 71.0911 44.391C70.9808 44.5293 70.8871 44.5901 70.8154 44.579C70.7547 44.568 70.6775 44.5016 70.6389 44.4242C70.5948 44.3357 70.5672 44.0536 70.5672 43.6498C70.5672 43.1133 70.5838 42.9861 70.6775 42.8257C70.7382 42.7207 70.8429 42.599 70.9091 42.5603C71.0084 42.505 71.466 42.4884 72.828 42.4884ZM82.7921 42.4884C83.3877 42.4884 83.6193 42.5105 83.7461 42.5713C83.8564 42.6266 83.9336 42.7207 83.9722 42.8645C84.0163 43.0083 84.0273 43.8987 84.0163 45.8456C83.9997 48.0746 84.0108 48.6387 84.0659 48.694C84.1155 48.7438 84.3085 48.7659 84.7 48.7604C85.0088 48.7604 85.4003 48.7217 85.5658 48.683C85.7422 48.6387 85.9407 48.5392 86.0345 48.4507C86.1227 48.3622 86.2495 48.2958 86.3102 48.2958C86.3708 48.2958 86.4535 48.3234 86.4921 48.3622C86.5362 48.4119 86.5583 48.6166 86.5583 49.0037C86.5583 49.3135 86.5748 49.5679 86.5969 49.5679C86.6245 49.5679 86.7292 49.5126 86.834 49.4462C86.9388 49.3743 87.0822 49.2305 87.2807 48.9318L87.2751 43.6775L87.1428 43.401C87.0711 43.2516 86.9443 43.0359 86.8671 42.9308C86.7844 42.8257 86.7237 42.7041 86.7237 42.6709C86.7237 42.6322 86.7734 42.5769 86.834 42.5437C86.9002 42.5105 87.7163 42.4884 88.9294 42.4884C90.4017 42.4884 90.9531 42.505 91.0579 42.5603C91.1406 42.5935 91.2398 42.693 91.2784 42.7815C91.3336 42.8866 91.3556 43.1576 91.3556 43.6941C91.3556 44.214 91.3391 44.474 91.2895 44.5237C91.2509 44.5569 91.1847 44.5901 91.1351 44.5901C91.0909 44.5956 90.9531 44.5182 90.8318 44.4242C90.7105 44.3301 90.4513 44.2029 90.2528 44.1421C90.0543 44.0813 89.7179 44.0149 89.5084 43.9983C89.1996 43.9706 89.0948 43.9817 88.8191 44.1476V45.5857L89.0231 45.641C89.1389 45.6686 89.365 45.6963 89.5194 45.6963C89.7896 45.6963 89.8282 45.6797 90.0598 45.4474C90.1976 45.3091 90.319 45.1985 90.3355 45.1985C90.352 45.1985 90.4237 45.2317 90.5009 45.2704C90.5781 45.3036 90.6443 45.3478 90.6443 45.3644C90.6498 45.381 90.6553 45.8235 90.6608 46.3489C90.6608 46.8799 90.6553 47.3279 90.6388 47.35C90.6222 47.3777 90.5561 47.4219 90.4844 47.4606C90.4182 47.4938 90.3245 47.5104 90.2804 47.4938C90.2362 47.4772 90.1866 47.4164 90.1701 47.3555C90.1535 47.2947 90.0653 47.173 89.9771 47.079C89.8337 46.9352 89.7675 46.9131 89.5194 46.9131C89.365 46.9131 89.15 46.9297 89.0452 46.9518C88.9459 46.9794 88.8412 47.0348 88.8246 47.079C88.8026 47.1232 88.8026 47.4496 88.8246 47.798C88.8632 48.34 88.8853 48.4507 88.9845 48.5447C89.0838 48.6442 89.1886 48.6553 89.8558 48.6774C90.523 48.694 90.6388 48.683 90.8318 48.5834C90.9531 48.5226 91.1185 48.3843 91.2012 48.2737C91.2894 48.1631 91.3887 48.0746 91.4218 48.0746C91.4604 48.0746 91.5431 48.1243 91.6038 48.1907C91.692 48.2847 91.7196 48.4009 91.7361 48.8434C91.7471 49.1365 91.7251 49.4739 91.6975 49.5956C91.6589 49.7283 91.5872 49.8444 91.51 49.8887C91.4383 49.9274 91.306 49.9606 91.2178 49.9606C91.124 49.9606 89.6242 49.9495 87.8817 49.9274C86.1337 49.9053 84.1266 49.9163 83.4152 49.944C82.7039 49.9717 82.0753 49.9717 82.0201 49.9495C81.9705 49.9219 81.9099 49.8444 81.8933 49.7781C81.8657 49.673 81.9099 49.6066 82.3951 49.1918V46.4651C82.3951 44.1919 82.3786 43.6886 82.3124 43.4618C82.2683 43.3125 82.1359 43.0802 82.0201 42.9474C81.9099 42.8147 81.8106 42.6875 81.8051 42.6598C81.7996 42.6266 81.8437 42.5769 81.9044 42.5492C81.9595 42.516 82.362 42.4939 82.7921 42.4884ZM39.9085 8.63932H43.0516V11.8472H39.9085V8.63932ZM44.4301 8.63932H47.6228L47.6008 11.8196L44.4301 11.8472V8.63932ZM39.9085 13.1193H43.0516V16.3273H39.9085V13.1193ZM44.4301 13.1193H47.6228L47.6008 16.2996L44.4301 16.3273V13.1193Z" fill="#292626"/>
</svg>
