<svg width="53" height="54" viewBox="0 0 53 54" fill="none" xmlns="http://www.w3.org/2000/svg">
<g clip-path="url(#clip0_4220_878)">
<path d="M51.7865 50.8632C51.7827 51.4019 51.5751 51.9172 51.2088 52.2968C50.8425 52.6764 50.3474 52.8894 49.8312 52.8893H4.31073C3.79463 52.8894 3.29945 52.6764 2.93317 52.2968C2.5669 51.9172 2.35924 51.4019 2.35547 50.8632V27.562C2.35547 23.316 14.7507 10.4289 42.524 11.3824C50.2737 11.6506 51.8008 13.3713 51.8008 15.6806L51.7865 50.8632Z" stroke="#C5A56B" stroke-width="2" stroke-linecap="round" stroke-linejoin="round"/>
<path d="M10.8048 18.2207C10.619 18.1824 10.4355 18.1327 10.2553 18.0717C9.12168 17.6956 8.12029 16.9772 7.37772 16.0072C6.63514 15.0371 6.18473 13.8591 6.0834 12.6219C5.98206 11.3847 6.23437 10.1439 6.80841 9.05638C7.38246 7.96884 8.25248 7.08337 9.30851 6.51188C10.3645 5.94039 11.5592 5.70855 12.7414 5.84565C13.9236 5.98275 15.0404 6.48265 15.9505 7.28215C16.8606 8.08165 17.5232 9.14486 17.8546 10.3374C18.186 11.5299 18.1713 12.7983 17.8123 13.9821C17.7221 14.2753 17.6124 14.5615 17.4841 14.8387" stroke="#C5A56B" stroke-width="2" stroke-linecap="round" stroke-linejoin="round"/>
<path d="M13.8945 6.0934L15.5144 0.744873" stroke="#C5A56B" stroke-width="2" stroke-linecap="round" stroke-linejoin="round"/>
<path d="M17.4199 9.18485L22.1868 6.60742" stroke="#C5A56B" stroke-width="2" stroke-linecap="round" stroke-linejoin="round"/>
<path d="M1.95605 17.5503L6.73003 14.9729" stroke="#C5A56B" stroke-width="2" stroke-linecap="round" stroke-linejoin="round"/>
<path d="M1.21387 8.48462L6.33751 10.183" stroke="#C5A56B" stroke-width="2" stroke-linecap="round" stroke-linejoin="round"/>
<path d="M6.83008 1.5271L9.29913 6.50317" stroke="#C5A56B" stroke-width="2" stroke-linecap="round" stroke-linejoin="round"/>
<path d="M2.35547 46.93C4.06811 38.4006 24.1631 13.863 34.1677 11.5463" stroke="#C5A56B" stroke-width="2" stroke-linecap="round" stroke-linejoin="round"/>
<path d="M14.7725 52.8893C19.3324 37.0151 36.7585 11.5463 43.2451 11.5463" stroke="#C5A56B" stroke-width="2" stroke-linecap="round" stroke-linejoin="round"/>
<path d="M34.168 52.8893C37.2222 41.2164 45.1503 14.8983 50.4523 13.0286" stroke="#C5A56B" stroke-width="2" stroke-linecap="round" stroke-linejoin="round"/>
</g>
<defs>
<clipPath id="clip0_4220_878">
<rect width="52" height="53.6492" fill="white" transform="translate(0.5)"/>
</clipPath>
</defs>
</svg>
