<svg width="53" height="54" viewBox="0 0 53 54" fill="none" xmlns="http://www.w3.org/2000/svg">
<path d="M26.5 1.67652C27.567 1.67652 28.6235 1.89334 29.6093 2.31461C30.5951 2.73588 31.4908 3.35334 32.2452 4.13175C32.9997 4.91015 33.5982 5.83425 34.0065 6.85129C34.4148 7.86832 34.625 8.95837 34.625 10.0592C36.7799 10.0592 38.8465 10.9424 40.3702 12.5144C41.894 14.0865 42.75 16.2187 42.75 18.4419C42.75 20.6651 41.894 22.7973 40.3702 24.3693C38.8465 25.9414 36.7799 26.8246 34.625 26.8246C34.6254 28.757 33.9786 30.6303 32.7941 32.1273C31.6096 33.6243 29.9602 34.6531 28.125 35.0396V42.2319C29.5143 40.5432 31.2455 39.1891 33.1968 38.2651C35.148 37.3411 37.2718 36.8696 39.4188 36.8838C41.5158 36.8786 43.5892 37.3418 45.4963 38.2418L46 38.4933V42.3996C44.0785 40.9883 41.7774 40.2321 39.4188 40.2369C36.7034 40.1862 34.0629 41.157 31.9906 42.9681C29.9183 44.7791 28.5557 47.3064 28.1575 50.0781L28.125 50.3296V50.4973C28.0799 50.8707 27.9143 51.2176 27.6549 51.4822C27.3956 51.7467 27.0574 51.9136 26.695 51.9558L26.5 51.9726C26.1349 51.9714 25.7808 51.8434 25.4949 51.6092C25.2089 51.375 25.0077 51.0483 24.9237 50.6817L24.8913 50.4805C24.5536 47.6141 23.1963 44.9792 21.0826 43.0865C18.9689 41.1939 16.2494 40.1784 13.4512 40.2369C11.1475 40.2303 8.89666 40.9498 7 42.299V38.4262C9.97136 36.9292 13.3413 36.4956 16.578 37.1938C19.8147 37.8921 22.7339 39.6824 24.875 42.2822V35.0396C23.0984 34.6673 21.4936 33.6928 20.3157 32.271C19.1379 30.8492 18.4548 29.0619 18.375 27.1934V26.8246H18.0175C15.8626 26.8246 13.796 25.9414 12.2723 24.3693C10.7485 22.7973 9.8925 20.6651 9.8925 18.4419C9.8925 16.2187 10.7485 14.0865 12.2723 12.5144C13.796 10.9424 15.8626 10.0592 18.0175 10.0592H18.375V9.69036C18.4672 7.53168 19.3637 5.49309 20.8775 3.99994C22.3914 2.50679 24.4056 1.67443 26.5 1.67652ZM31.1475 25.3157C29.786 26.3011 28.1632 26.8298 26.5 26.8298C24.8368 26.8298 23.2141 26.3011 21.8525 25.3157L21.7387 25.7013C21.576 26.4379 21.5763 27.2028 21.7394 27.9393C21.9025 28.6758 22.2243 29.3649 22.6809 29.9554C23.1376 30.546 23.7173 31.0229 24.377 31.3506C25.0368 31.6783 25.7596 31.8485 26.4919 31.8485C27.2241 31.8485 27.947 31.6783 28.6067 31.3506C29.2665 31.0229 29.8462 30.546 30.3028 29.9554C30.7594 29.3649 31.0813 28.6758 31.2444 27.9393C31.4075 27.2028 31.4077 26.4379 31.245 25.7013L31.1475 25.3157ZM18.375 13.4123C17.6922 13.4184 17.0184 13.5725 16.397 13.8645C15.7756 14.1565 15.2206 14.5799 14.768 15.1072C14.3153 15.6346 13.9751 16.2542 13.7693 16.9259C13.5635 17.5976 13.4968 18.3064 13.5735 19.0064C13.6501 19.7063 13.8684 20.3819 14.2143 20.9893C14.5601 21.5967 15.0258 22.1223 15.5811 22.5322C16.1364 22.9421 16.769 23.2271 17.4378 23.3687C18.1067 23.5102 18.7969 23.5053 19.4637 23.3541L19.8375 23.2368C18.8842 21.8314 18.3735 20.1572 18.375 18.4419C18.375 16.6648 18.9112 15.005 19.8375 13.647L19.4637 13.5296C19.1062 13.4486 18.741 13.4092 18.375 13.4123ZM34.625 13.4123C34.2512 13.4123 33.8937 13.4626 33.5362 13.5296L33.1625 13.647C34.0888 14.9882 34.625 16.6648 34.625 18.4419C34.6265 20.1572 34.1158 21.8314 33.1625 23.2368L33.5362 23.3541C34.2031 23.5053 34.8933 23.5102 35.5622 23.3687C36.231 23.2271 36.8636 22.9421 37.4189 22.5322C37.9742 22.1223 38.4399 21.5967 38.7857 20.9893C39.1316 20.3819 39.3499 19.7063 39.4265 19.0064C39.5032 18.3064 39.4365 17.5976 39.2307 16.9259C39.0249 16.2542 38.6847 15.6346 38.232 15.1072C37.7794 14.5799 37.2244 14.1565 36.603 13.8645C35.9816 13.5725 35.3078 13.4184 34.625 13.4123ZM26.5 13.4123C25.8598 13.4123 25.2259 13.5424 24.6344 13.7951C24.043 14.0479 23.5055 14.4184 23.0529 14.8854C22.6002 15.3525 22.2411 15.9069 21.9961 16.5171C21.7511 17.1274 21.625 17.7814 21.625 18.4419C21.625 19.1024 21.7511 19.7564 21.9961 20.3666C22.2411 20.9768 22.6002 21.5313 23.0529 21.9984C23.5055 22.4654 24.043 22.8359 24.6344 23.0886C25.2259 23.3414 25.8598 23.4715 26.5 23.4715C27.7929 23.4715 29.0329 22.9416 29.9471 21.9984C30.8614 21.0551 31.375 19.7758 31.375 18.4419C31.375 17.1079 30.8614 15.8286 29.9471 14.8854C29.0329 13.9422 27.7929 13.4123 26.5 13.4123ZM26.5 5.02959C25.7665 5.02813 25.0421 5.19747 24.3809 5.52498C23.7196 5.85249 23.1385 6.32973 22.6808 6.92114C22.2232 7.51255 21.9008 8.20289 21.7377 8.94071C21.5746 9.67853 21.5749 10.4448 21.7387 11.1825L21.8525 11.5681C23.2141 10.5826 24.8368 10.0539 26.5 10.0539C28.1632 10.0539 29.786 10.5826 31.1475 11.5681L31.2612 11.1825C31.4251 10.4448 31.4254 9.67853 31.2623 8.94071C31.0992 8.20289 30.7768 7.51255 30.3192 6.92114C29.8615 6.32973 29.2804 5.85249 28.6191 5.52498C27.9579 5.19747 27.2335 5.02813 26.5 5.02959Z" fill="#C5A56B"/>
</svg>
