<svg width="56" height="114" viewBox="0 0 56 114" fill="none" xmlns="http://www.w3.org/2000/svg">
<path id="Vector" d="M38.7152 0.303647C36.3254 0.320567 33.5481 1.07971 31.8045 2.73913C29.9504 4.65509 28.5394 7.15303 28.5734 9.84451C28.5973 10.2384 28.5973 10.2384 28.6987 10.5228C28.7264 11.0372 28.3686 11.3672 28.0613 11.7596C27.9187 11.9487 27.7763 12.138 27.634 12.3273C27.5599 12.4249 27.4858 12.5224 27.4094 12.623C26.072 14.3938 24.9048 16.2489 23.7806 18.1572C23.8491 17.7931 23.9322 17.4463 24.0514 17.0955C24.5572 15.5767 24.9913 14.0585 25.0729 12.451C25.0832 12.3075 25.0935 12.164 25.1041 12.0162C25.2412 9.27124 24.2863 5.99705 22.4709 3.89C21.6272 3.02569 21.6272 3.02569 21.0189 3.01161C20.5809 3.19602 20.4588 3.53415 20.2709 3.94277C20.2312 4.02571 20.1915 4.10864 20.1506 4.19409C18.6567 7.37143 17.9186 10.2641 19.1452 13.6601C19.8513 15.5215 20.9633 17.1024 22.8187 17.9607C23.0757 18.0407 23.0757 18.0407 23.4282 18.0407C23.2895 18.9255 22.95 19.6042 22.5097 20.3814C22.3069 20.7403 22.1093 21.1021 21.9115 21.4638C21.871 21.5377 21.8305 21.6116 21.7887 21.6878C20.1867 24.6239 18.9197 27.7102 17.7892 30.8504C17.7892 30.492 17.8548 30.2341 17.9507 29.8897C18.3288 28.4116 18.4204 26.9485 18.4201 25.4304C18.4206 25.1445 18.4249 24.8588 18.4293 24.5729C18.4381 23.3643 18.2919 22.3345 17.9066 21.1849C17.8711 21.0757 17.8355 20.9665 17.7989 20.8539C16.9629 18.3976 15.6874 15.5434 13.2075 14.3143C12.9726 14.3096 12.7375 14.3092 12.5026 14.3143C11.1208 16.8495 10.1558 20.7939 10.8409 23.6568C11.6845 26.4137 12.9508 29.111 15.5809 30.5698C16.1992 30.8788 16.6187 30.9941 17.3192 30.9669C17.5467 31.8485 17.2695 32.5732 16.9904 33.4115C16.849 33.838 16.7145 34.2667 16.5804 34.6956C16.5531 34.7829 16.5257 34.8702 16.4976 34.9602C16.0633 36.3647 15.7496 37.7992 15.4396 39.235C15.4151 39.3483 15.3906 39.4616 15.3653 39.5783C15.0761 40.9323 14.837 42.2935 14.6172 43.6601C14.6128 43.5429 14.6084 43.4256 14.6039 43.3049C14.3903 38.4632 12.7446 34.4185 9.20675 31.0292C8.13471 30.1145 6.79414 29.1196 5.32902 29.06C4.98392 29.1036 4.98392 29.1036 4.74896 29.3365C3.86708 31.8252 4.69008 35.9922 5.76222 38.3033C6.19165 39.1141 6.74205 39.8177 7.33351 40.5159C7.3852 40.5772 7.4369 40.6386 7.49017 40.7017C8.75934 42.1877 10.4969 43.6983 12.5311 43.922C12.8129 43.9414 13.0942 43.955 13.3763 43.9658C13.4735 43.9703 13.5706 43.9748 13.6707 43.9795C13.9079 43.9903 14.1451 44 14.3823 44.0095C14.4883 44.5208 14.4965 44.9531 14.4382 45.471C14.4225 45.6175 14.4067 45.7639 14.3905 45.9148C14.3733 46.0666 14.356 46.2185 14.3382 46.3749C14.0662 48.8178 14.0145 51.2249 14.0225 53.6823C14.0231 53.9986 14.0236 54.315 14.0241 54.6314C14.0254 55.3995 14.0273 56.1676 14.0298 56.9356C14.0047 56.8584 13.9796 56.7812 13.9537 56.7016C13.0235 53.855 13.0235 53.855 12.4512 52.7215C12.3965 52.6112 12.3419 52.5009 12.2855 52.3873C10.6305 49.1188 7.45076 46.1983 3.94864 44.9557C3.18732 44.7476 2.35932 44.75 1.57702 44.8246C1.34207 45.0575 1.34207 45.0575 1.32417 45.3428C1.54613 48.6591 2.55236 52.9348 5.15601 55.2089C5.48539 55.4806 5.82072 55.7429 6.15871 56.004C6.26775 56.092 6.37679 56.18 6.48912 56.2706C8.33984 57.7213 10.4608 58.6372 12.855 58.4495C13.1831 58.398 13.5014 58.3367 13.8233 58.2562C13.8915 58.2431 13.9596 58.2301 14.0298 58.2166C14.2076 58.3929 14.1743 58.5571 14.1895 58.8034C14.4734 62.8386 15.2695 66.9016 16.3794 70.7934C16.3464 70.7384 16.3134 70.6835 16.2794 70.6269C13.5211 66.0491 10.042 62.5872 4.73428 61.1215C3.50393 60.824 2.16227 60.6762 0.989628 61.2444C0.91209 61.3212 0.834557 61.3981 0.754669 61.4773C0.886028 62.3211 1.18283 63.0898 1.5036 63.8791C1.55485 64.0052 1.60611 64.1313 1.65891 64.2613C2.4251 66.1052 3.28805 68.0059 4.63148 69.5124C4.68225 69.5701 4.73302 69.6277 4.78533 69.6871C6.59295 71.7075 9.7882 73.4329 12.5299 73.6047C14.196 73.6691 15.4622 73.5247 16.9668 72.7731C17.0092 72.8872 17.0517 73.0012 17.0954 73.1187C18.4905 76.8592 20.0113 80.4892 22.0184 83.9525C21.654 83.5971 21.3038 83.2347 20.9619 82.8577C18.2999 79.9363 15.4712 78.3534 11.6802 77.1983C11.5966 77.1717 11.5131 77.1452 11.4269 77.1179C10.4458 76.8132 9.44676 76.8156 8.42753 76.8052C8.29343 76.8036 8.15934 76.8019 8.02118 76.8002C6.86806 76.8069 5.7936 76.9437 4.86644 77.6641C4.92323 78.3039 5.15992 78.7119 5.50524 79.2362C5.5578 79.3175 5.61036 79.3989 5.66451 79.4827C6.19345 80.2937 6.75052 81.0827 7.33351 81.8563C7.41097 81.9595 7.41097 81.9595 7.48999 82.0647C9.70341 84.9915 12.455 86.7387 16.1155 87.391C18.5241 87.6999 20.755 87.4749 22.7453 86.0049C22.8156 85.9425 22.8859 85.88 22.9582 85.8157C23.3823 86.1951 23.6598 86.6295 23.9495 87.1112C24.6193 88.197 25.3667 89.2185 26.1302 90.2409C26.2019 90.3377 26.2737 90.4345 26.3476 90.5343C27.5564 92.1649 28.8324 93.7003 30.2103 95.1919C30.4629 95.466 30.7133 95.7417 30.9615 96.0198C31.0272 96.0933 31.093 96.1669 31.1607 96.2427C31.3116 96.3915 31.3116 96.3915 31.2993 96.5293C31.2512 96.4782 31.203 96.4271 31.1535 96.3745C30.6465 95.8522 30.1202 95.438 29.5077 95.0445C29.4164 94.9853 29.3251 94.926 29.231 94.865C25.1185 92.2239 20.7162 90.8187 15.748 91.6456C14.507 91.9095 12.9826 92.3907 12.1502 93.3851C12.1389 93.8748 12.2797 94.1333 12.6058 94.48C12.7485 94.6188 12.8929 94.756 13.0386 94.8917C13.1142 94.964 13.1897 95.0363 13.2676 95.1109C13.4809 95.3138 13.696 95.5144 13.9123 95.7141C14.0391 95.8319 14.0391 95.8319 14.1684 95.952C14.3915 96.151 14.6203 96.3404 14.8522 96.5293C14.9103 96.5781 14.9684 96.6269 15.0283 96.6772C17.7679 98.9747 20.3589 100.183 23.9701 100.182C24.2426 100.183 24.5148 100.187 24.7872 100.192C27.0105 100.208 29.053 99.6128 30.7018 98.0677C30.9468 97.8102 30.9468 97.8102 31.1699 97.4873C31.3953 97.1987 31.3953 97.1987 31.7406 97.1722C32.2513 97.247 32.4866 97.5033 32.8256 97.8616C32.8902 97.9269 32.9547 97.9922 33.0213 98.0594C33.2273 98.2683 33.4308 98.4795 33.6342 98.6909C33.9025 98.9658 34.1717 99.2398 34.4409 99.5138C34.5056 99.5799 34.5702 99.646 34.6368 99.7141C35.1081 100.194 35.5968 100.642 36.1159 101.071C36.2446 101.181 36.3731 101.292 36.5014 101.403C38.1257 102.793 39.7932 104.116 41.52 105.38C40.9992 105.31 40.5949 105.1 40.1396 104.856C36.498 102.99 32.6478 102.25 28.5973 102.934C28.4451 102.957 28.2929 102.979 28.1361 103.003C25.8719 103.359 23.6291 104.174 22.0184 105.845C21.7651 106.222 21.7193 106.34 21.7835 106.777C21.974 106.988 21.974 106.988 22.2396 107.178C22.3366 107.248 22.4335 107.317 22.5334 107.389C23.0116 107.705 23.4993 107.997 24.0009 108.276C24.1078 108.336 24.2146 108.396 24.3248 108.457C28.0668 110.524 31.5829 111.507 35.8259 110.332C37.9536 109.695 39.7158 108.661 41.0175 106.83C41.1899 106.502 41.2417 106.212 41.285 105.845C42.2951 105.855 42.8472 106.24 43.6419 106.828C43.8832 107 44.1248 107.172 44.3665 107.344C44.4832 107.427 44.5999 107.511 44.7201 107.597C45.3471 108.038 45.9996 108.436 46.6579 108.83C46.9662 109.015 47.2734 109.201 47.5807 109.387C54.0704 113.298 54.0704 113.298 54.9126 113.298C55.0114 113.112 55.1091 112.925 55.2063 112.738C55.2881 112.582 55.2881 112.582 55.3715 112.423C55.5 112.134 55.5 112.134 55.5 111.784C55.4174 111.742 55.3349 111.7 55.2498 111.657C52.3836 110.195 49.54 108.709 46.8065 107.01C46.6846 106.934 46.6846 106.934 46.5601 106.857C46.0231 106.522 45.489 106.184 44.9574 105.841C44.7813 105.728 44.6047 105.616 44.4275 105.505C44.1786 105.348 43.9321 105.188 43.686 105.027C43.5737 104.957 43.5737 104.957 43.4591 104.886C43.055 104.616 42.9381 104.483 42.8237 104.004C42.8199 103.882 42.8161 103.759 42.8122 103.633C42.9043 103.628 42.9964 103.623 43.0913 103.618C44.59 103.26 45.6464 102.032 46.4338 100.786C48.0053 98.1821 48.6719 94.5961 47.9272 91.6384C47.3862 89.6483 46.4566 87.7933 45.4262 86.0122C45.3736 85.9211 45.321 85.83 45.2668 85.7362C44.9591 85.2161 44.6558 84.7271 44.222 84.3018C43.9274 84.2304 43.9274 84.2304 43.6346 84.3018C41.6716 85.5688 40.8249 88.0783 40.3452 90.2409C39.4419 94.5865 39.8738 99.4006 42.3107 103.256C42.4984 103.534 42.4984 103.534 42.4598 103.982C42.1494 103.836 41.874 103.678 41.5989 103.474C41.4884 103.392 41.4884 103.392 41.3757 103.309C41.2973 103.25 41.2189 103.191 41.1382 103.131C41.0559 103.069 40.9736 103.008 40.8889 102.944C40.0562 102.318 39.2459 101.666 38.4392 101.008C38.2535 100.857 38.0664 100.708 37.879 100.559C37.1497 99.9782 36.461 99.3636 35.7782 98.7309C35.4621 98.4382 35.1403 98.1526 34.8163 97.8685C34.6223 97.6945 34.429 97.5198 34.2363 97.3444C34.1744 97.2885 34.1126 97.2326 34.049 97.175C33.8499 96.9934 33.6537 96.809 33.458 96.6239C33.3953 96.5671 33.3325 96.5104 33.2679 96.4519C32.9535 96.1492 32.8313 95.9945 32.787 95.5554C32.8001 95.454 32.8131 95.3527 32.8265 95.2483C32.9549 95.2435 33.0833 95.2387 33.2157 95.2337C34.648 95.0488 35.9718 93.8734 36.8575 92.8101C37.0047 92.6156 37.1493 92.4192 37.2907 92.2206C37.3505 92.1378 37.4104 92.0551 37.472 91.9699C38.0729 91.0612 38.4477 90.0302 38.8267 89.0163C38.8941 88.8368 38.9631 88.658 39.0345 88.48C39.9785 86.1109 39.6856 83.422 38.9354 81.0412C38.8883 80.887 38.8883 80.887 38.8401 80.7297C38.3567 79.1638 37.8227 77.5444 36.9383 76.1502C35.9907 76.1984 35.1989 76.8617 34.5667 77.5217C31.9724 80.6752 30.6974 85.2117 31.1034 89.2301C31.3736 91.3508 31.7939 93.4514 32.4741 95.4812C31.7356 94.8789 31.104 94.2156 30.4769 93.5015C30.3552 93.3649 30.2334 93.2282 30.1116 93.0917C29.3483 92.2318 28.6176 91.3565 27.9251 90.4393C27.7668 90.2301 27.6069 90.0221 27.4468 89.8142C26.7758 88.9395 26.1238 88.0522 25.4841 87.1549C25.3805 87.0109 25.3805 87.0109 25.2749 86.864C24.877 86.3015 24.5227 85.7503 24.2505 85.117C24.2893 85.0017 24.3281 84.8864 24.368 84.7676C24.4633 84.7576 24.5585 84.7475 24.6566 84.7372C26.8522 84.461 28.5495 83.3028 29.9395 81.6298C31.1624 80.0604 32.2951 78.1026 32.709 76.1502C32.7308 76.0484 32.7526 75.9466 32.7751 75.8418C33.1465 73.0217 32.9189 69.0315 31.5342 66.4847C30.1086 66.5082 29.0771 67.3146 28.1118 68.2862C26.8867 69.5866 25.971 71.1795 25.1904 72.7731C25.1536 72.8472 25.1168 72.9213 25.0789 72.9976C23.9717 75.2567 23.6159 77.6613 23.6338 80.1605C23.634 80.2389 23.6342 80.3173 23.6345 80.3981C23.6388 81.562 23.7039 82.6879 23.8981 83.836C23.9397 84.1463 23.9777 84.4569 24.0156 84.7676C23.938 84.7676 23.8605 84.7676 23.7806 84.7676C23.7497 84.6857 23.7188 84.6037 23.6869 84.5193C23.536 84.1625 23.3578 83.8368 23.1652 83.5003C23.0882 83.3647 23.0112 83.229 22.9342 83.0934C22.8939 83.0223 22.8535 82.9513 22.8119 82.8782C21.3486 80.2956 20.0779 77.647 18.9915 74.8857C18.89 74.6296 18.7857 74.3746 18.6794 74.1204C18.2904 73.1841 18.2904 73.1841 18.2591 72.1908C18.3264 72.1933 18.3938 72.1957 18.4632 72.1982C20.9736 72.2771 20.9736 72.2771 22.1359 71.725C22.2449 71.6743 22.354 71.6236 22.4663 71.5713C23.2589 71.1719 23.9285 70.6648 24.603 70.0947C24.6838 70.0302 24.7647 69.9656 24.848 69.8991C25.529 69.3415 26.0563 68.6849 26.6001 67.9986C26.6988 67.8819 26.7976 67.7653 26.8993 67.6451C29.0106 65.1173 29.3497 61.8687 29.3328 58.6951C29.3315 58.408 29.3328 58.1209 29.3343 57.8338C29.3341 57.6489 29.3338 57.464 29.3333 57.2791C29.3338 57.1944 29.3343 57.1097 29.3348 57.0225C29.3302 56.5337 29.3191 56.0208 28.9497 55.6547C27.4208 55.4798 26.0153 56.4271 24.8517 57.3086C23.8321 58.1183 22.9795 58.9867 22.1716 60.0036C22.0645 60.1383 21.9569 60.2724 21.8487 60.4062C19.8607 62.8755 18.9085 65.5999 18.3766 68.6973C18.3388 68.9056 18.3388 68.9056 18.3004 69.118C18.14 70.0615 18.0747 71.0034 18.0241 71.9579C17.7836 71.6003 17.6955 71.3335 17.5813 70.9217C17.5427 70.7831 17.504 70.6446 17.4642 70.5018C17.4232 70.3516 17.3822 70.2013 17.3413 70.051C17.3203 69.9745 17.2993 69.8979 17.2777 69.819C17.1328 69.2903 16.9905 68.7611 16.8493 68.2315C16.8203 68.1229 16.7913 68.0143 16.7614 67.9025C16.3878 66.4824 16.1077 65.0432 15.8287 63.6025C15.8022 63.4666 15.8022 63.4666 15.7751 63.328C15.084 60.6705 15.084 60.6705 15.3244 58.1138C15.5766 57.939 15.5766 57.939 15.9815 58.0756C16.0645 58.0999 16.1474 58.1243 16.2328 58.1494C18.21 58.6527 20.21 57.9055 21.9009 56.9356C22.3934 56.6115 22.8528 56.2578 23.3107 55.8876C23.378 55.8345 23.4453 55.7815 23.5146 55.7269C26.4942 53.3727 27.6534 49.8846 28.1273 46.2221C28.2021 45.284 28.2021 45.284 28.1273 44.8246C27.832 44.5319 27.7286 44.5571 27.3197 44.5554C24.7311 44.6186 22.4785 46.2364 20.661 47.9356C20.4157 48.1628 20.1647 48.3713 19.9038 48.5802C17.4712 50.7171 16.0893 54.2061 15.4148 57.29C15.3502 57.6454 15.3502 57.6454 15.0871 57.8673C14.9508 56.2818 14.9478 54.6974 14.9479 53.1071C14.9476 52.6618 14.9455 52.2166 14.9433 51.7713C14.9375 49.2607 14.9978 46.7209 15.4396 44.2424C15.7147 44.106 15.7147 44.106 16.027 44.0095C16.3715 44.2079 16.3715 44.2079 16.7318 44.4753C18.4763 45.2793 20.6037 45.0962 22.3709 44.4753C26.0466 43.1339 28.047 41.0055 29.8234 37.6119C29.9298 37.4091 29.9298 37.4091 30.0382 37.2021C30.9747 35.3868 30.9747 35.3868 30.9168 34.9138C30.8294 34.6933 30.8294 34.6933 30.4907 34.4932C29.9155 34.2796 29.3373 34.2818 28.7294 34.2858C28.6098 34.2865 28.4902 34.2873 28.367 34.288C26.4878 34.3325 24.8628 35.056 23.1932 35.8579C23.1129 35.8962 23.0325 35.9345 22.9497 35.974C21.9079 36.4774 20.9952 37.0552 20.1387 37.8375C20.0791 37.8917 20.0195 37.9458 19.9581 38.0016C18.3951 39.4375 16.7457 41.3453 15.9095 43.3108C15.9095 43.4261 15.9095 43.5413 15.9095 43.6601C15.7544 43.6986 15.5993 43.737 15.4396 43.7766C15.9411 40.2336 16.6425 36.7282 17.6717 33.2959C17.6979 33.206 17.724 33.1161 17.751 33.0234C17.825 32.7714 17.9018 32.5204 17.9801 32.2697C18.0441 32.0632 18.0441 32.0632 18.1095 31.8525C18.2281 31.5388 18.2281 31.5388 18.4812 31.4263C18.8143 31.4349 18.9497 31.5464 19.2136 31.7456C20.7887 32.8517 22.8006 32.9473 24.6644 32.6381C28.4267 31.881 30.8404 29.873 32.944 26.7746C33.2178 26.359 33.4836 25.9393 33.7443 25.5155C33.8042 25.4189 33.8641 25.3223 33.9258 25.2228C34.2202 24.7308 34.4286 24.3301 34.4712 23.7469C34.3276 23.6511 34.183 23.5568 34.038 23.463C33.9576 23.4103 33.8772 23.3576 33.7943 23.3033C32.4491 22.5935 30.1123 22.95 28.7138 23.3593C28.5574 23.4105 28.401 23.4621 28.2448 23.514C28.1522 23.5433 28.0595 23.5727 27.9641 23.6029C25.5739 24.3626 23.6155 25.3959 21.7835 27.124C21.7244 27.1794 21.6653 27.2347 21.6044 27.2918C20.4205 28.4086 19.3887 29.6089 18.494 30.9669C18.7344 30.0047 19.0569 29.0924 19.4265 28.172C19.4832 28.0304 19.5399 27.8888 19.5982 27.7428C20.4488 25.6305 21.3919 23.5625 22.4149 21.527C22.482 21.3934 22.549 21.2598 22.6181 21.1221C22.9744 20.4219 23.3491 19.7439 23.7713 19.0804C23.8981 18.8559 23.8981 18.8559 23.8981 18.623C24.2307 18.5743 24.2307 18.5743 24.603 18.623C24.7652 18.8125 24.9204 19.0079 25.0729 19.2052C25.7862 19.7897 26.5404 20.2108 27.4225 20.4862C27.5548 20.5281 27.6872 20.57 27.8235 20.6131C28.5495 20.7878 29.2941 20.7527 30.0364 20.7482C30.1828 20.7491 30.3293 20.75 30.4801 20.751C33.6148 20.7445 35.6452 19.4495 37.8308 17.3785C38.0522 17.1731 38.284 16.9812 38.5169 16.7889C38.9511 16.4143 39.3836 15.9951 39.6403 15.4788C39.6224 15.1687 39.5603 15.0499 39.3379 14.831C37.2599 13.4299 34.4392 13.6353 32.0487 14.0022C29.4422 14.5219 27.0674 15.9891 25.0729 17.6914C24.8777 17.8474 24.682 18.0028 24.4855 18.1572C24.4467 18.1187 24.4079 18.0803 24.368 18.0407C25.3191 16.3841 26.3379 14.789 27.4376 13.2253C27.7064 12.8424 27.9628 12.46 28.1966 12.0553C28.6019 11.3417 28.6019 11.3417 29.2957 10.9453C29.5686 10.9146 29.8425 10.8922 30.1167 10.8767C32.2835 10.7028 34.6609 9.1256 36.0587 7.53509C37.6043 5.69571 39.6273 3.17699 39.5508 0.673472C39.49 0.201935 39.1252 0.312564 38.7152 0.303647Z" fill="#292626"/>
</svg>
