<svg width="56" height="114" viewBox="0 0 56 114" fill="none" xmlns="http://www.w3.org/2000/svg">
<path id="Vector" d="M17.2848 0.303647C19.6746 0.320567 22.4519 1.07971 24.1955 2.73913C26.0496 4.65509 27.4606 7.15303 27.4266 9.84451C27.4028 10.2384 27.4028 10.2384 27.3013 10.5228C27.2736 11.0372 27.6314 11.3672 27.9388 11.7596C28.0813 11.9487 28.2237 12.138 28.366 12.3273C28.4401 12.4249 28.5142 12.5224 28.5906 12.623C29.928 14.3938 31.0952 16.2489 32.2194 18.1572C32.1509 17.7931 32.0678 17.4463 31.9486 17.0955C31.4428 15.5767 31.0087 14.0585 30.9271 12.451C30.9168 12.3075 30.9065 12.164 30.8959 12.0162C30.7588 9.27124 31.7137 5.99705 33.5291 3.89C34.3728 3.02569 34.3728 3.02569 34.9811 3.01161C35.4191 3.19602 35.5412 3.53415 35.7291 3.94277C35.7688 4.02571 35.8085 4.10864 35.8494 4.19409C37.3433 7.37143 38.0814 10.2641 36.8548 13.6601C36.1487 15.5215 35.0367 17.1024 33.1813 17.9607C32.9243 18.0407 32.9243 18.0407 32.5718 18.0407C32.7105 18.9255 33.05 19.6042 33.4903 20.3814C33.6931 20.7403 33.8907 21.1021 34.0885 21.4638C34.129 21.5377 34.1695 21.6116 34.2113 21.6878C35.8133 24.6239 37.0803 27.7102 38.2108 30.8504C38.2108 30.492 38.1452 30.2341 38.0493 29.8897C37.6712 28.4116 37.5796 26.9485 37.5799 25.4304C37.5794 25.1445 37.5751 24.8588 37.5707 24.5729C37.5619 23.3643 37.7082 22.3345 38.0934 21.1849C38.1289 21.0757 38.1645 20.9665 38.2011 20.8539C39.0371 18.3976 40.3126 15.5434 42.7925 14.3143C43.0274 14.3096 43.2625 14.3092 43.4974 14.3143C44.8792 16.8495 45.8442 20.7939 45.1591 23.6568C44.3155 26.4137 43.0492 29.111 40.4191 30.5698C39.8008 30.8788 39.3813 30.9941 38.6808 30.9669C38.4533 31.8485 38.7305 32.5732 39.0096 33.4115C39.1511 33.838 39.2855 34.2667 39.4196 34.6956C39.4469 34.7829 39.4743 34.8702 39.5024 34.9602C39.9367 36.3647 40.2504 37.7992 40.5604 39.235C40.5849 39.3483 40.6094 39.4616 40.6347 39.5783C40.9239 40.9323 41.163 42.2935 41.3828 43.6601C41.3872 43.5429 41.3916 43.4256 41.3961 43.3049C41.6097 38.4632 43.2554 34.4185 46.7933 31.0292C47.8653 30.1145 49.2059 29.1196 50.671 29.06C51.0161 29.1036 51.0161 29.1036 51.251 29.3365C52.1329 31.8252 51.3099 35.9922 50.2378 38.3033C49.8084 39.1141 49.258 39.8177 48.6665 40.5159C48.6148 40.5772 48.5631 40.6386 48.5098 40.7017C47.2407 42.1877 45.5031 43.6983 43.4689 43.922C43.1871 43.9414 42.9059 43.955 42.6237 43.9658C42.5265 43.9703 42.4294 43.9748 42.3293 43.9795C42.0921 43.9903 41.8549 44 41.6177 44.0095C41.5117 44.5208 41.5035 44.9531 41.5618 45.471C41.5775 45.6175 41.5933 45.7639 41.6095 45.9148C41.6267 46.0666 41.644 46.2185 41.6618 46.3749C41.9338 48.8178 41.9855 51.2249 41.9775 53.6823C41.9769 53.9986 41.9764 54.315 41.9759 54.6314C41.9746 55.3995 41.9727 56.1676 41.9702 56.9356C41.9953 56.8584 42.0204 56.7812 42.0463 56.7016C42.9765 53.855 42.9765 53.855 43.5488 52.7215C43.6035 52.6112 43.6581 52.5009 43.7145 52.3873C45.3695 49.1188 48.5492 46.1983 52.0514 44.9557C52.8127 44.7476 53.6407 44.75 54.423 44.8246C54.6579 45.0575 54.6579 45.0575 54.6758 45.3428C54.4539 48.6591 53.4476 52.9348 50.844 55.2089C50.5146 55.4806 50.1793 55.7429 49.8413 56.004C49.7323 56.092 49.6232 56.18 49.5109 56.2706C47.6602 57.7213 45.5392 58.6372 43.145 58.4495C42.8169 58.398 42.4986 58.3367 42.1767 58.2562C42.1085 58.2431 42.0404 58.2301 41.9702 58.2166C41.7924 58.3929 41.8257 58.5571 41.8105 58.8034C41.5266 62.8386 40.7305 66.9016 39.6206 70.7934C39.6536 70.7384 39.6866 70.6835 39.7206 70.6269C42.4789 66.0491 45.958 62.5872 51.2657 61.1215C52.4961 60.824 53.8377 60.6762 55.0104 61.2444C55.0879 61.3212 55.1655 61.3981 55.2453 61.4773C55.114 62.3211 54.8172 63.0898 54.4964 63.8791C54.4452 64.0052 54.3939 64.1313 54.3411 64.2613C53.5749 66.1052 52.712 68.0059 51.3685 69.5124C51.3178 69.5701 51.267 69.6277 51.2147 69.6871C49.4071 71.7075 46.2118 73.4329 43.4701 73.6047C41.804 73.6691 40.5378 73.5247 39.0332 72.7731C38.9908 72.8872 38.9483 73.0012 38.9046 73.1187C37.5095 76.8592 35.9887 80.4892 33.9816 83.9525C34.346 83.5971 34.6962 83.2347 35.0381 82.8577C37.7001 79.9363 40.5288 78.3534 44.3198 77.1983C44.4034 77.1717 44.487 77.1452 44.5731 77.1179C45.5542 76.8132 46.5532 76.8156 47.5725 76.8052C47.7066 76.8036 47.8407 76.8019 47.9788 76.8002C49.1319 76.8069 50.2064 76.9437 51.1336 77.6641C51.0768 78.3039 50.8401 78.7119 50.4948 79.2362C50.4422 79.3175 50.3897 79.3989 50.3355 79.4827C49.8066 80.2937 49.2495 81.0827 48.6665 81.8563C48.589 81.9595 48.589 81.9595 48.51 82.0647C46.2966 84.9915 43.545 86.7387 39.8845 87.391C37.4759 87.6999 35.245 87.4749 33.2547 86.0049C33.1844 85.9425 33.1142 85.88 33.0418 85.8157C32.6177 86.1951 32.3402 86.6295 32.0505 87.1112C31.3807 88.197 30.6333 89.2185 29.8698 90.2409C29.7981 90.3377 29.7263 90.4345 29.6524 90.5343C28.4436 92.1649 27.1676 93.7003 25.7897 95.1919C25.5371 95.466 25.2867 95.7417 25.0385 96.0198C24.9728 96.0933 24.907 96.1669 24.8393 96.2427C24.6884 96.3915 24.6884 96.3915 24.7007 96.5293C24.7488 96.4782 24.797 96.4271 24.8465 96.3745C25.3535 95.8522 25.8798 95.438 26.4923 95.0445C26.5836 94.9853 26.6749 94.926 26.769 94.865C30.8815 92.2239 35.2838 90.8187 40.252 91.6456C41.493 91.9095 43.0174 92.3907 43.8498 93.3851C43.8611 93.8748 43.7203 94.1333 43.3942 94.48C43.2515 94.6188 43.1072 94.756 42.9614 94.8917C42.8858 94.964 42.8103 95.0363 42.7324 95.1109C42.5191 95.3138 42.304 95.5144 42.0877 95.7141C41.9609 95.8319 41.9609 95.8319 41.8316 95.952C41.6085 96.151 41.3797 96.3404 41.1478 96.5293C41.0897 96.5781 41.0316 96.6269 40.9717 96.6772C38.2321 98.9747 35.6411 100.183 32.0299 100.182C31.7574 100.183 31.4852 100.187 31.2128 100.192C28.9895 100.208 26.947 99.6128 25.2982 98.0677C25.0532 97.8102 25.0532 97.8102 24.8301 97.4873C24.6047 97.1987 24.6047 97.1987 24.2594 97.1722C23.7487 97.247 23.5134 97.5033 23.1744 97.8616C23.1098 97.9269 23.0453 97.9922 22.9787 98.0594C22.7727 98.2683 22.5692 98.4795 22.3658 98.6909C22.0975 98.9658 21.8283 99.2398 21.5591 99.5138C21.4944 99.5799 21.4298 99.646 21.3632 99.7141C20.8919 100.194 20.4032 100.642 19.8841 101.071C19.7554 101.181 19.6269 101.292 19.4986 101.403C17.8743 102.793 16.2068 104.116 14.48 105.38C15.0008 105.31 15.4051 105.1 15.8604 104.856C19.502 102.99 23.3522 102.25 27.4028 102.934C27.5549 102.957 27.7071 102.979 27.8639 103.003C30.1281 103.359 32.3709 104.174 33.9816 105.845C34.2349 106.222 34.2807 106.34 34.2165 106.777C34.026 106.988 34.026 106.988 33.7604 107.178C33.6634 107.248 33.5665 107.317 33.4666 107.389C32.9884 107.705 32.5007 107.997 31.9991 108.276C31.8922 108.336 31.7854 108.396 31.6752 108.457C27.9332 110.524 24.4171 111.507 20.1741 110.332C18.0464 109.695 16.2842 108.661 14.9825 106.83C14.8101 106.502 14.7583 106.212 14.715 105.845C13.7049 105.855 13.1528 106.24 12.3581 106.828C12.1168 107 11.8752 107.172 11.6335 107.344C11.5168 107.427 11.4001 107.511 11.2799 107.597C10.6529 108.038 10.0004 108.436 9.34209 108.83C9.03383 109.015 8.72663 109.201 8.4193 109.387C1.92957 113.298 1.92957 113.298 1.0874 113.298C0.988632 113.112 0.890934 112.925 0.793698 112.738C0.711922 112.582 0.711922 112.582 0.628493 112.423C0.5 112.134 0.5 112.134 0.5 111.784C0.582553 111.742 0.665105 111.7 0.75016 111.657C3.61645 110.195 6.46005 108.709 9.19347 107.01C9.31545 106.934 9.31545 106.934 9.43989 106.857C9.97687 106.522 10.511 106.184 11.0426 105.841C11.2187 105.728 11.3953 105.616 11.5725 105.505C11.8214 105.348 12.0679 105.188 12.314 105.027C12.4263 104.957 12.4263 104.957 12.5409 104.886C12.945 104.616 13.062 104.483 13.1763 104.004C13.1801 103.882 13.1839 103.759 13.1878 103.633C13.0957 103.628 13.0036 103.623 12.9087 103.618C11.41 103.26 10.3536 102.032 9.56618 100.786C7.99472 98.1821 7.32814 94.5961 8.07282 91.6384C8.6138 89.6483 9.54339 87.7933 10.5738 86.0122C10.6264 85.9211 10.679 85.83 10.7332 85.7362C11.0409 85.2161 11.3442 84.7271 11.778 84.3018C12.0726 84.2304 12.0726 84.2304 12.3654 84.3018C14.3284 85.5688 15.1751 88.0783 15.6548 90.2409C16.5581 94.5865 16.1262 99.4006 13.6893 103.256C13.5016 103.534 13.5016 103.534 13.5402 103.982C13.8506 103.836 14.126 103.678 14.4011 103.474C14.5116 103.392 14.5116 103.392 14.6243 103.309C14.7027 103.25 14.7811 103.191 14.8618 103.131C14.9441 103.069 15.0264 103.008 15.1111 102.944C15.9438 102.318 16.7541 101.666 17.5608 101.008C17.7465 100.857 17.9336 100.708 18.121 100.559C18.8503 99.9782 19.539 99.3636 20.2218 98.7309C20.5379 98.4382 20.8597 98.1526 21.1837 97.8685C21.3777 97.6945 21.571 97.5198 21.7637 97.3444C21.8256 97.2885 21.8874 97.2326 21.951 97.175C22.1501 96.9934 22.3463 96.809 22.542 96.6239C22.6048 96.5671 22.6675 96.5104 22.7321 96.4519C23.0465 96.1492 23.1687 95.9945 23.213 95.5554C23.1999 95.454 23.1869 95.3527 23.1735 95.2483C23.0451 95.2435 22.9167 95.2387 22.7843 95.2337C21.352 95.0488 20.0282 93.8734 19.1425 92.8101C18.9953 92.6156 18.8507 92.4192 18.7093 92.2206C18.6495 92.1378 18.5896 92.0551 18.528 91.9699C17.9271 91.0612 17.5523 90.0302 17.1733 89.0163C17.1059 88.8368 17.0369 88.658 16.9655 88.48C16.0215 86.1109 16.3144 83.422 17.0646 81.0412C17.1117 80.887 17.1117 80.887 17.1599 80.7297C17.6433 79.1638 18.1773 77.5444 19.0617 76.1502C20.0093 76.1984 20.8011 76.8617 21.4333 77.5217C24.0276 80.6752 25.3026 85.2117 24.8966 89.2301C24.6264 91.3508 24.2061 93.4514 23.5259 95.4812C24.2644 94.8789 24.896 94.2156 25.5231 93.5015C25.6448 93.3649 25.7666 93.2282 25.8884 93.0917C26.6517 92.2318 27.3824 91.3565 28.0749 90.4393C28.2332 90.2301 28.3931 90.0221 28.5532 89.8142C29.2242 88.9395 29.8762 88.0522 30.516 87.1549C30.6195 87.0109 30.6195 87.0109 30.7251 86.864C31.123 86.3015 31.4773 85.7503 31.7495 85.117C31.7107 85.0017 31.6719 84.8864 31.632 84.7676C31.5368 84.7576 31.4415 84.7475 31.3434 84.7372C29.1478 84.461 27.4505 83.3028 26.0605 81.6298C24.8376 80.0604 23.7049 78.1026 23.291 76.1502C23.2692 76.0484 23.2474 75.9466 23.2249 75.8418C22.8535 73.0217 23.0811 69.0315 24.4658 66.4847C25.8914 66.5082 26.9229 67.3146 27.8882 68.2862C29.1133 69.5866 30.029 71.1795 30.8097 72.7731C30.8464 72.8472 30.8832 72.9213 30.9211 72.9976C32.0283 75.2567 32.3841 77.6613 32.3663 80.1605C32.366 80.2389 32.3658 80.3173 32.3655 80.3981C32.3612 81.562 32.2961 82.6879 32.1019 83.836C32.0603 84.1463 32.0223 84.4569 31.9844 84.7676C32.062 84.7676 32.1395 84.7676 32.2194 84.7676C32.2503 84.6857 32.2812 84.6037 32.3131 84.5193C32.464 84.1625 32.6422 83.8368 32.8348 83.5003C32.9118 83.3647 32.9888 83.229 33.0658 83.0934C33.1061 83.0223 33.1465 82.9513 33.1881 82.8782C34.6515 80.2956 35.9221 77.647 37.0085 74.8857C37.11 74.6296 37.2143 74.3746 37.3206 74.1204C37.7096 73.1841 37.7096 73.1841 37.7409 72.1908C37.6736 72.1933 37.6062 72.1957 37.5368 72.1982C35.0264 72.2771 35.0264 72.2771 33.8641 71.725C33.7551 71.6743 33.646 71.6236 33.5337 71.5713C32.7411 71.1719 32.0715 70.6648 31.397 70.0947C31.3162 70.0302 31.2353 69.9656 31.152 69.8991C30.471 69.3415 29.9437 68.6849 29.3999 67.9986C29.3012 67.8819 29.2024 67.7653 29.1007 67.6451C26.9894 65.1173 26.6503 61.8687 26.6672 58.6951C26.6685 58.408 26.6672 58.1209 26.6658 57.8338C26.6659 57.6489 26.6662 57.464 26.6667 57.2791C26.6662 57.1944 26.6657 57.1097 26.6652 57.0225C26.6698 56.5337 26.6809 56.0208 27.0503 55.6547C28.5792 55.4798 29.9847 56.4271 31.1483 57.3086C32.1679 58.1183 33.0205 58.9867 33.8284 60.0036C33.9355 60.1383 34.0431 60.2724 34.1513 60.4062C36.1393 62.8755 37.0915 65.5999 37.6234 68.6973C37.6612 68.9056 37.6612 68.9056 37.6996 69.118C37.86 70.0615 37.9253 71.0034 37.9759 71.9579C38.2164 71.6003 38.3046 71.3335 38.4187 70.9217C38.4574 70.7831 38.496 70.6446 38.5358 70.5018C38.5768 70.3516 38.6178 70.2013 38.6587 70.051C38.6797 69.9745 38.7007 69.8979 38.7223 69.819C38.8672 69.2903 39.0095 68.7611 39.1507 68.2315C39.1797 68.1229 39.2087 68.0143 39.2386 67.9025C39.6122 66.4824 39.8923 65.0432 40.1713 63.6025C40.1978 63.4666 40.1978 63.4666 40.2249 63.328C40.916 60.6705 40.916 60.6705 40.6756 58.1138C40.4234 57.939 40.4234 57.939 40.0185 58.0756C39.9355 58.0999 39.8526 58.1243 39.7672 58.1494C37.79 58.6527 35.79 57.9055 34.0991 56.9356C33.6066 56.6115 33.1472 56.2578 32.6893 55.8876C32.622 55.8345 32.5547 55.7815 32.4854 55.7269C29.5058 53.3727 28.3466 49.8846 27.8727 46.2221C27.7979 45.284 27.7979 45.284 27.8727 44.8246C28.168 44.5319 28.2714 44.5571 28.6803 44.5554C31.2689 44.6186 33.5215 46.2364 35.339 47.9356C35.5843 48.1628 35.8353 48.3713 36.0962 48.5802C38.5288 50.7171 39.9107 54.2061 40.5852 57.29C40.6498 57.6454 40.6498 57.6454 40.9129 57.8673C41.0492 56.2818 41.0522 54.6974 41.0521 53.1071C41.0524 52.6618 41.0545 52.2166 41.0567 51.7713C41.0625 49.2607 41.0022 46.7209 40.5604 44.2424C40.2853 44.106 40.2853 44.106 39.973 44.0095C39.6285 44.2079 39.6285 44.2079 39.2682 44.4753C37.5237 45.2793 35.3963 45.0962 33.6292 44.4753C29.9534 43.1339 27.9531 41.0055 26.1766 37.6119C26.0702 37.4091 26.0702 37.4091 25.9618 37.2021C25.0253 35.3868 25.0253 35.3868 25.0832 34.9138C25.1706 34.6933 25.1706 34.6933 25.5093 34.4932C26.0845 34.2796 26.6628 34.2818 27.2706 34.2858C27.3902 34.2865 27.5098 34.2873 27.633 34.288C29.5122 34.3325 31.1372 35.056 32.8068 35.8579C32.8872 35.8962 32.9675 35.9345 33.0503 35.974C34.0921 36.4774 35.0048 37.0552 35.8613 37.8375C35.9209 37.8917 35.9805 37.9458 36.0419 38.0016C37.6049 39.4375 39.2543 41.3453 40.0905 43.3108C40.0905 43.4261 40.0905 43.5413 40.0905 43.6601C40.2456 43.6986 40.4007 43.737 40.5604 43.7766C40.0589 40.2336 39.3575 36.7282 38.3283 33.2959C38.3021 33.206 38.276 33.1161 38.249 33.0234C38.175 32.7714 38.0982 32.5204 38.0199 32.2697C37.9559 32.0632 37.9559 32.0632 37.8905 31.8525C37.7719 31.5388 37.7719 31.5388 37.5188 31.4263C37.1857 31.4349 37.0503 31.5464 36.7864 31.7456C35.2113 32.8517 33.1994 32.9473 31.3356 32.6381C27.5733 31.881 25.1596 29.873 23.056 26.7746C22.7822 26.359 22.5164 25.9393 22.2557 25.5155C22.1958 25.4189 22.1359 25.3223 22.0742 25.2228C21.7798 24.7308 21.5714 24.3301 21.5288 23.7469C21.6724 23.6511 21.817 23.5568 21.962 23.463C22.0424 23.4103 22.1228 23.3576 22.2057 23.3033C23.5509 22.5935 25.8877 22.95 27.2862 23.3593C27.4426 23.4105 27.599 23.4621 27.7552 23.514C27.8478 23.5433 27.9405 23.5727 28.0359 23.6029C30.4261 24.3626 32.3845 25.3959 34.2165 27.124C34.2756 27.1794 34.3347 27.2347 34.3956 27.2918C35.5795 28.4086 36.6113 29.6089 37.506 30.9669C37.2656 30.0047 36.9431 29.0924 36.5735 28.172C36.5168 28.0304 36.4601 27.8888 36.4018 27.7428C35.5512 25.6305 34.6081 23.5625 33.5851 21.527C33.518 21.3934 33.451 21.2598 33.3819 21.1221C33.0256 20.4219 32.6509 19.7439 32.2288 19.0804C32.1019 18.8559 32.1019 18.8559 32.1019 18.623C31.7693 18.5743 31.7693 18.5743 31.397 18.623C31.2348 18.8125 31.0796 19.0079 30.9271 19.2052C30.2139 19.7897 29.4596 20.2108 28.5775 20.4862C28.4452 20.5281 28.3128 20.57 28.1765 20.6131C27.4505 20.7878 26.7059 20.7527 25.9636 20.7482C25.8172 20.7491 25.6707 20.75 25.5199 20.751C22.3852 20.7445 20.3548 19.4495 18.1692 17.3785C17.9478 17.1731 17.716 16.9812 17.4831 16.7889C17.0489 16.4143 16.6164 15.9951 16.3597 15.4788C16.3776 15.1687 16.4397 15.0499 16.6621 14.831C18.7401 13.4299 21.5608 13.6353 23.9513 14.0022C26.5578 14.5219 28.9326 15.9891 30.9271 17.6914C31.1223 17.8474 31.318 18.0028 31.5145 18.1572C31.5533 18.1187 31.5921 18.0803 31.632 18.0407C30.6809 16.3841 29.6621 14.789 28.5624 13.2253C28.2936 12.8424 28.0372 12.46 27.8034 12.0553C27.3981 11.3417 27.3981 11.3417 26.7043 10.9453C26.4314 10.9146 26.1575 10.8922 25.8833 10.8767C23.7165 10.7028 21.3391 9.1256 19.9413 7.53509C18.3958 5.69571 16.3727 3.17699 16.4492 0.673472C16.51 0.201935 16.8748 0.312564 17.2848 0.303647Z" fill="#292626"/>
</svg>
