<svg width="32" height="33" viewBox="0 0 32 33" fill="none" xmlns="http://www.w3.org/2000/svg">
<g id="Thread">
<path id="Thread_2" fill-rule="evenodd" clip-rule="evenodd" d="M14.6511 4.39052C9.0866 5.01812 5.79207 8.87212 5.37921 15.2371C4.76514 24.7027 10.3795 30.3347 18.7457 28.6458C25.9675 27.1879 28.1211 18.8122 22.0461 15.8099C21.7163 15.6469 21.5789 15.5407 21.5588 15.4332C21.5434 15.3509 21.4973 15.0225 21.4562 14.7035C20.8749 10.1865 15.4745 8.37819 12.2677 11.6269C11.5171 12.3874 11.4884 12.2383 12.5189 12.934C13.3835 13.5178 13.3835 13.5178 13.7677 13.134C15.5601 11.3435 18.7288 12.1238 19.2574 14.4859C19.3579 14.9349 19.3921 14.9112 18.7511 14.8365C17.8151 14.7273 15.5058 14.8108 14.8844 14.9762C9.39267 16.4384 10.6613 23.2737 16.3795 23.0315C19.0485 22.9185 20.7684 21.3607 21.3539 18.5259C21.4956 17.8401 21.5961 17.8507 22.3576 18.6311C25.1288 21.4713 22.4401 26.0519 17.6528 26.6467C10.6021 27.5227 6.69141 22.7826 7.59014 14.4502C8.14534 9.30319 11.1735 6.48892 16.1511 6.49425C20.2853 6.49865 23.2867 8.51665 24.3205 11.9871C24.5189 12.6531 24.4499 12.6326 25.5292 12.3468C26.7081 12.0346 26.6341 12.1186 26.3861 11.3751C24.7355 6.42592 20.2541 3.75859 14.6511 4.39052ZM18.3511 16.9833C19.486 17.1068 19.4089 17.0645 19.3596 17.5359C19.0496 20.502 16.1081 22.0181 14.0941 20.2498C12.0906 18.4907 14.5888 16.5737 18.3511 16.9833Z" fill="white"/>
</g>
</svg>
