<svg width="32" height="23" viewBox="0 0 32 23" fill="none" xmlns="http://www.w3.org/2000/svg">
<g id="Lozenge">
<path id="Vector" d="M31.6812 4.89873C31.6812 4.89873 31.3688 2.69248 30.4062 1.72373C29.1875 0.448731 27.825 0.44248 27.2 0.36748C22.725 0.0424803 16.0063 0.0424805 16.0063 0.0424805H15.9937C15.9937 0.0424805 9.275 0.0424803 4.8 0.36748C4.175 0.44248 2.8125 0.448731 1.59375 1.72373C0.63125 2.69248 0.325 4.89873 0.325 4.89873C0.325 4.89873 0 7.49248 0 10.08V12.505C0 15.0925 0.31875 17.6862 0.31875 17.6862C0.31875 17.6862 0.63125 19.8925 1.5875 20.8612C2.80625 22.1362 4.40625 22.0925 5.11875 22.23C7.68125 22.4737 16 22.5487 16 22.5487C16 22.5487 22.725 22.5362 27.2 22.2175C27.825 22.1425 29.1875 22.1362 30.4062 20.8612C31.3688 19.8925 31.6812 17.6862 31.6812 17.6862C31.6812 17.6862 32 15.0987 32 12.505V10.08C32 7.49248 31.6812 4.89873 31.6812 4.89873ZM12.6938 15.4487V6.45498L21.3375 10.9675L12.6938 15.4487Z" fill="white"/>
</g>
</svg>
